%TF.GenerationSoftware,KiCad,Pcbnew,10.0.1*%
%TF.CreationDate,2026-05-14T13:20:08-04:00*%
%TF.ProjectId,Bench_Power_Supply,42656e63-685f-4506-9f77-65725f537570,rev?*%
%TF.SameCoordinates,Original*%
%TF.FileFunction,Copper,L4,Bot*%
%TF.FilePolarity,Positive*%
%FSLAX46Y46*%
G04 Gerber Fmt 4.6, Leading zero omitted, Abs format (unit mm)*
G04 Created by KiCad (PCBNEW 10.0.1) date 2026-05-14 13:20:08*
%MOMM*%
%LPD*%
G01*
G04 APERTURE LIST*
%TA.AperFunction,ComponentPad*%
%ADD10C,1.600000*%
%TD*%
%TA.AperFunction,ComponentPad*%
%ADD11R,2.600000X2.600000*%
%TD*%
%TA.AperFunction,ComponentPad*%
%ADD12C,2.600000*%
%TD*%
%TA.AperFunction,ComponentPad*%
%ADD13O,3.500000X2.900000*%
%TD*%
G04 APERTURE END LIST*
D10*
%TO.P,R2,1*%
%TO.N,/PWR_OK*%
X149200000Y-98900000D03*
%TO.P,R2,2*%
%TO.N,Net-(J7-Pin_1)*%
X158180256Y-107880256D03*
%TD*%
D11*
%TO.P,J9,1,Pin_1_1*%
%TO.N,GND*%
X173700000Y-85105000D03*
D12*
%TO.P,J9,2,Pin_2_2*%
X173700000Y-80105000D03*
%TD*%
D11*
%TO.P,J4,1,Pin_1_1*%
%TO.N,Net-(J4-Pin_1)*%
X156878333Y-125272500D03*
D12*
%TO.P,J4,2,Pin_2_2*%
%TO.N,GND*%
X161878333Y-125272500D03*
%TD*%
D11*
%TO.P,J2,1,Pin_1_1*%
%TO.N,/+12V*%
X135635000Y-54300000D03*
D12*
%TO.P,J2,2,Pin_2_2*%
X130635000Y-54300000D03*
%TD*%
D11*
%TO.P,J5,1,Pin_1_1*%
%TO.N,/+3.3V*%
X173700000Y-99295000D03*
D12*
%TO.P,J5,2,Pin_2_2*%
X173700000Y-94295000D03*
%TD*%
D11*
%TO.P,J10,1,Pin_1_1*%
%TO.N,GND*%
X175000000Y-54300000D03*
D12*
%TO.P,J10,2,Pin_2_2*%
X170000000Y-54300000D03*
%TD*%
D11*
%TO.P,J13,1,Pin_1_1*%
%TO.N,/+5V*%
X130635000Y-125272500D03*
D12*
%TO.P,J13,2,Pin_2_2*%
%TO.N,GND*%
X135635000Y-125272500D03*
%TD*%
D13*
%TO.P,J1,1,+3.3V_1*%
%TO.N,/+3.3V*%
X136900000Y-66600000D03*
%TO.P,J1,2,+3.3V_2*%
X136900000Y-70800000D03*
%TO.P,J1,3,GND_3*%
%TO.N,GND*%
X136900000Y-75000000D03*
%TO.P,J1,4,+5V_4*%
%TO.N,/+5V*%
X136900000Y-79200000D03*
%TO.P,J1,5,GND_5*%
%TO.N,GND*%
X136900000Y-83400000D03*
%TO.P,J1,6,+5V_6*%
%TO.N,/+5V*%
X136900000Y-87600000D03*
%TO.P,J1,7,GND_7*%
%TO.N,GND*%
X136900000Y-91800000D03*
%TO.P,J1,8,PWR_OK_8*%
%TO.N,/PWR_OK*%
X136900000Y-96000000D03*
%TO.P,J1,9,+5VSB_9*%
%TO.N,/+5VSB*%
X136900000Y-100200000D03*
%TO.P,J1,10,+12V_10*%
%TO.N,/+12V*%
X136900000Y-104400000D03*
%TO.P,J1,11,+12V_11*%
X136900000Y-108600000D03*
%TO.P,J1,12,+3.3V_12*%
%TO.N,/+3.3V*%
X136900000Y-112800000D03*
%TO.P,J1,13,+3.3V_13*%
X132700000Y-66600000D03*
%TO.P,J1,14,-12V_14*%
%TO.N,unconnected-(J1--12V-Pad14)*%
X132700000Y-70800000D03*
%TO.P,J1,15,GND_15*%
%TO.N,GND*%
X132700000Y-75000000D03*
%TO.P,J1,16,PS_ON#_16*%
%TO.N,/PS_ON*%
X132700000Y-79200000D03*
%TO.P,J1,17,GND_17*%
%TO.N,GND*%
X132700000Y-83400000D03*
%TO.P,J1,18,GND_18*%
X132700000Y-87600000D03*
%TO.P,J1,19,GND_19*%
X132700000Y-91800000D03*
%TO.P,J1,20,NC_20*%
%TO.N,unconnected-(J1-NC-Pad20)*%
X132700000Y-96000000D03*
%TO.P,J1,21,+5V_21*%
%TO.N,/+5V*%
X132700000Y-100200000D03*
%TO.P,J1,22,+5V_22*%
X132700000Y-104400000D03*
%TO.P,J1,23,+5V_23*%
X132700000Y-108600000D03*
%TO.P,J1,24,GND_24*%
%TO.N,GND*%
X132700000Y-112800000D03*
%TD*%
D11*
%TO.P,J8,1,Pin_1_1*%
%TO.N,GND*%
X173700000Y-113485000D03*
D12*
%TO.P,J8,2,Pin_2_2*%
X173700000Y-108485000D03*
%TD*%
D10*
%TO.P,R1,1*%
%TO.N,/+5VSB*%
X145500000Y-104000000D03*
%TO.P,R1,2*%
%TO.N,Net-(J4-Pin_1)*%
X154480256Y-112980256D03*
%TD*%
D11*
%TO.P,J7,1,Pin_1_1*%
%TO.N,Net-(J7-Pin_1)*%
X170000000Y-125272500D03*
D12*
%TO.P,J7,2,Pin_2_2*%
%TO.N,GND*%
X175000000Y-125272500D03*
%TD*%
D11*
%TO.P,J3,1,Pin_1_1*%
%TO.N,/+5V*%
X173700000Y-70915000D03*
D12*
%TO.P,J3,2,Pin_2_2*%
X173700000Y-65915000D03*
%TD*%
D11*
%TO.P,J12,1,Pin_1_1*%
%TO.N,/PS_ON*%
X143756667Y-125272500D03*
D12*
%TO.P,J12,2,Pin_2_2*%
%TO.N,GND*%
X148756667Y-125272500D03*
%TD*%
D11*
%TO.P,J6,1,Pin_1_1*%
%TO.N,/+12V*%
X148756667Y-54300000D03*
D12*
%TO.P,J6,2,Pin_2_2*%
X143756667Y-54300000D03*
%TD*%
D11*
%TO.P,J11,1,Pin_1_1*%
%TO.N,GND*%
X161878333Y-54300000D03*
D12*
%TO.P,J11,2,Pin_2_2*%
X156878333Y-54300000D03*
%TD*%
%TA.AperFunction,Conductor*%
%TO.N,GND*%
G36*
X136130743Y-91566649D02*
G01*
X136100000Y-91721207D01*
X136100000Y-91878793D01*
X136130743Y-92033351D01*
X136137639Y-92050000D01*
X133462361Y-92050000D01*
X133469257Y-92033351D01*
X133500000Y-91878793D01*
X133500000Y-91721207D01*
X133469257Y-91566649D01*
X133462361Y-91550000D01*
X136137639Y-91550000D01*
X136130743Y-91566649D01*
G37*
%TD.AperFunction*%
%TA.AperFunction,Conductor*%
G36*
X136130743Y-83166649D02*
G01*
X136100000Y-83321207D01*
X136100000Y-83478793D01*
X136130743Y-83633351D01*
X136137639Y-83650000D01*
X133462361Y-83650000D01*
X133469257Y-83633351D01*
X133500000Y-83478793D01*
X133500000Y-83321207D01*
X133469257Y-83166649D01*
X133462361Y-83150000D01*
X136137639Y-83150000D01*
X136130743Y-83166649D01*
G37*
%TD.AperFunction*%
%TA.AperFunction,Conductor*%
G36*
X136130743Y-74766649D02*
G01*
X136100000Y-74921207D01*
X136100000Y-75078793D01*
X136130743Y-75233351D01*
X136137639Y-75250000D01*
X133462361Y-75250000D01*
X133469257Y-75233351D01*
X133500000Y-75078793D01*
X133500000Y-74921207D01*
X133469257Y-74766649D01*
X133462361Y-74750000D01*
X136137639Y-74750000D01*
X136130743Y-74766649D01*
G37*
%TD.AperFunction*%
%TA.AperFunction,Conductor*%
G36*
X182192539Y-41220185D02*
G01*
X182238294Y-41272989D01*
X182249500Y-41324500D01*
X182249500Y-138075500D01*
X182229815Y-138142539D01*
X182177011Y-138188294D01*
X182125500Y-138199500D01*
X123374500Y-138199500D01*
X123307461Y-138179815D01*
X123261706Y-138127011D01*
X123250500Y-138075500D01*
X123250500Y-134678711D01*
X124849500Y-134678711D01*
X124849500Y-134921288D01*
X124881161Y-135161785D01*
X124943947Y-135396104D01*
X125036773Y-135620205D01*
X125036776Y-135620212D01*
X125158064Y-135830289D01*
X125158066Y-135830292D01*
X125158067Y-135830293D01*
X125305733Y-136022736D01*
X125305739Y-136022743D01*
X125477256Y-136194260D01*
X125477262Y-136194265D01*
X125669711Y-136341936D01*
X125879788Y-136463224D01*
X126103900Y-136556054D01*
X126338211Y-136618838D01*
X126518586Y-136642584D01*
X126578711Y-136650500D01*
X126578712Y-136650500D01*
X126821289Y-136650500D01*
X126869388Y-136644167D01*
X127061789Y-136618838D01*
X127296100Y-136556054D01*
X127520212Y-136463224D01*
X127730289Y-136341936D01*
X127922738Y-136194265D01*
X128094265Y-136022738D01*
X128241936Y-135830289D01*
X128363224Y-135620212D01*
X128456054Y-135396100D01*
X128518838Y-135161789D01*
X128550500Y-134921288D01*
X128550500Y-134678712D01*
X128550500Y-134678711D01*
X176949500Y-134678711D01*
X176949500Y-134921288D01*
X176981161Y-135161785D01*
X177043947Y-135396104D01*
X177136773Y-135620205D01*
X177136776Y-135620212D01*
X177258064Y-135830289D01*
X177258066Y-135830292D01*
X177258067Y-135830293D01*
X177405733Y-136022736D01*
X177405739Y-136022743D01*
X177577256Y-136194260D01*
X177577262Y-136194265D01*
X177769711Y-136341936D01*
X177979788Y-136463224D01*
X178203900Y-136556054D01*
X178438211Y-136618838D01*
X178618586Y-136642584D01*
X178678711Y-136650500D01*
X178678712Y-136650500D01*
X178921289Y-136650500D01*
X178969388Y-136644167D01*
X179161789Y-136618838D01*
X179396100Y-136556054D01*
X179620212Y-136463224D01*
X179830289Y-136341936D01*
X180022738Y-136194265D01*
X180194265Y-136022738D01*
X180341936Y-135830289D01*
X180463224Y-135620212D01*
X180556054Y-135396100D01*
X180618838Y-135161789D01*
X180650500Y-134921288D01*
X180650500Y-134678712D01*
X180618838Y-134438211D01*
X180556054Y-134203900D01*
X180463224Y-133979788D01*
X180341936Y-133769711D01*
X180194265Y-133577262D01*
X180194260Y-133577256D01*
X180022743Y-133405739D01*
X180022736Y-133405733D01*
X179830293Y-133258067D01*
X179830292Y-133258066D01*
X179830289Y-133258064D01*
X179620212Y-133136776D01*
X179620205Y-133136773D01*
X179396104Y-133043947D01*
X179161785Y-132981161D01*
X178921289Y-132949500D01*
X178921288Y-132949500D01*
X178678712Y-132949500D01*
X178678711Y-132949500D01*
X178438214Y-132981161D01*
X178203895Y-133043947D01*
X177979794Y-133136773D01*
X177979785Y-133136777D01*
X177769706Y-133258067D01*
X177577263Y-133405733D01*
X177577256Y-133405739D01*
X177405739Y-133577256D01*
X177405733Y-133577263D01*
X177258067Y-133769706D01*
X177136777Y-133979785D01*
X177136773Y-133979794D01*
X177043947Y-134203895D01*
X176981161Y-134438214D01*
X176949500Y-134678711D01*
X128550500Y-134678711D01*
X128518838Y-134438211D01*
X128456054Y-134203900D01*
X128363224Y-133979788D01*
X128241936Y-133769711D01*
X128094265Y-133577262D01*
X128094260Y-133577256D01*
X127922743Y-133405739D01*
X127922736Y-133405733D01*
X127730293Y-133258067D01*
X127730292Y-133258066D01*
X127730289Y-133258064D01*
X127520212Y-133136776D01*
X127520205Y-133136773D01*
X127296104Y-133043947D01*
X127061785Y-132981161D01*
X126821289Y-132949500D01*
X126821288Y-132949500D01*
X126578712Y-132949500D01*
X126578711Y-132949500D01*
X126338214Y-132981161D01*
X126103895Y-133043947D01*
X125879794Y-133136773D01*
X125879785Y-133136777D01*
X125669706Y-133258067D01*
X125477263Y-133405733D01*
X125477256Y-133405739D01*
X125305739Y-133577256D01*
X125305733Y-133577263D01*
X125158067Y-133769706D01*
X125036777Y-133979785D01*
X125036773Y-133979794D01*
X124943947Y-134203895D01*
X124881161Y-134438214D01*
X124849500Y-134678711D01*
X123250500Y-134678711D01*
X123250500Y-123924635D01*
X128834500Y-123924635D01*
X128834500Y-126620370D01*
X128834501Y-126620376D01*
X128840908Y-126679983D01*
X128891202Y-126814828D01*
X128891206Y-126814835D01*
X128977452Y-126930044D01*
X128977455Y-126930047D01*
X129092664Y-127016293D01*
X129092671Y-127016297D01*
X129227517Y-127066591D01*
X129227516Y-127066591D01*
X129234444Y-127067335D01*
X129287127Y-127073000D01*
X131982872Y-127072999D01*
X132042483Y-127066591D01*
X132177331Y-127016296D01*
X132292546Y-126930046D01*
X132378796Y-126814831D01*
X132429091Y-126679983D01*
X132435500Y-126620373D01*
X132435499Y-125154514D01*
X133835000Y-125154514D01*
X133835000Y-125390485D01*
X133865799Y-125624414D01*
X133926870Y-125852337D01*
X134017160Y-126070319D01*
X134017165Y-126070328D01*
X134135144Y-126274671D01*
X134135145Y-126274672D01*
X134197721Y-126356223D01*
X135033958Y-125519987D01*
X135058978Y-125580390D01*
X135130112Y-125686851D01*
X135220649Y-125777388D01*
X135327110Y-125848522D01*
X135387511Y-125873541D01*
X134551275Y-126709777D01*
X134632827Y-126772354D01*
X134632828Y-126772355D01*
X134837171Y-126890334D01*
X134837180Y-126890339D01*
X135055163Y-126980629D01*
X135055161Y-126980629D01*
X135283085Y-127041700D01*
X135517014Y-127072499D01*
X135517029Y-127072500D01*
X135752971Y-127072500D01*
X135752985Y-127072499D01*
X135986914Y-127041700D01*
X136214837Y-126980629D01*
X136432819Y-126890339D01*
X136432828Y-126890334D01*
X136637181Y-126772350D01*
X136718723Y-126709779D01*
X136718723Y-126709776D01*
X135882487Y-125873541D01*
X135942890Y-125848522D01*
X136049351Y-125777388D01*
X136139888Y-125686851D01*
X136211022Y-125580390D01*
X136236041Y-125519988D01*
X137072276Y-126356223D01*
X137072279Y-126356223D01*
X137134850Y-126274681D01*
X137252834Y-126070328D01*
X137252839Y-126070319D01*
X137343129Y-125852337D01*
X137404200Y-125624414D01*
X137434999Y-125390485D01*
X137435000Y-125390471D01*
X137435000Y-125154528D01*
X137434999Y-125154514D01*
X137404200Y-124920585D01*
X137343129Y-124692662D01*
X137252839Y-124474680D01*
X137252834Y-124474671D01*
X137134855Y-124270328D01*
X137134854Y-124270327D01*
X137072277Y-124188775D01*
X136236041Y-125025011D01*
X136211022Y-124964610D01*
X136139888Y-124858149D01*
X136049351Y-124767612D01*
X135942890Y-124696478D01*
X135882488Y-124671458D01*
X136629309Y-123924635D01*
X141956167Y-123924635D01*
X141956167Y-126620370D01*
X141956168Y-126620376D01*
X141962575Y-126679983D01*
X142012869Y-126814828D01*
X142012873Y-126814835D01*
X142099119Y-126930044D01*
X142099122Y-126930047D01*
X142214331Y-127016293D01*
X142214338Y-127016297D01*
X142349184Y-127066591D01*
X142349183Y-127066591D01*
X142356111Y-127067335D01*
X142408794Y-127073000D01*
X145104539Y-127072999D01*
X145164150Y-127066591D01*
X145298998Y-127016296D01*
X145414213Y-126930046D01*
X145500463Y-126814831D01*
X145550758Y-126679983D01*
X145557167Y-126620373D01*
X145557166Y-125154514D01*
X146956667Y-125154514D01*
X146956667Y-125390485D01*
X146987466Y-125624414D01*
X147048537Y-125852337D01*
X147138827Y-126070319D01*
X147138832Y-126070328D01*
X147256811Y-126274671D01*
X147256812Y-126274672D01*
X147319388Y-126356223D01*
X148155625Y-125519987D01*
X148180645Y-125580390D01*
X148251779Y-125686851D01*
X148342316Y-125777388D01*
X148448777Y-125848522D01*
X148509178Y-125873541D01*
X147672942Y-126709777D01*
X147754494Y-126772354D01*
X147754495Y-126772355D01*
X147958838Y-126890334D01*
X147958847Y-126890339D01*
X148176830Y-126980629D01*
X148176828Y-126980629D01*
X148404752Y-127041700D01*
X148638681Y-127072499D01*
X148638696Y-127072500D01*
X148874638Y-127072500D01*
X148874652Y-127072499D01*
X149108581Y-127041700D01*
X149336504Y-126980629D01*
X149554486Y-126890339D01*
X149554495Y-126890334D01*
X149758848Y-126772350D01*
X149840390Y-126709779D01*
X149840390Y-126709776D01*
X149004154Y-125873541D01*
X149064557Y-125848522D01*
X149171018Y-125777388D01*
X149261555Y-125686851D01*
X149332689Y-125580390D01*
X149357708Y-125519988D01*
X150193943Y-126356223D01*
X150193946Y-126356223D01*
X150256517Y-126274681D01*
X150374501Y-126070328D01*
X150374506Y-126070319D01*
X150464796Y-125852337D01*
X150525867Y-125624414D01*
X150556666Y-125390485D01*
X150556667Y-125390471D01*
X150556667Y-125154528D01*
X150556666Y-125154514D01*
X150525867Y-124920585D01*
X150464796Y-124692662D01*
X150374506Y-124474680D01*
X150374501Y-124474671D01*
X150256522Y-124270328D01*
X150256521Y-124270327D01*
X150193944Y-124188775D01*
X149357708Y-125025011D01*
X149332689Y-124964610D01*
X149261555Y-124858149D01*
X149171018Y-124767612D01*
X149064557Y-124696478D01*
X149004155Y-124671458D01*
X149750976Y-123924635D01*
X155077833Y-123924635D01*
X155077833Y-126620370D01*
X155077834Y-126620376D01*
X155084241Y-126679983D01*
X155134535Y-126814828D01*
X155134539Y-126814835D01*
X155220785Y-126930044D01*
X155220788Y-126930047D01*
X155335997Y-127016293D01*
X155336004Y-127016297D01*
X155470850Y-127066591D01*
X155470849Y-127066591D01*
X155477777Y-127067335D01*
X155530460Y-127073000D01*
X158226205Y-127072999D01*
X158285816Y-127066591D01*
X158420664Y-127016296D01*
X158535879Y-126930046D01*
X158622129Y-126814831D01*
X158672424Y-126679983D01*
X158678833Y-126620373D01*
X158678832Y-125154514D01*
X160078333Y-125154514D01*
X160078333Y-125390485D01*
X160109132Y-125624414D01*
X160170203Y-125852337D01*
X160260493Y-126070319D01*
X160260498Y-126070328D01*
X160378477Y-126274671D01*
X160378478Y-126274672D01*
X160441054Y-126356223D01*
X161277291Y-125519987D01*
X161302311Y-125580390D01*
X161373445Y-125686851D01*
X161463982Y-125777388D01*
X161570443Y-125848522D01*
X161630844Y-125873541D01*
X160794608Y-126709777D01*
X160876160Y-126772354D01*
X160876161Y-126772355D01*
X161080504Y-126890334D01*
X161080513Y-126890339D01*
X161298496Y-126980629D01*
X161298494Y-126980629D01*
X161526418Y-127041700D01*
X161760347Y-127072499D01*
X161760362Y-127072500D01*
X161996304Y-127072500D01*
X161996318Y-127072499D01*
X162230247Y-127041700D01*
X162458170Y-126980629D01*
X162676152Y-126890339D01*
X162676161Y-126890334D01*
X162880514Y-126772350D01*
X162962056Y-126709779D01*
X162962056Y-126709776D01*
X162125820Y-125873541D01*
X162186223Y-125848522D01*
X162292684Y-125777388D01*
X162383221Y-125686851D01*
X162454355Y-125580390D01*
X162479374Y-125519988D01*
X163315609Y-126356223D01*
X163315612Y-126356223D01*
X163378183Y-126274681D01*
X163496167Y-126070328D01*
X163496172Y-126070319D01*
X163586462Y-125852337D01*
X163647533Y-125624414D01*
X163678332Y-125390485D01*
X163678333Y-125390471D01*
X163678333Y-125154528D01*
X163678332Y-125154514D01*
X163647533Y-124920585D01*
X163586462Y-124692662D01*
X163496172Y-124474680D01*
X163496167Y-124474671D01*
X163378188Y-124270328D01*
X163378187Y-124270327D01*
X163315610Y-124188775D01*
X162479374Y-125025011D01*
X162454355Y-124964610D01*
X162383221Y-124858149D01*
X162292684Y-124767612D01*
X162186223Y-124696478D01*
X162125821Y-124671458D01*
X162872642Y-123924635D01*
X168199500Y-123924635D01*
X168199500Y-126620370D01*
X168199501Y-126620376D01*
X168205908Y-126679983D01*
X168256202Y-126814828D01*
X168256206Y-126814835D01*
X168342452Y-126930044D01*
X168342455Y-126930047D01*
X168457664Y-127016293D01*
X168457671Y-127016297D01*
X168592517Y-127066591D01*
X168592516Y-127066591D01*
X168599444Y-127067335D01*
X168652127Y-127073000D01*
X171347872Y-127072999D01*
X171407483Y-127066591D01*
X171542331Y-127016296D01*
X171657546Y-126930046D01*
X171743796Y-126814831D01*
X171794091Y-126679983D01*
X171800500Y-126620373D01*
X171800499Y-125154514D01*
X173200000Y-125154514D01*
X173200000Y-125390485D01*
X173230799Y-125624414D01*
X173291870Y-125852337D01*
X173382160Y-126070319D01*
X173382165Y-126070328D01*
X173500144Y-126274671D01*
X173500145Y-126274672D01*
X173562721Y-126356223D01*
X174398958Y-125519987D01*
X174423978Y-125580390D01*
X174495112Y-125686851D01*
X174585649Y-125777388D01*
X174692110Y-125848522D01*
X174752511Y-125873541D01*
X173916275Y-126709777D01*
X173997827Y-126772354D01*
X173997828Y-126772355D01*
X174202171Y-126890334D01*
X174202180Y-126890339D01*
X174420163Y-126980629D01*
X174420161Y-126980629D01*
X174648085Y-127041700D01*
X174882014Y-127072499D01*
X174882029Y-127072500D01*
X175117971Y-127072500D01*
X175117985Y-127072499D01*
X175351914Y-127041700D01*
X175579837Y-126980629D01*
X175797819Y-126890339D01*
X175797828Y-126890334D01*
X176002181Y-126772350D01*
X176083723Y-126709779D01*
X176083723Y-126709776D01*
X175247487Y-125873541D01*
X175307890Y-125848522D01*
X175414351Y-125777388D01*
X175504888Y-125686851D01*
X175576022Y-125580390D01*
X175601041Y-125519988D01*
X176437276Y-126356223D01*
X176437279Y-126356223D01*
X176499850Y-126274681D01*
X176617834Y-126070328D01*
X176617839Y-126070319D01*
X176708129Y-125852337D01*
X176769200Y-125624414D01*
X176799999Y-125390485D01*
X176800000Y-125390471D01*
X176800000Y-125154528D01*
X176799999Y-125154514D01*
X176769200Y-124920585D01*
X176708129Y-124692662D01*
X176617839Y-124474680D01*
X176617834Y-124474671D01*
X176499855Y-124270328D01*
X176499854Y-124270327D01*
X176437277Y-124188775D01*
X175601041Y-125025011D01*
X175576022Y-124964610D01*
X175504888Y-124858149D01*
X175414351Y-124767612D01*
X175307890Y-124696478D01*
X175247488Y-124671458D01*
X176083723Y-123835221D01*
X176002172Y-123772645D01*
X176002171Y-123772644D01*
X175797828Y-123654665D01*
X175797819Y-123654660D01*
X175579836Y-123564370D01*
X175579838Y-123564370D01*
X175351914Y-123503299D01*
X175117985Y-123472500D01*
X174882014Y-123472500D01*
X174648085Y-123503299D01*
X174420162Y-123564370D01*
X174202180Y-123654660D01*
X174202171Y-123654665D01*
X173997828Y-123772644D01*
X173997818Y-123772650D01*
X173916275Y-123835220D01*
X173916275Y-123835221D01*
X174752512Y-124671458D01*
X174692110Y-124696478D01*
X174585649Y-124767612D01*
X174495112Y-124858149D01*
X174423978Y-124964610D01*
X174398958Y-125025012D01*
X173562721Y-124188775D01*
X173562720Y-124188775D01*
X173500150Y-124270318D01*
X173500144Y-124270328D01*
X173382165Y-124474671D01*
X173382160Y-124474680D01*
X173291870Y-124692662D01*
X173230799Y-124920585D01*
X173200000Y-125154514D01*
X171800499Y-125154514D01*
X171800499Y-123924628D01*
X171799642Y-123916655D01*
X171797468Y-123896426D01*
X171796071Y-123883445D01*
X171794091Y-123865017D01*
X171743796Y-123730169D01*
X171743795Y-123730168D01*
X171743793Y-123730164D01*
X171657547Y-123614955D01*
X171657544Y-123614952D01*
X171542335Y-123528706D01*
X171542328Y-123528702D01*
X171407482Y-123478408D01*
X171407483Y-123478408D01*
X171347883Y-123472001D01*
X171347881Y-123472000D01*
X171347873Y-123472000D01*
X171347864Y-123472000D01*
X168652129Y-123472000D01*
X168652123Y-123472001D01*
X168592516Y-123478408D01*
X168457671Y-123528702D01*
X168457664Y-123528706D01*
X168342455Y-123614952D01*
X168342452Y-123614955D01*
X168256206Y-123730164D01*
X168256202Y-123730171D01*
X168205908Y-123865017D01*
X168199501Y-123924616D01*
X168199500Y-123924635D01*
X162872642Y-123924635D01*
X162962056Y-123835221D01*
X162880505Y-123772645D01*
X162880504Y-123772644D01*
X162676161Y-123654665D01*
X162676152Y-123654660D01*
X162458169Y-123564370D01*
X162458171Y-123564370D01*
X162230247Y-123503299D01*
X161996318Y-123472500D01*
X161760347Y-123472500D01*
X161526418Y-123503299D01*
X161298495Y-123564370D01*
X161080513Y-123654660D01*
X161080504Y-123654665D01*
X160876161Y-123772644D01*
X160876151Y-123772650D01*
X160794608Y-123835220D01*
X160794608Y-123835221D01*
X161630845Y-124671458D01*
X161570443Y-124696478D01*
X161463982Y-124767612D01*
X161373445Y-124858149D01*
X161302311Y-124964610D01*
X161277291Y-125025011D01*
X160441054Y-124188775D01*
X160441053Y-124188775D01*
X160378483Y-124270318D01*
X160378477Y-124270328D01*
X160260498Y-124474671D01*
X160260493Y-124474680D01*
X160170203Y-124692662D01*
X160109132Y-124920585D01*
X160078333Y-125154514D01*
X158678832Y-125154514D01*
X158678832Y-123924628D01*
X158677975Y-123916655D01*
X158675801Y-123896426D01*
X158674404Y-123883445D01*
X158672424Y-123865017D01*
X158622129Y-123730169D01*
X158622128Y-123730168D01*
X158622126Y-123730164D01*
X158535880Y-123614955D01*
X158535877Y-123614952D01*
X158420668Y-123528706D01*
X158420661Y-123528702D01*
X158285815Y-123478408D01*
X158285816Y-123478408D01*
X158226216Y-123472001D01*
X158226214Y-123472000D01*
X158226206Y-123472000D01*
X158226197Y-123472000D01*
X155530462Y-123472000D01*
X155530456Y-123472001D01*
X155470849Y-123478408D01*
X155336004Y-123528702D01*
X155335997Y-123528706D01*
X155220788Y-123614952D01*
X155220785Y-123614955D01*
X155134539Y-123730164D01*
X155134535Y-123730171D01*
X155084241Y-123865017D01*
X155077834Y-123924616D01*
X155077833Y-123924635D01*
X149750976Y-123924635D01*
X149840390Y-123835221D01*
X149758839Y-123772645D01*
X149758838Y-123772644D01*
X149554495Y-123654665D01*
X149554486Y-123654660D01*
X149336503Y-123564370D01*
X149336505Y-123564370D01*
X149108581Y-123503299D01*
X148874652Y-123472500D01*
X148638681Y-123472500D01*
X148404752Y-123503299D01*
X148176829Y-123564370D01*
X147958847Y-123654660D01*
X147958838Y-123654665D01*
X147754495Y-123772644D01*
X147754485Y-123772650D01*
X147672942Y-123835220D01*
X147672942Y-123835221D01*
X148509179Y-124671458D01*
X148448777Y-124696478D01*
X148342316Y-124767612D01*
X148251779Y-124858149D01*
X148180645Y-124964610D01*
X148155625Y-125025011D01*
X147319388Y-124188775D01*
X147319387Y-124188775D01*
X147256817Y-124270318D01*
X147256811Y-124270328D01*
X147138832Y-124474671D01*
X147138827Y-124474680D01*
X147048537Y-124692662D01*
X146987466Y-124920585D01*
X146956667Y-125154514D01*
X145557166Y-125154514D01*
X145557166Y-123924628D01*
X145556309Y-123916655D01*
X145554135Y-123896426D01*
X145552738Y-123883445D01*
X145550758Y-123865017D01*
X145500463Y-123730169D01*
X145500462Y-123730168D01*
X145500460Y-123730164D01*
X145414214Y-123614955D01*
X145414211Y-123614952D01*
X145299002Y-123528706D01*
X145298995Y-123528702D01*
X145164149Y-123478408D01*
X145164150Y-123478408D01*
X145104550Y-123472001D01*
X145104548Y-123472000D01*
X145104540Y-123472000D01*
X145104531Y-123472000D01*
X142408796Y-123472000D01*
X142408790Y-123472001D01*
X142349183Y-123478408D01*
X142214338Y-123528702D01*
X142214331Y-123528706D01*
X142099122Y-123614952D01*
X142099119Y-123614955D01*
X142012873Y-123730164D01*
X142012869Y-123730171D01*
X141962575Y-123865017D01*
X141956168Y-123924616D01*
X141956167Y-123924635D01*
X136629309Y-123924635D01*
X136718723Y-123835221D01*
X136637172Y-123772645D01*
X136637171Y-123772644D01*
X136432828Y-123654665D01*
X136432819Y-123654660D01*
X136214836Y-123564370D01*
X136214838Y-123564370D01*
X135986914Y-123503299D01*
X135752985Y-123472500D01*
X135517014Y-123472500D01*
X135283085Y-123503299D01*
X135055162Y-123564370D01*
X134837180Y-123654660D01*
X134837171Y-123654665D01*
X134632828Y-123772644D01*
X134632818Y-123772650D01*
X134551275Y-123835220D01*
X134551275Y-123835221D01*
X135387512Y-124671458D01*
X135327110Y-124696478D01*
X135220649Y-124767612D01*
X135130112Y-124858149D01*
X135058978Y-124964610D01*
X135033958Y-125025011D01*
X134197721Y-124188775D01*
X134197720Y-124188775D01*
X134135150Y-124270318D01*
X134135144Y-124270328D01*
X134017165Y-124474671D01*
X134017160Y-124474680D01*
X133926870Y-124692662D01*
X133865799Y-124920585D01*
X133835000Y-125154514D01*
X132435499Y-125154514D01*
X132435499Y-123924628D01*
X132434642Y-123916655D01*
X132432468Y-123896426D01*
X132431071Y-123883445D01*
X132429091Y-123865017D01*
X132378796Y-123730169D01*
X132378795Y-123730168D01*
X132378793Y-123730164D01*
X132292547Y-123614955D01*
X132292544Y-123614952D01*
X132177335Y-123528706D01*
X132177328Y-123528702D01*
X132042482Y-123478408D01*
X132042483Y-123478408D01*
X131982883Y-123472001D01*
X131982881Y-123472000D01*
X131982873Y-123472000D01*
X131982864Y-123472000D01*
X129287129Y-123472000D01*
X129287123Y-123472001D01*
X129227516Y-123478408D01*
X129092671Y-123528702D01*
X129092664Y-123528706D01*
X128977455Y-123614952D01*
X128977452Y-123614955D01*
X128891206Y-123730164D01*
X128891202Y-123730171D01*
X128840908Y-123865017D01*
X128834501Y-123924616D01*
X128834500Y-123924635D01*
X123250500Y-123924635D01*
X123250500Y-112550000D01*
X130466087Y-112550000D01*
X131937639Y-112550000D01*
X131930743Y-112566649D01*
X131900000Y-112721207D01*
X131900000Y-112878793D01*
X131930743Y-113033351D01*
X131937639Y-113050000D01*
X130466087Y-113050000D01*
X130483363Y-113181231D01*
X130483366Y-113181244D01*
X130549523Y-113428150D01*
X130647342Y-113664306D01*
X130647347Y-113664316D01*
X130775154Y-113885685D01*
X130930765Y-114088481D01*
X130930771Y-114088488D01*
X131111511Y-114269228D01*
X131111518Y-114269234D01*
X131314314Y-114424845D01*
X131535683Y-114552652D01*
X131535693Y-114552657D01*
X131771849Y-114650476D01*
X132018755Y-114716633D01*
X132018768Y-114716636D01*
X132272180Y-114749998D01*
X132272197Y-114750000D01*
X132450000Y-114750000D01*
X132450000Y-113562360D01*
X132466649Y-113569257D01*
X132621207Y-113600000D01*
X132778793Y-113600000D01*
X132933351Y-113569257D01*
X132950000Y-113562360D01*
X132950000Y-114750000D01*
X133127803Y-114750000D01*
X133127819Y-114749998D01*
X133381231Y-114716636D01*
X133381244Y-114716633D01*
X133628150Y-114650476D01*
X133864306Y-114552657D01*
X133864316Y-114552652D01*
X134085685Y-114424845D01*
X134288481Y-114269234D01*
X134288488Y-114269228D01*
X134469228Y-114088488D01*
X134469234Y-114088481D01*
X134624844Y-113885687D01*
X134692323Y-113768809D01*
X134742890Y-113720593D01*
X134811497Y-113707369D01*
X134876362Y-113733337D01*
X134907098Y-113768808D01*
X134974734Y-113885957D01*
X134974745Y-113885973D01*
X135130388Y-114088811D01*
X135130394Y-114088818D01*
X135311181Y-114269605D01*
X135311188Y-114269611D01*
X135455638Y-114380452D01*
X135514035Y-114425261D01*
X135514042Y-114425265D01*
X135735457Y-114553100D01*
X135735462Y-114553102D01*
X135735465Y-114553104D01*
X135884426Y-114614805D01*
X135970542Y-114650476D01*
X135971687Y-114650950D01*
X136218660Y-114717126D01*
X136472157Y-114750500D01*
X136472164Y-114750500D01*
X137327836Y-114750500D01*
X137327843Y-114750500D01*
X137581340Y-114717126D01*
X137828313Y-114650950D01*
X138064535Y-114553104D01*
X138285965Y-114425261D01*
X138488813Y-114269610D01*
X138669610Y-114088813D01*
X138825261Y-113885965D01*
X138953104Y-113664535D01*
X139050950Y-113428313D01*
X139117126Y-113181340D01*
X139150500Y-112927843D01*
X139150500Y-112877904D01*
X153179756Y-112877904D01*
X153179756Y-113082607D01*
X153211778Y-113284790D01*
X153275037Y-113479479D01*
X153367971Y-113661869D01*
X153488284Y-113827469D01*
X153633042Y-113972227D01*
X153788005Y-114084812D01*
X153798646Y-114092543D01*
X153914863Y-114151759D01*
X153981032Y-114185474D01*
X153981034Y-114185474D01*
X153981037Y-114185476D01*
X154085393Y-114219383D01*
X154175721Y-114248733D01*
X154276813Y-114264744D01*
X154377904Y-114280756D01*
X154377905Y-114280756D01*
X154582607Y-114280756D01*
X154582608Y-114280756D01*
X154784790Y-114248733D01*
X154979475Y-114185476D01*
X155161866Y-114092543D01*
X155303160Y-113989888D01*
X155327469Y-113972227D01*
X155327471Y-113972224D01*
X155327475Y-113972222D01*
X155472222Y-113827475D01*
X155472224Y-113827471D01*
X155472227Y-113827469D01*
X155592542Y-113661867D01*
X155610133Y-113627344D01*
X155610133Y-113627343D01*
X155650042Y-113549019D01*
X155685476Y-113479475D01*
X155748733Y-113284790D01*
X155780756Y-113082608D01*
X155780756Y-112877904D01*
X155748733Y-112675722D01*
X155685476Y-112481037D01*
X155685474Y-112481034D01*
X155685474Y-112481032D01*
X155592543Y-112298646D01*
X155525767Y-112206736D01*
X155525766Y-112206733D01*
X155475215Y-112137155D01*
X171900000Y-112137155D01*
X171900000Y-113235000D01*
X173099999Y-113235000D01*
X173074979Y-113295402D01*
X173050000Y-113420981D01*
X173050000Y-113549019D01*
X173074979Y-113674598D01*
X173099999Y-113735000D01*
X171900000Y-113735000D01*
X171900000Y-114832844D01*
X171906401Y-114892372D01*
X171906403Y-114892379D01*
X171956645Y-115027086D01*
X171956649Y-115027093D01*
X172042809Y-115142187D01*
X172042812Y-115142190D01*
X172157906Y-115228350D01*
X172157913Y-115228354D01*
X172292620Y-115278596D01*
X172292627Y-115278598D01*
X172352155Y-115284999D01*
X172352172Y-115285000D01*
X173450000Y-115285000D01*
X173450000Y-114085001D01*
X173510402Y-114110021D01*
X173635981Y-114135000D01*
X173764019Y-114135000D01*
X173889598Y-114110021D01*
X173950000Y-114085001D01*
X173950000Y-115285000D01*
X175047828Y-115285000D01*
X175047844Y-115284999D01*
X175107372Y-115278598D01*
X175107379Y-115278596D01*
X175242086Y-115228354D01*
X175242093Y-115228350D01*
X175357187Y-115142190D01*
X175357190Y-115142187D01*
X175443350Y-115027093D01*
X175443354Y-115027086D01*
X175493596Y-114892379D01*
X175493598Y-114892372D01*
X175499999Y-114832844D01*
X175500000Y-114832827D01*
X175500000Y-113735000D01*
X174300001Y-113735000D01*
X174325021Y-113674598D01*
X174350000Y-113549019D01*
X174350000Y-113420981D01*
X174325021Y-113295402D01*
X174300001Y-113235000D01*
X175500000Y-113235000D01*
X175500000Y-112137172D01*
X175499999Y-112137155D01*
X175493598Y-112077627D01*
X175493596Y-112077620D01*
X175443354Y-111942913D01*
X175443350Y-111942906D01*
X175357190Y-111827812D01*
X175357187Y-111827809D01*
X175242093Y-111741649D01*
X175242086Y-111741645D01*
X175107379Y-111691403D01*
X175107372Y-111691401D01*
X175047844Y-111685000D01*
X173950000Y-111685000D01*
X173950000Y-112884998D01*
X173889598Y-112859979D01*
X173764019Y-112835000D01*
X173635981Y-112835000D01*
X173510402Y-112859979D01*
X173450000Y-112884998D01*
X173450000Y-111685000D01*
X172352155Y-111685000D01*
X172292627Y-111691401D01*
X172292620Y-111691403D01*
X172157913Y-111741645D01*
X172157906Y-111741649D01*
X172042812Y-111827809D01*
X172042809Y-111827812D01*
X171956649Y-111942906D01*
X171956645Y-111942913D01*
X171906403Y-112077620D01*
X171906401Y-112077627D01*
X171900000Y-112137155D01*
X155475215Y-112137155D01*
X155472227Y-112133043D01*
X155472223Y-112133038D01*
X155327469Y-111988284D01*
X155161869Y-111867971D01*
X155161868Y-111867970D01*
X155161866Y-111867969D01*
X155083048Y-111827809D01*
X154979479Y-111775037D01*
X154784790Y-111711778D01*
X154610251Y-111684134D01*
X154582608Y-111679756D01*
X154377904Y-111679756D01*
X154353585Y-111683607D01*
X154175721Y-111711778D01*
X153981032Y-111775037D01*
X153798642Y-111867971D01*
X153633042Y-111988284D01*
X153488284Y-112133042D01*
X153367971Y-112298642D01*
X153275037Y-112481032D01*
X153211778Y-112675721D01*
X153179756Y-112877904D01*
X139150500Y-112877904D01*
X139150500Y-112672157D01*
X139117126Y-112418660D01*
X139050950Y-112171687D01*
X139036653Y-112137172D01*
X138953105Y-111935468D01*
X138953100Y-111935457D01*
X138825265Y-111714042D01*
X138825261Y-111714035D01*
X138669610Y-111511187D01*
X138669605Y-111511181D01*
X138488818Y-111330394D01*
X138488811Y-111330388D01*
X138285973Y-111174745D01*
X138285971Y-111174743D01*
X138285965Y-111174739D01*
X138285960Y-111174736D01*
X138285957Y-111174734D01*
X138064542Y-111046899D01*
X138064531Y-111046894D01*
X137828322Y-110949053D01*
X137828315Y-110949051D01*
X137828313Y-110949050D01*
X137581340Y-110882874D01*
X137525007Y-110875457D01*
X137327850Y-110849500D01*
X137327843Y-110849500D01*
X136472157Y-110849500D01*
X136472149Y-110849500D01*
X136246826Y-110879165D01*
X136218660Y-110882874D01*
X135971687Y-110949050D01*
X135971677Y-110949053D01*
X135735468Y-111046894D01*
X135735457Y-111046899D01*
X135514042Y-111174734D01*
X135514026Y-111174745D01*
X135311188Y-111330388D01*
X135311181Y-111330394D01*
X135130394Y-111511181D01*
X135130388Y-111511188D01*
X134974745Y-111714026D01*
X134974739Y-111714035D01*
X134907098Y-111831192D01*
X134856530Y-111879407D01*
X134787923Y-111892629D01*
X134723059Y-111866661D01*
X134692324Y-111831191D01*
X134624845Y-111714314D01*
X134469234Y-111511518D01*
X134469228Y-111511511D01*
X134288488Y-111330771D01*
X134288481Y-111330765D01*
X134085685Y-111175154D01*
X133864316Y-111047347D01*
X133864306Y-111047342D01*
X133628150Y-110949523D01*
X133381244Y-110883366D01*
X133381231Y-110883363D01*
X133127819Y-110850001D01*
X133127803Y-110850000D01*
X132950000Y-110850000D01*
X132950000Y-112037639D01*
X132933351Y-112030743D01*
X132778793Y-112000000D01*
X132621207Y-112000000D01*
X132466649Y-112030743D01*
X132450000Y-112037639D01*
X132450000Y-110850000D01*
X132272197Y-110850000D01*
X132272180Y-110850001D01*
X132018768Y-110883363D01*
X132018755Y-110883366D01*
X131771849Y-110949523D01*
X131535693Y-111047342D01*
X131535683Y-111047347D01*
X131314314Y-111175154D01*
X131111518Y-111330765D01*
X131111511Y-111330771D01*
X130930771Y-111511511D01*
X130930765Y-111511518D01*
X130775154Y-111714314D01*
X130647347Y-111935683D01*
X130647342Y-111935693D01*
X130549523Y-112171849D01*
X130483366Y-112418755D01*
X130483363Y-112418768D01*
X130466087Y-112550000D01*
X123250500Y-112550000D01*
X123250500Y-108472149D01*
X130449500Y-108472149D01*
X130449500Y-108727850D01*
X130468508Y-108872222D01*
X130482874Y-108981340D01*
X130549050Y-109228312D01*
X130549053Y-109228322D01*
X130646894Y-109464531D01*
X130646899Y-109464542D01*
X130774734Y-109685957D01*
X130774745Y-109685973D01*
X130930388Y-109888811D01*
X130930394Y-109888818D01*
X131111181Y-110069605D01*
X131111187Y-110069610D01*
X131314035Y-110225261D01*
X131314042Y-110225265D01*
X131535457Y-110353100D01*
X131535462Y-110353102D01*
X131535465Y-110353104D01*
X131771687Y-110450950D01*
X132018660Y-110517126D01*
X132272157Y-110550500D01*
X132272164Y-110550500D01*
X133127836Y-110550500D01*
X133127843Y-110550500D01*
X133381340Y-110517126D01*
X133628313Y-110450950D01*
X133864535Y-110353104D01*
X134085965Y-110225261D01*
X134288813Y-110069610D01*
X134469610Y-109888813D01*
X134625261Y-109685965D01*
X134692613Y-109569307D01*
X134743180Y-109521092D01*
X134811787Y-109507869D01*
X134876652Y-109533837D01*
X134907386Y-109569307D01*
X134974739Y-109685965D01*
X134974744Y-109685971D01*
X134974745Y-109685973D01*
X135130388Y-109888811D01*
X135130394Y-109888818D01*
X135311181Y-110069605D01*
X135311187Y-110069610D01*
X135514035Y-110225261D01*
X135514042Y-110225265D01*
X135735457Y-110353100D01*
X135735462Y-110353102D01*
X135735465Y-110353104D01*
X135971687Y-110450950D01*
X136218660Y-110517126D01*
X136472157Y-110550500D01*
X136472164Y-110550500D01*
X137327836Y-110550500D01*
X137327843Y-110550500D01*
X137581340Y-110517126D01*
X137828313Y-110450950D01*
X138064535Y-110353104D01*
X138285965Y-110225261D01*
X138488813Y-110069610D01*
X138669610Y-109888813D01*
X138825261Y-109685965D01*
X138953104Y-109464535D01*
X139050950Y-109228313D01*
X139117126Y-108981340D01*
X139150500Y-108727843D01*
X139150500Y-108472157D01*
X139117126Y-108218660D01*
X139050950Y-107971687D01*
X139050945Y-107971677D01*
X139050944Y-107971671D01*
X138988321Y-107820484D01*
X138970682Y-107777904D01*
X156879756Y-107777904D01*
X156879756Y-107982607D01*
X156911778Y-108184790D01*
X156975037Y-108379479D01*
X157067971Y-108561869D01*
X157188284Y-108727469D01*
X157333042Y-108872227D01*
X157483226Y-108981340D01*
X157498646Y-108992543D01*
X157614863Y-109051759D01*
X157681032Y-109085474D01*
X157681034Y-109085474D01*
X157681037Y-109085476D01*
X157756579Y-109110021D01*
X157875721Y-109148733D01*
X157976813Y-109164744D01*
X158077904Y-109180756D01*
X158077905Y-109180756D01*
X158282607Y-109180756D01*
X158282608Y-109180756D01*
X158484790Y-109148733D01*
X158679475Y-109085476D01*
X158861866Y-108992543D01*
X158990135Y-108899351D01*
X159027469Y-108872227D01*
X159027471Y-108872224D01*
X159027475Y-108872222D01*
X159172222Y-108727475D01*
X159172224Y-108727471D01*
X159172227Y-108727469D01*
X159224988Y-108654846D01*
X159292543Y-108561866D01*
X159385476Y-108379475D01*
X159389525Y-108367014D01*
X171900000Y-108367014D01*
X171900000Y-108602985D01*
X171930799Y-108836914D01*
X171991870Y-109064837D01*
X172082160Y-109282819D01*
X172082165Y-109282828D01*
X172200144Y-109487171D01*
X172200145Y-109487172D01*
X172262721Y-109568723D01*
X173098958Y-108732487D01*
X173123978Y-108792890D01*
X173195112Y-108899351D01*
X173285649Y-108989888D01*
X173392110Y-109061022D01*
X173452511Y-109086041D01*
X172616275Y-109922277D01*
X172697827Y-109984854D01*
X172697828Y-109984855D01*
X172902171Y-110102834D01*
X172902180Y-110102839D01*
X173120163Y-110193129D01*
X173120161Y-110193129D01*
X173348085Y-110254200D01*
X173582014Y-110284999D01*
X173582029Y-110285000D01*
X173817971Y-110285000D01*
X173817985Y-110284999D01*
X174051914Y-110254200D01*
X174279837Y-110193129D01*
X174497819Y-110102839D01*
X174497828Y-110102834D01*
X174702181Y-109984850D01*
X174783723Y-109922279D01*
X174783723Y-109922276D01*
X173947487Y-109086041D01*
X174007890Y-109061022D01*
X174114351Y-108989888D01*
X174204888Y-108899351D01*
X174276022Y-108792890D01*
X174301041Y-108732488D01*
X175137276Y-109568723D01*
X175137279Y-109568723D01*
X175199850Y-109487181D01*
X175317834Y-109282828D01*
X175317839Y-109282819D01*
X175408129Y-109064837D01*
X175469200Y-108836914D01*
X175499999Y-108602985D01*
X175500000Y-108602971D01*
X175500000Y-108367028D01*
X175499999Y-108367014D01*
X175469200Y-108133085D01*
X175408129Y-107905162D01*
X175317839Y-107687180D01*
X175317834Y-107687171D01*
X175199855Y-107482828D01*
X175199854Y-107482827D01*
X175137277Y-107401275D01*
X174301041Y-108237511D01*
X174276022Y-108177110D01*
X174204888Y-108070649D01*
X174114351Y-107980112D01*
X174007890Y-107908978D01*
X173947488Y-107883958D01*
X174783723Y-107047721D01*
X174702172Y-106985145D01*
X174702171Y-106985144D01*
X174497828Y-106867165D01*
X174497819Y-106867160D01*
X174279836Y-106776870D01*
X174279838Y-106776870D01*
X174051914Y-106715799D01*
X173817985Y-106685000D01*
X173582014Y-106685000D01*
X173348085Y-106715799D01*
X173120162Y-106776870D01*
X172902180Y-106867160D01*
X172902171Y-106867165D01*
X172697828Y-106985144D01*
X172697818Y-106985150D01*
X172616275Y-107047720D01*
X172616275Y-107047721D01*
X173452512Y-107883958D01*
X173392110Y-107908978D01*
X173285649Y-107980112D01*
X173195112Y-108070649D01*
X173123978Y-108177110D01*
X173098958Y-108237511D01*
X172262721Y-107401275D01*
X172262720Y-107401275D01*
X172200150Y-107482818D01*
X172200144Y-107482828D01*
X172082165Y-107687171D01*
X172082160Y-107687180D01*
X171991870Y-107905162D01*
X171930799Y-108133085D01*
X171900000Y-108367014D01*
X159389525Y-108367014D01*
X159448733Y-108184790D01*
X159480756Y-107982608D01*
X159480756Y-107777904D01*
X159467170Y-107692129D01*
X159448733Y-107575721D01*
X159418547Y-107482818D01*
X159385476Y-107381037D01*
X159385474Y-107381034D01*
X159385474Y-107381032D01*
X159292542Y-107198645D01*
X159270684Y-107168560D01*
X159172222Y-107033037D01*
X159027475Y-106888290D01*
X159027469Y-106888284D01*
X158861869Y-106767971D01*
X158861868Y-106767970D01*
X158861866Y-106767969D01*
X158804909Y-106738947D01*
X158679479Y-106675037D01*
X158484790Y-106611778D01*
X158310251Y-106584134D01*
X158282608Y-106579756D01*
X158077904Y-106579756D01*
X158053585Y-106583607D01*
X157875721Y-106611778D01*
X157681032Y-106675037D01*
X157498642Y-106767971D01*
X157333042Y-106888284D01*
X157188284Y-107033042D01*
X157067971Y-107198642D01*
X156975037Y-107381032D01*
X156911778Y-107575721D01*
X156879756Y-107777904D01*
X138970682Y-107777904D01*
X138966231Y-107767158D01*
X138953104Y-107735465D01*
X138953101Y-107735460D01*
X138953100Y-107735457D01*
X138825265Y-107514042D01*
X138825261Y-107514035D01*
X138669610Y-107311187D01*
X138669605Y-107311181D01*
X138488818Y-107130394D01*
X138488811Y-107130388D01*
X138285973Y-106974745D01*
X138285971Y-106974743D01*
X138285965Y-106974739D01*
X138285960Y-106974736D01*
X138285957Y-106974734D01*
X138064542Y-106846899D01*
X138064531Y-106846894D01*
X137828322Y-106749053D01*
X137828315Y-106749051D01*
X137828313Y-106749050D01*
X137581340Y-106682874D01*
X137521805Y-106675036D01*
X137327850Y-106649500D01*
X137327843Y-106649500D01*
X136472157Y-106649500D01*
X136472149Y-106649500D01*
X136246826Y-106679165D01*
X136218660Y-106682874D01*
X136095782Y-106715799D01*
X135971687Y-106749050D01*
X135971677Y-106749053D01*
X135735468Y-106846894D01*
X135735457Y-106846899D01*
X135514042Y-106974734D01*
X135514026Y-106974745D01*
X135311188Y-107130388D01*
X135311181Y-107130394D01*
X135130394Y-107311181D01*
X135130388Y-107311188D01*
X134974745Y-107514026D01*
X134974734Y-107514042D01*
X134907387Y-107630691D01*
X134856820Y-107678907D01*
X134788213Y-107692129D01*
X134723348Y-107666161D01*
X134692613Y-107630691D01*
X134625265Y-107514042D01*
X134625261Y-107514035D01*
X134469610Y-107311187D01*
X134469605Y-107311181D01*
X134288818Y-107130394D01*
X134288811Y-107130388D01*
X134085973Y-106974745D01*
X134085971Y-106974743D01*
X134085965Y-106974739D01*
X134085960Y-106974736D01*
X134085957Y-106974734D01*
X133864542Y-106846899D01*
X133864531Y-106846894D01*
X133628322Y-106749053D01*
X133628315Y-106749051D01*
X133628313Y-106749050D01*
X133381340Y-106682874D01*
X133321805Y-106675036D01*
X133127850Y-106649500D01*
X133127843Y-106649500D01*
X132272157Y-106649500D01*
X132272149Y-106649500D01*
X132046826Y-106679165D01*
X132018660Y-106682874D01*
X131895782Y-106715799D01*
X131771687Y-106749050D01*
X131771677Y-106749053D01*
X131535468Y-106846894D01*
X131535457Y-106846899D01*
X131314042Y-106974734D01*
X131314026Y-106974745D01*
X131111188Y-107130388D01*
X131111181Y-107130394D01*
X130930394Y-107311181D01*
X130930388Y-107311188D01*
X130774745Y-107514026D01*
X130774734Y-107514042D01*
X130646899Y-107735457D01*
X130646894Y-107735468D01*
X130549053Y-107971677D01*
X130549050Y-107971687D01*
X130491950Y-108184790D01*
X130482874Y-108218661D01*
X130449500Y-108472149D01*
X123250500Y-108472149D01*
X123250500Y-104272149D01*
X130449500Y-104272149D01*
X130449500Y-104527850D01*
X130469744Y-104681610D01*
X130482874Y-104781340D01*
X130549050Y-105028312D01*
X130549053Y-105028322D01*
X130646894Y-105264531D01*
X130646899Y-105264542D01*
X130774734Y-105485957D01*
X130774745Y-105485973D01*
X130930388Y-105688811D01*
X130930394Y-105688818D01*
X131111181Y-105869605D01*
X131111187Y-105869610D01*
X131314035Y-106025261D01*
X131314042Y-106025265D01*
X131535457Y-106153100D01*
X131535462Y-106153102D01*
X131535465Y-106153104D01*
X131771687Y-106250950D01*
X132018660Y-106317126D01*
X132272157Y-106350500D01*
X132272164Y-106350500D01*
X133127836Y-106350500D01*
X133127843Y-106350500D01*
X133381340Y-106317126D01*
X133628313Y-106250950D01*
X133864535Y-106153104D01*
X134085965Y-106025261D01*
X134288813Y-105869610D01*
X134469610Y-105688813D01*
X134625261Y-105485965D01*
X134692613Y-105369307D01*
X134743180Y-105321092D01*
X134811787Y-105307869D01*
X134876652Y-105333837D01*
X134907386Y-105369307D01*
X134974739Y-105485965D01*
X134974744Y-105485971D01*
X134974745Y-105485973D01*
X135130388Y-105688811D01*
X135130394Y-105688818D01*
X135311181Y-105869605D01*
X135311187Y-105869610D01*
X135514035Y-106025261D01*
X135514042Y-106025265D01*
X135735457Y-106153100D01*
X135735462Y-106153102D01*
X135735465Y-106153104D01*
X135971687Y-106250950D01*
X136218660Y-106317126D01*
X136472157Y-106350500D01*
X136472164Y-106350500D01*
X137327836Y-106350500D01*
X137327843Y-106350500D01*
X137581340Y-106317126D01*
X137828313Y-106250950D01*
X138064535Y-106153104D01*
X138285965Y-106025261D01*
X138488813Y-105869610D01*
X138669610Y-105688813D01*
X138825261Y-105485965D01*
X138953104Y-105264535D01*
X139050950Y-105028313D01*
X139117126Y-104781340D01*
X139150500Y-104527843D01*
X139150500Y-104272157D01*
X139117126Y-104018660D01*
X139084701Y-103897648D01*
X144199500Y-103897648D01*
X144199500Y-104102351D01*
X144231522Y-104304534D01*
X144294781Y-104499223D01*
X144387715Y-104681613D01*
X144508028Y-104847213D01*
X144652786Y-104991971D01*
X144807749Y-105104556D01*
X144818390Y-105112287D01*
X144894991Y-105151317D01*
X145000776Y-105205218D01*
X145000778Y-105205218D01*
X145000781Y-105205220D01*
X145105137Y-105239127D01*
X145195465Y-105268477D01*
X145296557Y-105284488D01*
X145397648Y-105300500D01*
X145397649Y-105300500D01*
X145602351Y-105300500D01*
X145602352Y-105300500D01*
X145804534Y-105268477D01*
X145999219Y-105205220D01*
X146181610Y-105112287D01*
X146297179Y-105028322D01*
X146347213Y-104991971D01*
X146347215Y-104991968D01*
X146347219Y-104991966D01*
X146491966Y-104847219D01*
X146491968Y-104847215D01*
X146491971Y-104847213D01*
X146544732Y-104774590D01*
X146612287Y-104681610D01*
X146705220Y-104499219D01*
X146768477Y-104304534D01*
X146800500Y-104102352D01*
X146800500Y-103897648D01*
X146768477Y-103695465D01*
X146716490Y-103535468D01*
X146705220Y-103500781D01*
X146705218Y-103500778D01*
X146705218Y-103500776D01*
X146669507Y-103430691D01*
X146612287Y-103318390D01*
X146604556Y-103307749D01*
X146491971Y-103152786D01*
X146347213Y-103008028D01*
X146181613Y-102887715D01*
X146181612Y-102887714D01*
X146181610Y-102887713D01*
X146124653Y-102858691D01*
X145999223Y-102794781D01*
X145804534Y-102731522D01*
X145629995Y-102703878D01*
X145602352Y-102699500D01*
X145397648Y-102699500D01*
X145373329Y-102703351D01*
X145195465Y-102731522D01*
X145000776Y-102794781D01*
X144818386Y-102887715D01*
X144652786Y-103008028D01*
X144508028Y-103152786D01*
X144387715Y-103318386D01*
X144294781Y-103500776D01*
X144231522Y-103695465D01*
X144199500Y-103897648D01*
X139084701Y-103897648D01*
X139050950Y-103771687D01*
X138953104Y-103535465D01*
X138953102Y-103535462D01*
X138953100Y-103535457D01*
X138825265Y-103314042D01*
X138825261Y-103314035D01*
X138669610Y-103111187D01*
X138669605Y-103111181D01*
X138488818Y-102930394D01*
X138488811Y-102930388D01*
X138285973Y-102774745D01*
X138285971Y-102774743D01*
X138285965Y-102774739D01*
X138285960Y-102774736D01*
X138285957Y-102774734D01*
X138064542Y-102646899D01*
X138064531Y-102646894D01*
X137828322Y-102549053D01*
X137828315Y-102549051D01*
X137828313Y-102549050D01*
X137581340Y-102482874D01*
X137525007Y-102475457D01*
X137327850Y-102449500D01*
X137327843Y-102449500D01*
X136472157Y-102449500D01*
X136472149Y-102449500D01*
X136246826Y-102479165D01*
X136218660Y-102482874D01*
X135971687Y-102549050D01*
X135971677Y-102549053D01*
X135735468Y-102646894D01*
X135735457Y-102646899D01*
X135514042Y-102774734D01*
X135514026Y-102774745D01*
X135311188Y-102930388D01*
X135311181Y-102930394D01*
X135130394Y-103111181D01*
X135130388Y-103111188D01*
X134974745Y-103314026D01*
X134974734Y-103314042D01*
X134907387Y-103430691D01*
X134856820Y-103478907D01*
X134788213Y-103492129D01*
X134723348Y-103466161D01*
X134692613Y-103430691D01*
X134625265Y-103314042D01*
X134625261Y-103314035D01*
X134469610Y-103111187D01*
X134469605Y-103111181D01*
X134288818Y-102930394D01*
X134288811Y-102930388D01*
X134085973Y-102774745D01*
X134085971Y-102774743D01*
X134085965Y-102774739D01*
X134085960Y-102774736D01*
X134085957Y-102774734D01*
X133864542Y-102646899D01*
X133864531Y-102646894D01*
X133628322Y-102549053D01*
X133628315Y-102549051D01*
X133628313Y-102549050D01*
X133381340Y-102482874D01*
X133325007Y-102475457D01*
X133127850Y-102449500D01*
X133127843Y-102449500D01*
X132272157Y-102449500D01*
X132272149Y-102449500D01*
X132046826Y-102479165D01*
X132018660Y-102482874D01*
X131771687Y-102549050D01*
X131771677Y-102549053D01*
X131535468Y-102646894D01*
X131535457Y-102646899D01*
X131314042Y-102774734D01*
X131314026Y-102774745D01*
X131111188Y-102930388D01*
X131111181Y-102930394D01*
X130930394Y-103111181D01*
X130930388Y-103111188D01*
X130774745Y-103314026D01*
X130774734Y-103314042D01*
X130646899Y-103535457D01*
X130646894Y-103535468D01*
X130549053Y-103771677D01*
X130549050Y-103771687D01*
X130482874Y-104018661D01*
X130449500Y-104272149D01*
X123250500Y-104272149D01*
X123250500Y-100072149D01*
X130449500Y-100072149D01*
X130449500Y-100327850D01*
X130475457Y-100525007D01*
X130482874Y-100581340D01*
X130515334Y-100702482D01*
X130549050Y-100828312D01*
X130549053Y-100828322D01*
X130646894Y-101064531D01*
X130646899Y-101064542D01*
X130774734Y-101285957D01*
X130774745Y-101285973D01*
X130930388Y-101488811D01*
X130930394Y-101488818D01*
X131111181Y-101669605D01*
X131111187Y-101669610D01*
X131314035Y-101825261D01*
X131314042Y-101825265D01*
X131535457Y-101953100D01*
X131535462Y-101953102D01*
X131535465Y-101953104D01*
X131771687Y-102050950D01*
X132018660Y-102117126D01*
X132272157Y-102150500D01*
X132272164Y-102150500D01*
X133127836Y-102150500D01*
X133127843Y-102150500D01*
X133381340Y-102117126D01*
X133628313Y-102050950D01*
X133864535Y-101953104D01*
X134085965Y-101825261D01*
X134288813Y-101669610D01*
X134469610Y-101488813D01*
X134625261Y-101285965D01*
X134692613Y-101169307D01*
X134743180Y-101121092D01*
X134811787Y-101107869D01*
X134876652Y-101133837D01*
X134907386Y-101169307D01*
X134974739Y-101285965D01*
X134974744Y-101285971D01*
X134974745Y-101285973D01*
X135130388Y-101488811D01*
X135130394Y-101488818D01*
X135311181Y-101669605D01*
X135311187Y-101669610D01*
X135514035Y-101825261D01*
X135514042Y-101825265D01*
X135735457Y-101953100D01*
X135735462Y-101953102D01*
X135735465Y-101953104D01*
X135971687Y-102050950D01*
X136218660Y-102117126D01*
X136472157Y-102150500D01*
X136472164Y-102150500D01*
X137327836Y-102150500D01*
X137327843Y-102150500D01*
X137581340Y-102117126D01*
X137828313Y-102050950D01*
X138064535Y-101953104D01*
X138285965Y-101825261D01*
X138488813Y-101669610D01*
X138669610Y-101488813D01*
X138825261Y-101285965D01*
X138953104Y-101064535D01*
X139050950Y-100828313D01*
X139117126Y-100581340D01*
X139150500Y-100327843D01*
X139150500Y-100072157D01*
X139117126Y-99818660D01*
X139050950Y-99571687D01*
X138953104Y-99335465D01*
X138953102Y-99335462D01*
X138953100Y-99335457D01*
X138825265Y-99114042D01*
X138825261Y-99114035D01*
X138780452Y-99055638D01*
X138669611Y-98911188D01*
X138669605Y-98911181D01*
X138556072Y-98797648D01*
X147899500Y-98797648D01*
X147899500Y-99002351D01*
X147931522Y-99204534D01*
X147994781Y-99399223D01*
X148087715Y-99581613D01*
X148208028Y-99747213D01*
X148352786Y-99891971D01*
X148507749Y-100004556D01*
X148518390Y-100012287D01*
X148634607Y-100071503D01*
X148700776Y-100105218D01*
X148700778Y-100105218D01*
X148700781Y-100105220D01*
X148805137Y-100139127D01*
X148895465Y-100168477D01*
X148996557Y-100184488D01*
X149097648Y-100200500D01*
X149097649Y-100200500D01*
X149302351Y-100200500D01*
X149302352Y-100200500D01*
X149504534Y-100168477D01*
X149699219Y-100105220D01*
X149881610Y-100012287D01*
X149974590Y-99944732D01*
X150047213Y-99891971D01*
X150047215Y-99891968D01*
X150047219Y-99891966D01*
X150191966Y-99747219D01*
X150191968Y-99747215D01*
X150191971Y-99747213D01*
X150244732Y-99674590D01*
X150312287Y-99581610D01*
X150405220Y-99399219D01*
X150468477Y-99204534D01*
X150500500Y-99002352D01*
X150500500Y-98797648D01*
X150468477Y-98595466D01*
X150461744Y-98574745D01*
X150439127Y-98505137D01*
X150405220Y-98400781D01*
X150405218Y-98400778D01*
X150405218Y-98400776D01*
X150328138Y-98249500D01*
X150312287Y-98218390D01*
X150304556Y-98207749D01*
X150191971Y-98052786D01*
X150086320Y-97947135D01*
X171899500Y-97947135D01*
X171899500Y-100642870D01*
X171899501Y-100642876D01*
X171905908Y-100702483D01*
X171956202Y-100837328D01*
X171956206Y-100837335D01*
X172042452Y-100952544D01*
X172042455Y-100952547D01*
X172157664Y-101038793D01*
X172157671Y-101038797D01*
X172292517Y-101089091D01*
X172292516Y-101089091D01*
X172299444Y-101089835D01*
X172352127Y-101095500D01*
X175047872Y-101095499D01*
X175107483Y-101089091D01*
X175242331Y-101038796D01*
X175357546Y-100952546D01*
X175443796Y-100837331D01*
X175494091Y-100702483D01*
X175500500Y-100642873D01*
X175500499Y-97947128D01*
X175494091Y-97887517D01*
X175480452Y-97850950D01*
X175443797Y-97752671D01*
X175443793Y-97752664D01*
X175357547Y-97637455D01*
X175357544Y-97637452D01*
X175242335Y-97551206D01*
X175242328Y-97551202D01*
X175107482Y-97500908D01*
X175107483Y-97500908D01*
X175047883Y-97494501D01*
X175047881Y-97494500D01*
X175047873Y-97494500D01*
X175047864Y-97494500D01*
X172352129Y-97494500D01*
X172352123Y-97494501D01*
X172292516Y-97500908D01*
X172157671Y-97551202D01*
X172157664Y-97551206D01*
X172042455Y-97637452D01*
X172042452Y-97637455D01*
X171956206Y-97752664D01*
X171956202Y-97752671D01*
X171905908Y-97887517D01*
X171899501Y-97947116D01*
X171899501Y-97947123D01*
X171899500Y-97947135D01*
X150086320Y-97947135D01*
X150047213Y-97908028D01*
X149881613Y-97787715D01*
X149881612Y-97787714D01*
X149881610Y-97787713D01*
X149813678Y-97753100D01*
X149699223Y-97694781D01*
X149504534Y-97631522D01*
X149329995Y-97603878D01*
X149302352Y-97599500D01*
X149097648Y-97599500D01*
X149073329Y-97603351D01*
X148895465Y-97631522D01*
X148700776Y-97694781D01*
X148518386Y-97787715D01*
X148352786Y-97908028D01*
X148208028Y-98052786D01*
X148087715Y-98218386D01*
X147994781Y-98400776D01*
X147931522Y-98595465D01*
X147899500Y-98797648D01*
X138556072Y-98797648D01*
X138488818Y-98730394D01*
X138488811Y-98730388D01*
X138285973Y-98574745D01*
X138285971Y-98574743D01*
X138285965Y-98574739D01*
X138285960Y-98574736D01*
X138285957Y-98574734D01*
X138064542Y-98446899D01*
X138064531Y-98446894D01*
X137828322Y-98349053D01*
X137828315Y-98349051D01*
X137828313Y-98349050D01*
X137581340Y-98282874D01*
X137525007Y-98275457D01*
X137327850Y-98249500D01*
X137327843Y-98249500D01*
X136472157Y-98249500D01*
X136472149Y-98249500D01*
X136246826Y-98279165D01*
X136218660Y-98282874D01*
X135971687Y-98349050D01*
X135971677Y-98349053D01*
X135735468Y-98446894D01*
X135735457Y-98446899D01*
X135514042Y-98574734D01*
X135514026Y-98574745D01*
X135311188Y-98730388D01*
X135311181Y-98730394D01*
X135130394Y-98911181D01*
X135130388Y-98911188D01*
X134974745Y-99114026D01*
X134974734Y-99114042D01*
X134907387Y-99230691D01*
X134856820Y-99278907D01*
X134788213Y-99292129D01*
X134723348Y-99266161D01*
X134692613Y-99230691D01*
X134625265Y-99114042D01*
X134625261Y-99114035D01*
X134580452Y-99055638D01*
X134469611Y-98911188D01*
X134469605Y-98911181D01*
X134288818Y-98730394D01*
X134288811Y-98730388D01*
X134085973Y-98574745D01*
X134085971Y-98574743D01*
X134085965Y-98574739D01*
X134085960Y-98574736D01*
X134085957Y-98574734D01*
X133864542Y-98446899D01*
X133864531Y-98446894D01*
X133628322Y-98349053D01*
X133628315Y-98349051D01*
X133628313Y-98349050D01*
X133381340Y-98282874D01*
X133325007Y-98275457D01*
X133127850Y-98249500D01*
X133127843Y-98249500D01*
X132272157Y-98249500D01*
X132272149Y-98249500D01*
X132046826Y-98279165D01*
X132018660Y-98282874D01*
X131771687Y-98349050D01*
X131771677Y-98349053D01*
X131535468Y-98446894D01*
X131535457Y-98446899D01*
X131314042Y-98574734D01*
X131314026Y-98574745D01*
X131111188Y-98730388D01*
X131111181Y-98730394D01*
X130930394Y-98911181D01*
X130930388Y-98911188D01*
X130774745Y-99114026D01*
X130774734Y-99114042D01*
X130646899Y-99335457D01*
X130646894Y-99335468D01*
X130549053Y-99571677D01*
X130549050Y-99571687D01*
X130502017Y-99747219D01*
X130482874Y-99818661D01*
X130449500Y-100072149D01*
X123250500Y-100072149D01*
X123250500Y-95872149D01*
X130449500Y-95872149D01*
X130449500Y-96127850D01*
X130475457Y-96325007D01*
X130482874Y-96381340D01*
X130549050Y-96628312D01*
X130549053Y-96628322D01*
X130646894Y-96864531D01*
X130646899Y-96864542D01*
X130774734Y-97085957D01*
X130774745Y-97085973D01*
X130930388Y-97288811D01*
X130930394Y-97288818D01*
X131111181Y-97469605D01*
X131111188Y-97469611D01*
X131217520Y-97551202D01*
X131314035Y-97625261D01*
X131314042Y-97625265D01*
X131535457Y-97753100D01*
X131535462Y-97753102D01*
X131535465Y-97753104D01*
X131771687Y-97850950D01*
X132018660Y-97917126D01*
X132272157Y-97950500D01*
X132272164Y-97950500D01*
X133127836Y-97950500D01*
X133127843Y-97950500D01*
X133381340Y-97917126D01*
X133628313Y-97850950D01*
X133864535Y-97753104D01*
X133865289Y-97752669D01*
X133965553Y-97694781D01*
X134085965Y-97625261D01*
X134288813Y-97469610D01*
X134469610Y-97288813D01*
X134625261Y-97085965D01*
X134692613Y-96969307D01*
X134743180Y-96921092D01*
X134811787Y-96907869D01*
X134876652Y-96933837D01*
X134907386Y-96969307D01*
X134974739Y-97085965D01*
X134974744Y-97085971D01*
X134974745Y-97085973D01*
X135130388Y-97288811D01*
X135130394Y-97288818D01*
X135311181Y-97469605D01*
X135311188Y-97469611D01*
X135417520Y-97551202D01*
X135514035Y-97625261D01*
X135514042Y-97625265D01*
X135735457Y-97753100D01*
X135735462Y-97753102D01*
X135735465Y-97753104D01*
X135971687Y-97850950D01*
X136218660Y-97917126D01*
X136472157Y-97950500D01*
X136472164Y-97950500D01*
X137327836Y-97950500D01*
X137327843Y-97950500D01*
X137581340Y-97917126D01*
X137828313Y-97850950D01*
X138064535Y-97753104D01*
X138065289Y-97752669D01*
X138165553Y-97694781D01*
X138285965Y-97625261D01*
X138488813Y-97469610D01*
X138669610Y-97288813D01*
X138825261Y-97085965D01*
X138953104Y-96864535D01*
X139050950Y-96628313D01*
X139117126Y-96381340D01*
X139150500Y-96127843D01*
X139150500Y-95872157D01*
X139117126Y-95618660D01*
X139050950Y-95371687D01*
X138953104Y-95135465D01*
X138953102Y-95135462D01*
X138953100Y-95135457D01*
X138825265Y-94914042D01*
X138825261Y-94914035D01*
X138669610Y-94711187D01*
X138669605Y-94711181D01*
X138488818Y-94530394D01*
X138488811Y-94530388D01*
X138285973Y-94374745D01*
X138285971Y-94374743D01*
X138285965Y-94374739D01*
X138285960Y-94374736D01*
X138285957Y-94374734D01*
X138122422Y-94280317D01*
X138064535Y-94246896D01*
X138064531Y-94246894D01*
X137895780Y-94176995D01*
X171899500Y-94176995D01*
X171899500Y-94413004D01*
X171899501Y-94413020D01*
X171930306Y-94647010D01*
X171991394Y-94874993D01*
X172081714Y-95093045D01*
X172081719Y-95093056D01*
X172152677Y-95215957D01*
X172199727Y-95297450D01*
X172199729Y-95297453D01*
X172199730Y-95297454D01*
X172343406Y-95484697D01*
X172343412Y-95484704D01*
X172510295Y-95651587D01*
X172510301Y-95651592D01*
X172697550Y-95795273D01*
X172828918Y-95871118D01*
X172901943Y-95913280D01*
X172901948Y-95913282D01*
X172901951Y-95913284D01*
X173120007Y-96003606D01*
X173347986Y-96064693D01*
X173581989Y-96095500D01*
X173581996Y-96095500D01*
X173818004Y-96095500D01*
X173818011Y-96095500D01*
X174052014Y-96064693D01*
X174279993Y-96003606D01*
X174498049Y-95913284D01*
X174702450Y-95795273D01*
X174889699Y-95651592D01*
X175056592Y-95484699D01*
X175200273Y-95297450D01*
X175318284Y-95093049D01*
X175408606Y-94874993D01*
X175469693Y-94647014D01*
X175500500Y-94413011D01*
X175500500Y-94176989D01*
X175469693Y-93942986D01*
X175408606Y-93715007D01*
X175318284Y-93496951D01*
X175318282Y-93496948D01*
X175318280Y-93496943D01*
X175276118Y-93423918D01*
X175200273Y-93292550D01*
X175056592Y-93105301D01*
X175056587Y-93105295D01*
X174889704Y-92938412D01*
X174889697Y-92938406D01*
X174702454Y-92794730D01*
X174702453Y-92794729D01*
X174702450Y-92794727D01*
X174620957Y-92747677D01*
X174498056Y-92676719D01*
X174498045Y-92676714D01*
X174279993Y-92586394D01*
X174052010Y-92525306D01*
X173818020Y-92494501D01*
X173818017Y-92494500D01*
X173818011Y-92494500D01*
X173581989Y-92494500D01*
X173581983Y-92494500D01*
X173581979Y-92494501D01*
X173347989Y-92525306D01*
X173120006Y-92586394D01*
X172901954Y-92676714D01*
X172901943Y-92676719D01*
X172697545Y-92794730D01*
X172510302Y-92938406D01*
X172510295Y-92938412D01*
X172343412Y-93105295D01*
X172343406Y-93105302D01*
X172199730Y-93292545D01*
X172081719Y-93496943D01*
X172081714Y-93496954D01*
X171991394Y-93715006D01*
X171930306Y-93942989D01*
X171899501Y-94176979D01*
X171899500Y-94176995D01*
X137895780Y-94176995D01*
X137828322Y-94149053D01*
X137828315Y-94149051D01*
X137828313Y-94149050D01*
X137581340Y-94082874D01*
X137525007Y-94075457D01*
X137327850Y-94049500D01*
X137327843Y-94049500D01*
X136472157Y-94049500D01*
X136472149Y-94049500D01*
X136246826Y-94079165D01*
X136218660Y-94082874D01*
X135971687Y-94149050D01*
X135971677Y-94149053D01*
X135735468Y-94246894D01*
X135735457Y-94246899D01*
X135514042Y-94374734D01*
X135514026Y-94374745D01*
X135311188Y-94530388D01*
X135311181Y-94530394D01*
X135130394Y-94711181D01*
X135130388Y-94711188D01*
X134974745Y-94914026D01*
X134974734Y-94914042D01*
X134907387Y-95030691D01*
X134856820Y-95078907D01*
X134788213Y-95092129D01*
X134723348Y-95066161D01*
X134692613Y-95030691D01*
X134625265Y-94914042D01*
X134625261Y-94914035D01*
X134469610Y-94711187D01*
X134469605Y-94711181D01*
X134288818Y-94530394D01*
X134288811Y-94530388D01*
X134085973Y-94374745D01*
X134085971Y-94374743D01*
X134085965Y-94374739D01*
X134085960Y-94374736D01*
X134085957Y-94374734D01*
X133864542Y-94246899D01*
X133864531Y-94246894D01*
X133628322Y-94149053D01*
X133628315Y-94149051D01*
X133628313Y-94149050D01*
X133381340Y-94082874D01*
X133325007Y-94075457D01*
X133127850Y-94049500D01*
X133127843Y-94049500D01*
X132272157Y-94049500D01*
X132272149Y-94049500D01*
X132046826Y-94079165D01*
X132018660Y-94082874D01*
X131771687Y-94149050D01*
X131771677Y-94149053D01*
X131535468Y-94246894D01*
X131535457Y-94246899D01*
X131314042Y-94374734D01*
X131314026Y-94374745D01*
X131111188Y-94530388D01*
X131111181Y-94530394D01*
X130930394Y-94711181D01*
X130930388Y-94711188D01*
X130774745Y-94914026D01*
X130774734Y-94914042D01*
X130646899Y-95135457D01*
X130646894Y-95135468D01*
X130549053Y-95371677D01*
X130549050Y-95371687D01*
X130482874Y-95618661D01*
X130449500Y-95872149D01*
X123250500Y-95872149D01*
X123250500Y-91550000D01*
X130466087Y-91550000D01*
X131937639Y-91550000D01*
X131930743Y-91566649D01*
X131900000Y-91721207D01*
X131900000Y-91878793D01*
X131930743Y-92033351D01*
X131937639Y-92050000D01*
X130466087Y-92050000D01*
X130483363Y-92181231D01*
X130483366Y-92181244D01*
X130549523Y-92428150D01*
X130647342Y-92664306D01*
X130647347Y-92664316D01*
X130775154Y-92885685D01*
X130930765Y-93088481D01*
X130930771Y-93088488D01*
X131111511Y-93269228D01*
X131111518Y-93269234D01*
X131314314Y-93424845D01*
X131535683Y-93552652D01*
X131535693Y-93552657D01*
X131771849Y-93650476D01*
X132018755Y-93716633D01*
X132018768Y-93716636D01*
X132272180Y-93749998D01*
X132272197Y-93750000D01*
X132450000Y-93750000D01*
X132450000Y-92562360D01*
X132466649Y-92569257D01*
X132621207Y-92600000D01*
X132778793Y-92600000D01*
X132933351Y-92569257D01*
X132950000Y-92562360D01*
X132950000Y-93750000D01*
X133127803Y-93750000D01*
X133127819Y-93749998D01*
X133381231Y-93716636D01*
X133381244Y-93716633D01*
X133628150Y-93650476D01*
X133864306Y-93552657D01*
X133864316Y-93552652D01*
X134085685Y-93424845D01*
X134288481Y-93269234D01*
X134288488Y-93269228D01*
X134469228Y-93088488D01*
X134469234Y-93088481D01*
X134624845Y-92885685D01*
X134692613Y-92768308D01*
X134743179Y-92720093D01*
X134811786Y-92706869D01*
X134876651Y-92732837D01*
X134907387Y-92768308D01*
X134975154Y-92885685D01*
X135130765Y-93088481D01*
X135130771Y-93088488D01*
X135311511Y-93269228D01*
X135311518Y-93269234D01*
X135514314Y-93424845D01*
X135735683Y-93552652D01*
X135735693Y-93552657D01*
X135971849Y-93650476D01*
X136218755Y-93716633D01*
X136218768Y-93716636D01*
X136472180Y-93749998D01*
X136472197Y-93750000D01*
X136650000Y-93750000D01*
X136650000Y-92562360D01*
X136666649Y-92569257D01*
X136821207Y-92600000D01*
X136978793Y-92600000D01*
X137133351Y-92569257D01*
X137150000Y-92562360D01*
X137150000Y-93750000D01*
X137327803Y-93750000D01*
X137327819Y-93749998D01*
X137581231Y-93716636D01*
X137581244Y-93716633D01*
X137828150Y-93650476D01*
X138064306Y-93552657D01*
X138064316Y-93552652D01*
X138285685Y-93424845D01*
X138488481Y-93269234D01*
X138488488Y-93269228D01*
X138669228Y-93088488D01*
X138669234Y-93088481D01*
X138824845Y-92885685D01*
X138952652Y-92664316D01*
X138952657Y-92664306D01*
X139050476Y-92428150D01*
X139116633Y-92181244D01*
X139116636Y-92181231D01*
X139133913Y-92050000D01*
X137662361Y-92050000D01*
X137669257Y-92033351D01*
X137700000Y-91878793D01*
X137700000Y-91721207D01*
X137669257Y-91566649D01*
X137662361Y-91550000D01*
X139133912Y-91550000D01*
X139116636Y-91418768D01*
X139116633Y-91418755D01*
X139050476Y-91171849D01*
X138952657Y-90935693D01*
X138952652Y-90935683D01*
X138824845Y-90714314D01*
X138669234Y-90511518D01*
X138669228Y-90511511D01*
X138488488Y-90330771D01*
X138488481Y-90330765D01*
X138285685Y-90175154D01*
X138064316Y-90047347D01*
X138064306Y-90047342D01*
X137828150Y-89949523D01*
X137581244Y-89883366D01*
X137581231Y-89883363D01*
X137327819Y-89850001D01*
X137327803Y-89850000D01*
X137150000Y-89850000D01*
X137150000Y-91037639D01*
X137133351Y-91030743D01*
X136978793Y-91000000D01*
X136821207Y-91000000D01*
X136666649Y-91030743D01*
X136650000Y-91037639D01*
X136650000Y-89850000D01*
X136472197Y-89850000D01*
X136472180Y-89850001D01*
X136218768Y-89883363D01*
X136218755Y-89883366D01*
X135971849Y-89949523D01*
X135735693Y-90047342D01*
X135735683Y-90047347D01*
X135514314Y-90175154D01*
X135311518Y-90330765D01*
X135311511Y-90330771D01*
X135130771Y-90511511D01*
X135130765Y-90511518D01*
X134975154Y-90714314D01*
X134907387Y-90831691D01*
X134856820Y-90879907D01*
X134788213Y-90893130D01*
X134723348Y-90867162D01*
X134692613Y-90831691D01*
X134624845Y-90714314D01*
X134469234Y-90511518D01*
X134469228Y-90511511D01*
X134288488Y-90330771D01*
X134288481Y-90330765D01*
X134085685Y-90175154D01*
X133864316Y-90047347D01*
X133864306Y-90047342D01*
X133628150Y-89949523D01*
X133381244Y-89883366D01*
X133381231Y-89883363D01*
X133127819Y-89850001D01*
X133127803Y-89850000D01*
X132950000Y-89850000D01*
X132950000Y-91037639D01*
X132933351Y-91030743D01*
X132778793Y-91000000D01*
X132621207Y-91000000D01*
X132466649Y-91030743D01*
X132450000Y-91037639D01*
X132450000Y-89850000D01*
X132272197Y-89850000D01*
X132272180Y-89850001D01*
X132018768Y-89883363D01*
X132018755Y-89883366D01*
X131771849Y-89949523D01*
X131535693Y-90047342D01*
X131535683Y-90047347D01*
X131314314Y-90175154D01*
X131111518Y-90330765D01*
X131111511Y-90330771D01*
X130930771Y-90511511D01*
X130930765Y-90511518D01*
X130775154Y-90714314D01*
X130647347Y-90935683D01*
X130647342Y-90935693D01*
X130549523Y-91171849D01*
X130483366Y-91418755D01*
X130483363Y-91418768D01*
X130466087Y-91550000D01*
X123250500Y-91550000D01*
X123250500Y-87350000D01*
X130466087Y-87350000D01*
X131937639Y-87350000D01*
X131930743Y-87366649D01*
X131900000Y-87521207D01*
X131900000Y-87678793D01*
X131930743Y-87833351D01*
X131937639Y-87850000D01*
X130466087Y-87850000D01*
X130483363Y-87981231D01*
X130483366Y-87981244D01*
X130549523Y-88228150D01*
X130647342Y-88464306D01*
X130647347Y-88464316D01*
X130775154Y-88685685D01*
X130930765Y-88888481D01*
X130930771Y-88888488D01*
X131111511Y-89069228D01*
X131111518Y-89069234D01*
X131314314Y-89224845D01*
X131535683Y-89352652D01*
X131535693Y-89352657D01*
X131771849Y-89450476D01*
X132018755Y-89516633D01*
X132018768Y-89516636D01*
X132272180Y-89549998D01*
X132272197Y-89550000D01*
X132450000Y-89550000D01*
X132450000Y-88362360D01*
X132466649Y-88369257D01*
X132621207Y-88400000D01*
X132778793Y-88400000D01*
X132933351Y-88369257D01*
X132950000Y-88362360D01*
X132950000Y-89550000D01*
X133127803Y-89550000D01*
X133127819Y-89549998D01*
X133381231Y-89516636D01*
X133381244Y-89516633D01*
X133628150Y-89450476D01*
X133864306Y-89352657D01*
X133864316Y-89352652D01*
X134085685Y-89224845D01*
X134288481Y-89069234D01*
X134288488Y-89069228D01*
X134469228Y-88888488D01*
X134469234Y-88888481D01*
X134624844Y-88685687D01*
X134692323Y-88568809D01*
X134742890Y-88520593D01*
X134811497Y-88507369D01*
X134876362Y-88533337D01*
X134907098Y-88568808D01*
X134974734Y-88685957D01*
X134974745Y-88685973D01*
X135130388Y-88888811D01*
X135130394Y-88888818D01*
X135311181Y-89069605D01*
X135311187Y-89069610D01*
X135514035Y-89225261D01*
X135514042Y-89225265D01*
X135735457Y-89353100D01*
X135735462Y-89353102D01*
X135735465Y-89353104D01*
X135884426Y-89414805D01*
X135970542Y-89450476D01*
X135971687Y-89450950D01*
X136218660Y-89517126D01*
X136472157Y-89550500D01*
X136472164Y-89550500D01*
X137327836Y-89550500D01*
X137327843Y-89550500D01*
X137581340Y-89517126D01*
X137828313Y-89450950D01*
X138064535Y-89353104D01*
X138285965Y-89225261D01*
X138488813Y-89069610D01*
X138669610Y-88888813D01*
X138825261Y-88685965D01*
X138953104Y-88464535D01*
X139050950Y-88228313D01*
X139117126Y-87981340D01*
X139150500Y-87727843D01*
X139150500Y-87472157D01*
X139117126Y-87218660D01*
X139050950Y-86971687D01*
X138953104Y-86735465D01*
X138953102Y-86735462D01*
X138953100Y-86735457D01*
X138825265Y-86514042D01*
X138825261Y-86514035D01*
X138669610Y-86311187D01*
X138669605Y-86311181D01*
X138488818Y-86130394D01*
X138488811Y-86130388D01*
X138285973Y-85974745D01*
X138285971Y-85974743D01*
X138285965Y-85974739D01*
X138285960Y-85974736D01*
X138285957Y-85974734D01*
X138064542Y-85846899D01*
X138064531Y-85846894D01*
X137828322Y-85749053D01*
X137828315Y-85749051D01*
X137828313Y-85749050D01*
X137581340Y-85682874D01*
X137525007Y-85675457D01*
X137327850Y-85649500D01*
X137327843Y-85649500D01*
X136472157Y-85649500D01*
X136472149Y-85649500D01*
X136246826Y-85679165D01*
X136218660Y-85682874D01*
X135971687Y-85749050D01*
X135971677Y-85749053D01*
X135735468Y-85846894D01*
X135735457Y-85846899D01*
X135514042Y-85974734D01*
X135514026Y-85974745D01*
X135311188Y-86130388D01*
X135311181Y-86130394D01*
X135130394Y-86311181D01*
X135130388Y-86311188D01*
X134974745Y-86514026D01*
X134974739Y-86514035D01*
X134907098Y-86631192D01*
X134856530Y-86679407D01*
X134787923Y-86692629D01*
X134723059Y-86666661D01*
X134692324Y-86631191D01*
X134624845Y-86514314D01*
X134469234Y-86311518D01*
X134469228Y-86311511D01*
X134288488Y-86130771D01*
X134288481Y-86130765D01*
X134085685Y-85975154D01*
X133864316Y-85847347D01*
X133864306Y-85847342D01*
X133628150Y-85749523D01*
X133381244Y-85683366D01*
X133381231Y-85683363D01*
X133127819Y-85650001D01*
X133127803Y-85650000D01*
X132950000Y-85650000D01*
X132950000Y-86837639D01*
X132933351Y-86830743D01*
X132778793Y-86800000D01*
X132621207Y-86800000D01*
X132466649Y-86830743D01*
X132450000Y-86837639D01*
X132450000Y-85650000D01*
X132272197Y-85650000D01*
X132272180Y-85650001D01*
X132018768Y-85683363D01*
X132018755Y-85683366D01*
X131771849Y-85749523D01*
X131535693Y-85847342D01*
X131535683Y-85847347D01*
X131314314Y-85975154D01*
X131111518Y-86130765D01*
X131111511Y-86130771D01*
X130930771Y-86311511D01*
X130930765Y-86311518D01*
X130775154Y-86514314D01*
X130647347Y-86735683D01*
X130647342Y-86735693D01*
X130549523Y-86971849D01*
X130483366Y-87218755D01*
X130483363Y-87218768D01*
X130466087Y-87350000D01*
X123250500Y-87350000D01*
X123250500Y-83150000D01*
X130466087Y-83150000D01*
X131937639Y-83150000D01*
X131930743Y-83166649D01*
X131900000Y-83321207D01*
X131900000Y-83478793D01*
X131930743Y-83633351D01*
X131937639Y-83650000D01*
X130466087Y-83650000D01*
X130483363Y-83781231D01*
X130483366Y-83781244D01*
X130549523Y-84028150D01*
X130647342Y-84264306D01*
X130647347Y-84264316D01*
X130775154Y-84485685D01*
X130930765Y-84688481D01*
X130930771Y-84688488D01*
X131111511Y-84869228D01*
X131111518Y-84869234D01*
X131314314Y-85024845D01*
X131535683Y-85152652D01*
X131535693Y-85152657D01*
X131771849Y-85250476D01*
X132018755Y-85316633D01*
X132018768Y-85316636D01*
X132272180Y-85349998D01*
X132272197Y-85350000D01*
X132450000Y-85350000D01*
X132450000Y-84162360D01*
X132466649Y-84169257D01*
X132621207Y-84200000D01*
X132778793Y-84200000D01*
X132933351Y-84169257D01*
X132950000Y-84162360D01*
X132950000Y-85350000D01*
X133127803Y-85350000D01*
X133127819Y-85349998D01*
X133381231Y-85316636D01*
X133381244Y-85316633D01*
X133628150Y-85250476D01*
X133864306Y-85152657D01*
X133864316Y-85152652D01*
X134085685Y-85024845D01*
X134288481Y-84869234D01*
X134288488Y-84869228D01*
X134469228Y-84688488D01*
X134469234Y-84688481D01*
X134624845Y-84485685D01*
X134692613Y-84368308D01*
X134743179Y-84320093D01*
X134811786Y-84306869D01*
X134876651Y-84332837D01*
X134907387Y-84368308D01*
X134975154Y-84485685D01*
X135130765Y-84688481D01*
X135130771Y-84688488D01*
X135311511Y-84869228D01*
X135311518Y-84869234D01*
X135514314Y-85024845D01*
X135735683Y-85152652D01*
X135735693Y-85152657D01*
X135971849Y-85250476D01*
X136218755Y-85316633D01*
X136218768Y-85316636D01*
X136472180Y-85349998D01*
X136472197Y-85350000D01*
X136650000Y-85350000D01*
X136650000Y-84162360D01*
X136666649Y-84169257D01*
X136821207Y-84200000D01*
X136978793Y-84200000D01*
X137133351Y-84169257D01*
X137150000Y-84162360D01*
X137150000Y-85350000D01*
X137327803Y-85350000D01*
X137327819Y-85349998D01*
X137581231Y-85316636D01*
X137581244Y-85316633D01*
X137828150Y-85250476D01*
X137976381Y-85189077D01*
X138064306Y-85152657D01*
X138064316Y-85152652D01*
X138285685Y-85024845D01*
X138488481Y-84869234D01*
X138488488Y-84869228D01*
X138669228Y-84688488D01*
X138669234Y-84688481D01*
X138824845Y-84485685D01*
X138952652Y-84264316D01*
X138952657Y-84264306D01*
X139050476Y-84028150D01*
X139116633Y-83781244D01*
X139116635Y-83781233D01*
X139119806Y-83757155D01*
X171900000Y-83757155D01*
X171900000Y-84855000D01*
X173099999Y-84855000D01*
X173074979Y-84915402D01*
X173050000Y-85040981D01*
X173050000Y-85169019D01*
X173074979Y-85294598D01*
X173099999Y-85355000D01*
X171900000Y-85355000D01*
X171900000Y-86452844D01*
X171906401Y-86512372D01*
X171906403Y-86512379D01*
X171956645Y-86647086D01*
X171956649Y-86647093D01*
X172042809Y-86762187D01*
X172042812Y-86762190D01*
X172157906Y-86848350D01*
X172157913Y-86848354D01*
X172292620Y-86898596D01*
X172292627Y-86898598D01*
X172352155Y-86904999D01*
X172352172Y-86905000D01*
X173450000Y-86905000D01*
X173450000Y-85705001D01*
X173510402Y-85730021D01*
X173635981Y-85755000D01*
X173764019Y-85755000D01*
X173889598Y-85730021D01*
X173950000Y-85705001D01*
X173950000Y-86905000D01*
X175047828Y-86905000D01*
X175047844Y-86904999D01*
X175107372Y-86898598D01*
X175107379Y-86898596D01*
X175242086Y-86848354D01*
X175242093Y-86848350D01*
X175357187Y-86762190D01*
X175357190Y-86762187D01*
X175443350Y-86647093D01*
X175443354Y-86647086D01*
X175493596Y-86512379D01*
X175493598Y-86512372D01*
X175499999Y-86452844D01*
X175500000Y-86452827D01*
X175500000Y-85355000D01*
X174300001Y-85355000D01*
X174325021Y-85294598D01*
X174350000Y-85169019D01*
X174350000Y-85040981D01*
X174325021Y-84915402D01*
X174300001Y-84855000D01*
X175500000Y-84855000D01*
X175500000Y-83757172D01*
X175499999Y-83757155D01*
X175493598Y-83697627D01*
X175493596Y-83697620D01*
X175443354Y-83562913D01*
X175443350Y-83562906D01*
X175357190Y-83447812D01*
X175357187Y-83447809D01*
X175242093Y-83361649D01*
X175242086Y-83361645D01*
X175107379Y-83311403D01*
X175107372Y-83311401D01*
X175047844Y-83305000D01*
X173950000Y-83305000D01*
X173950000Y-84504998D01*
X173889598Y-84479979D01*
X173764019Y-84455000D01*
X173635981Y-84455000D01*
X173510402Y-84479979D01*
X173450000Y-84504998D01*
X173450000Y-83305000D01*
X172352155Y-83305000D01*
X172292627Y-83311401D01*
X172292620Y-83311403D01*
X172157913Y-83361645D01*
X172157906Y-83361649D01*
X172042812Y-83447809D01*
X172042809Y-83447812D01*
X171956649Y-83562906D01*
X171956645Y-83562913D01*
X171906403Y-83697620D01*
X171906401Y-83697627D01*
X171900000Y-83757155D01*
X139119806Y-83757155D01*
X139122372Y-83737665D01*
X139122372Y-83737664D01*
X139133913Y-83650000D01*
X137662361Y-83650000D01*
X137669257Y-83633351D01*
X137700000Y-83478793D01*
X137700000Y-83321207D01*
X137669257Y-83166649D01*
X137662361Y-83150000D01*
X139133912Y-83150000D01*
X139116636Y-83018768D01*
X139116633Y-83018755D01*
X139050476Y-82771849D01*
X138952657Y-82535693D01*
X138952652Y-82535683D01*
X138824845Y-82314314D01*
X138669234Y-82111518D01*
X138669228Y-82111511D01*
X138488488Y-81930771D01*
X138488481Y-81930765D01*
X138285685Y-81775154D01*
X138064316Y-81647347D01*
X138064306Y-81647343D01*
X137971463Y-81608886D01*
X137828150Y-81549523D01*
X137581244Y-81483366D01*
X137581231Y-81483363D01*
X137327819Y-81450001D01*
X137327803Y-81450000D01*
X137150000Y-81450000D01*
X137150000Y-82637639D01*
X137133351Y-82630743D01*
X136978793Y-82600000D01*
X136821207Y-82600000D01*
X136666649Y-82630743D01*
X136650000Y-82637639D01*
X136650000Y-81450000D01*
X136472197Y-81450000D01*
X136472180Y-81450001D01*
X136218768Y-81483363D01*
X136218755Y-81483366D01*
X135971849Y-81549523D01*
X135735693Y-81647342D01*
X135735683Y-81647347D01*
X135514314Y-81775154D01*
X135311518Y-81930765D01*
X135311511Y-81930771D01*
X135130771Y-82111511D01*
X135130765Y-82111518D01*
X134975154Y-82314314D01*
X134907387Y-82431691D01*
X134856820Y-82479907D01*
X134788213Y-82493130D01*
X134723348Y-82467162D01*
X134692613Y-82431691D01*
X134624845Y-82314314D01*
X134469234Y-82111518D01*
X134469228Y-82111511D01*
X134288488Y-81930771D01*
X134288481Y-81930765D01*
X134085685Y-81775154D01*
X133864316Y-81647347D01*
X133864306Y-81647342D01*
X133628150Y-81549523D01*
X133381244Y-81483366D01*
X133381231Y-81483363D01*
X133127819Y-81450001D01*
X133127803Y-81450000D01*
X132950000Y-81450000D01*
X132950000Y-82637639D01*
X132933351Y-82630743D01*
X132778793Y-82600000D01*
X132621207Y-82600000D01*
X132466649Y-82630743D01*
X132450000Y-82637639D01*
X132450000Y-81450000D01*
X132272197Y-81450000D01*
X132272180Y-81450001D01*
X132018768Y-81483363D01*
X132018755Y-81483366D01*
X131771849Y-81549523D01*
X131535693Y-81647342D01*
X131535683Y-81647347D01*
X131314314Y-81775154D01*
X131111518Y-81930765D01*
X131111511Y-81930771D01*
X130930771Y-82111511D01*
X130930765Y-82111518D01*
X130775154Y-82314314D01*
X130647347Y-82535683D01*
X130647342Y-82535693D01*
X130549523Y-82771849D01*
X130483366Y-83018755D01*
X130483363Y-83018768D01*
X130466087Y-83150000D01*
X123250500Y-83150000D01*
X123250500Y-79072149D01*
X130449500Y-79072149D01*
X130449500Y-79327850D01*
X130469529Y-79479979D01*
X130482874Y-79581340D01*
X130549050Y-79828312D01*
X130549053Y-79828322D01*
X130646894Y-80064531D01*
X130646899Y-80064542D01*
X130774734Y-80285957D01*
X130774745Y-80285973D01*
X130930388Y-80488811D01*
X130930394Y-80488818D01*
X131111181Y-80669605D01*
X131111187Y-80669610D01*
X131314035Y-80825261D01*
X131314042Y-80825265D01*
X131535457Y-80953100D01*
X131535462Y-80953102D01*
X131535465Y-80953104D01*
X131771687Y-81050950D01*
X132018660Y-81117126D01*
X132272157Y-81150500D01*
X132272164Y-81150500D01*
X133127836Y-81150500D01*
X133127843Y-81150500D01*
X133381340Y-81117126D01*
X133628313Y-81050950D01*
X133864535Y-80953104D01*
X134085965Y-80825261D01*
X134288813Y-80669610D01*
X134469610Y-80488813D01*
X134625261Y-80285965D01*
X134692613Y-80169307D01*
X134743180Y-80121092D01*
X134811787Y-80107869D01*
X134876652Y-80133837D01*
X134907386Y-80169307D01*
X134974739Y-80285965D01*
X134974744Y-80285971D01*
X134974745Y-80285973D01*
X135130388Y-80488811D01*
X135130394Y-80488818D01*
X135311181Y-80669605D01*
X135311187Y-80669610D01*
X135514035Y-80825261D01*
X135514042Y-80825265D01*
X135735457Y-80953100D01*
X135735462Y-80953102D01*
X135735465Y-80953104D01*
X135971687Y-81050950D01*
X136218660Y-81117126D01*
X136472157Y-81150500D01*
X136472164Y-81150500D01*
X137327836Y-81150500D01*
X137327843Y-81150500D01*
X137581340Y-81117126D01*
X137828313Y-81050950D01*
X138064535Y-80953104D01*
X138285965Y-80825261D01*
X138488813Y-80669610D01*
X138669610Y-80488813D01*
X138825261Y-80285965D01*
X138953104Y-80064535D01*
X138985214Y-79987014D01*
X171900000Y-79987014D01*
X171900000Y-80222985D01*
X171930799Y-80456914D01*
X171991870Y-80684837D01*
X172082160Y-80902819D01*
X172082165Y-80902828D01*
X172200144Y-81107171D01*
X172200145Y-81107172D01*
X172262721Y-81188723D01*
X173098958Y-80352487D01*
X173123978Y-80412890D01*
X173195112Y-80519351D01*
X173285649Y-80609888D01*
X173392110Y-80681022D01*
X173452511Y-80706041D01*
X172616275Y-81542277D01*
X172697827Y-81604854D01*
X172697828Y-81604855D01*
X172902171Y-81722834D01*
X172902180Y-81722839D01*
X173120163Y-81813129D01*
X173120161Y-81813129D01*
X173348085Y-81874200D01*
X173582014Y-81904999D01*
X173582029Y-81905000D01*
X173817971Y-81905000D01*
X173817985Y-81904999D01*
X174051914Y-81874200D01*
X174279837Y-81813129D01*
X174497819Y-81722839D01*
X174497828Y-81722834D01*
X174702181Y-81604850D01*
X174783723Y-81542279D01*
X174783723Y-81542276D01*
X173947487Y-80706041D01*
X174007890Y-80681022D01*
X174114351Y-80609888D01*
X174204888Y-80519351D01*
X174276022Y-80412890D01*
X174301041Y-80352488D01*
X175137276Y-81188723D01*
X175137279Y-81188723D01*
X175199850Y-81107181D01*
X175317834Y-80902828D01*
X175317839Y-80902819D01*
X175408129Y-80684837D01*
X175469200Y-80456914D01*
X175499999Y-80222985D01*
X175500000Y-80222971D01*
X175500000Y-79987028D01*
X175499999Y-79987014D01*
X175469200Y-79753085D01*
X175408129Y-79525162D01*
X175317839Y-79307180D01*
X175317834Y-79307171D01*
X175199855Y-79102828D01*
X175199854Y-79102827D01*
X175137277Y-79021275D01*
X174301041Y-79857511D01*
X174276022Y-79797110D01*
X174204888Y-79690649D01*
X174114351Y-79600112D01*
X174007890Y-79528978D01*
X173947488Y-79503958D01*
X174783723Y-78667721D01*
X174702172Y-78605145D01*
X174702171Y-78605144D01*
X174497828Y-78487165D01*
X174497819Y-78487160D01*
X174279836Y-78396870D01*
X174279838Y-78396870D01*
X174051914Y-78335799D01*
X173817985Y-78305000D01*
X173582014Y-78305000D01*
X173348085Y-78335799D01*
X173120162Y-78396870D01*
X172902180Y-78487160D01*
X172902171Y-78487165D01*
X172697828Y-78605144D01*
X172697818Y-78605150D01*
X172616275Y-78667720D01*
X172616275Y-78667721D01*
X173452512Y-79503958D01*
X173392110Y-79528978D01*
X173285649Y-79600112D01*
X173195112Y-79690649D01*
X173123978Y-79797110D01*
X173098958Y-79857511D01*
X172262721Y-79021275D01*
X172262720Y-79021275D01*
X172200150Y-79102818D01*
X172200144Y-79102828D01*
X172082165Y-79307171D01*
X172082160Y-79307180D01*
X171991870Y-79525162D01*
X171930799Y-79753085D01*
X171900000Y-79987014D01*
X138985214Y-79987014D01*
X139050950Y-79828313D01*
X139117126Y-79581340D01*
X139150500Y-79327843D01*
X139150500Y-79072157D01*
X139117126Y-78818660D01*
X139050950Y-78571687D01*
X138953104Y-78335465D01*
X138953102Y-78335462D01*
X138953100Y-78335457D01*
X138825265Y-78114042D01*
X138825261Y-78114035D01*
X138669610Y-77911187D01*
X138669605Y-77911181D01*
X138488818Y-77730394D01*
X138488811Y-77730388D01*
X138285973Y-77574745D01*
X138285971Y-77574743D01*
X138285965Y-77574739D01*
X138285960Y-77574736D01*
X138285957Y-77574734D01*
X138064542Y-77446899D01*
X138064531Y-77446894D01*
X137828322Y-77349053D01*
X137828315Y-77349051D01*
X137828313Y-77349050D01*
X137581340Y-77282874D01*
X137525007Y-77275457D01*
X137327850Y-77249500D01*
X137327843Y-77249500D01*
X136472157Y-77249500D01*
X136472149Y-77249500D01*
X136246826Y-77279165D01*
X136218660Y-77282874D01*
X135971687Y-77349050D01*
X135971677Y-77349053D01*
X135735468Y-77446894D01*
X135735457Y-77446899D01*
X135514042Y-77574734D01*
X135514026Y-77574745D01*
X135311188Y-77730388D01*
X135311181Y-77730394D01*
X135130394Y-77911181D01*
X135130388Y-77911188D01*
X134974745Y-78114026D01*
X134974734Y-78114042D01*
X134907387Y-78230691D01*
X134856820Y-78278907D01*
X134788213Y-78292129D01*
X134723348Y-78266161D01*
X134692613Y-78230691D01*
X134625265Y-78114042D01*
X134625261Y-78114035D01*
X134469610Y-77911187D01*
X134469605Y-77911181D01*
X134288818Y-77730394D01*
X134288811Y-77730388D01*
X134085973Y-77574745D01*
X134085971Y-77574743D01*
X134085965Y-77574739D01*
X134085960Y-77574736D01*
X134085957Y-77574734D01*
X133864542Y-77446899D01*
X133864531Y-77446894D01*
X133628322Y-77349053D01*
X133628315Y-77349051D01*
X133628313Y-77349050D01*
X133381340Y-77282874D01*
X133325007Y-77275457D01*
X133127850Y-77249500D01*
X133127843Y-77249500D01*
X132272157Y-77249500D01*
X132272149Y-77249500D01*
X132046826Y-77279165D01*
X132018660Y-77282874D01*
X131771687Y-77349050D01*
X131771677Y-77349053D01*
X131535468Y-77446894D01*
X131535457Y-77446899D01*
X131314042Y-77574734D01*
X131314026Y-77574745D01*
X131111188Y-77730388D01*
X131111181Y-77730394D01*
X130930394Y-77911181D01*
X130930388Y-77911188D01*
X130774745Y-78114026D01*
X130774734Y-78114042D01*
X130646899Y-78335457D01*
X130646894Y-78335468D01*
X130549053Y-78571677D01*
X130549050Y-78571687D01*
X130482874Y-78818661D01*
X130449500Y-79072149D01*
X123250500Y-79072149D01*
X123250500Y-74750000D01*
X130466087Y-74750000D01*
X131937639Y-74750000D01*
X131930743Y-74766649D01*
X131900000Y-74921207D01*
X131900000Y-75078793D01*
X131930743Y-75233351D01*
X131937639Y-75250000D01*
X130466087Y-75250000D01*
X130483363Y-75381231D01*
X130483366Y-75381244D01*
X130549523Y-75628150D01*
X130647342Y-75864306D01*
X130647347Y-75864316D01*
X130775154Y-76085685D01*
X130930765Y-76288481D01*
X130930771Y-76288488D01*
X131111511Y-76469228D01*
X131111518Y-76469234D01*
X131314314Y-76624845D01*
X131535683Y-76752652D01*
X131535693Y-76752657D01*
X131771849Y-76850476D01*
X132018755Y-76916633D01*
X132018768Y-76916636D01*
X132272180Y-76949998D01*
X132272197Y-76950000D01*
X132450000Y-76950000D01*
X132450000Y-75762360D01*
X132466649Y-75769257D01*
X132621207Y-75800000D01*
X132778793Y-75800000D01*
X132933351Y-75769257D01*
X132950000Y-75762360D01*
X132950000Y-76950000D01*
X133127803Y-76950000D01*
X133127819Y-76949998D01*
X133381231Y-76916636D01*
X133381244Y-76916633D01*
X133628150Y-76850476D01*
X133864306Y-76752657D01*
X133864316Y-76752652D01*
X134085685Y-76624845D01*
X134288481Y-76469234D01*
X134288488Y-76469228D01*
X134469228Y-76288488D01*
X134469234Y-76288481D01*
X134624845Y-76085685D01*
X134692613Y-75968308D01*
X134743179Y-75920093D01*
X134811786Y-75906869D01*
X134876651Y-75932837D01*
X134907387Y-75968308D01*
X134975154Y-76085685D01*
X135130765Y-76288481D01*
X135130771Y-76288488D01*
X135311511Y-76469228D01*
X135311518Y-76469234D01*
X135514314Y-76624845D01*
X135735683Y-76752652D01*
X135735693Y-76752657D01*
X135971849Y-76850476D01*
X136218755Y-76916633D01*
X136218768Y-76916636D01*
X136472180Y-76949998D01*
X136472197Y-76950000D01*
X136650000Y-76950000D01*
X136650000Y-75762360D01*
X136666649Y-75769257D01*
X136821207Y-75800000D01*
X136978793Y-75800000D01*
X137133351Y-75769257D01*
X137150000Y-75762360D01*
X137150000Y-76950000D01*
X137327803Y-76950000D01*
X137327819Y-76949998D01*
X137581231Y-76916636D01*
X137581244Y-76916633D01*
X137828150Y-76850476D01*
X138064306Y-76752657D01*
X138064316Y-76752652D01*
X138285685Y-76624845D01*
X138488481Y-76469234D01*
X138488488Y-76469228D01*
X138669228Y-76288488D01*
X138669234Y-76288481D01*
X138824845Y-76085685D01*
X138952652Y-75864316D01*
X138952657Y-75864306D01*
X139050476Y-75628150D01*
X139116633Y-75381244D01*
X139116636Y-75381231D01*
X139133913Y-75250000D01*
X137662361Y-75250000D01*
X137669257Y-75233351D01*
X137700000Y-75078793D01*
X137700000Y-74921207D01*
X137669257Y-74766649D01*
X137662361Y-74750000D01*
X139133912Y-74750000D01*
X139116636Y-74618768D01*
X139116633Y-74618755D01*
X139050476Y-74371849D01*
X138952657Y-74135693D01*
X138952652Y-74135683D01*
X138824845Y-73914314D01*
X138669234Y-73711518D01*
X138669228Y-73711511D01*
X138488488Y-73530771D01*
X138488481Y-73530765D01*
X138285685Y-73375154D01*
X138064316Y-73247347D01*
X138064306Y-73247342D01*
X137828150Y-73149523D01*
X137581244Y-73083366D01*
X137581231Y-73083363D01*
X137327819Y-73050001D01*
X137327803Y-73050000D01*
X137150000Y-73050000D01*
X137150000Y-74237639D01*
X137133351Y-74230743D01*
X136978793Y-74200000D01*
X136821207Y-74200000D01*
X136666649Y-74230743D01*
X136650000Y-74237639D01*
X136650000Y-73050000D01*
X136472197Y-73050000D01*
X136472180Y-73050001D01*
X136218768Y-73083363D01*
X136218755Y-73083366D01*
X135971849Y-73149523D01*
X135735693Y-73247342D01*
X135735683Y-73247347D01*
X135514314Y-73375154D01*
X135311518Y-73530765D01*
X135311511Y-73530771D01*
X135130771Y-73711511D01*
X135130765Y-73711518D01*
X134975154Y-73914314D01*
X134907387Y-74031691D01*
X134856820Y-74079907D01*
X134788213Y-74093130D01*
X134723348Y-74067162D01*
X134692613Y-74031691D01*
X134624845Y-73914314D01*
X134469234Y-73711518D01*
X134469228Y-73711511D01*
X134288488Y-73530771D01*
X134288481Y-73530765D01*
X134085685Y-73375154D01*
X133864316Y-73247347D01*
X133864306Y-73247342D01*
X133628150Y-73149523D01*
X133381244Y-73083366D01*
X133381231Y-73083363D01*
X133127819Y-73050001D01*
X133127803Y-73050000D01*
X132950000Y-73050000D01*
X132950000Y-74237639D01*
X132933351Y-74230743D01*
X132778793Y-74200000D01*
X132621207Y-74200000D01*
X132466649Y-74230743D01*
X132450000Y-74237639D01*
X132450000Y-73050000D01*
X132272197Y-73050000D01*
X132272180Y-73050001D01*
X132018768Y-73083363D01*
X132018755Y-73083366D01*
X131771849Y-73149523D01*
X131535693Y-73247342D01*
X131535683Y-73247347D01*
X131314314Y-73375154D01*
X131111518Y-73530765D01*
X131111511Y-73530771D01*
X130930771Y-73711511D01*
X130930765Y-73711518D01*
X130775154Y-73914314D01*
X130647347Y-74135683D01*
X130647342Y-74135693D01*
X130549523Y-74371849D01*
X130483366Y-74618755D01*
X130483363Y-74618768D01*
X130466087Y-74750000D01*
X123250500Y-74750000D01*
X123250500Y-70672149D01*
X130449500Y-70672149D01*
X130449500Y-70927850D01*
X130475457Y-71125007D01*
X130482874Y-71181340D01*
X130549050Y-71428312D01*
X130549053Y-71428322D01*
X130646894Y-71664531D01*
X130646899Y-71664542D01*
X130774734Y-71885957D01*
X130774745Y-71885973D01*
X130930388Y-72088811D01*
X130930394Y-72088818D01*
X131111181Y-72269605D01*
X131111187Y-72269610D01*
X131314035Y-72425261D01*
X131314042Y-72425265D01*
X131535457Y-72553100D01*
X131535462Y-72553102D01*
X131535465Y-72553104D01*
X131771687Y-72650950D01*
X132018660Y-72717126D01*
X132272157Y-72750500D01*
X132272164Y-72750500D01*
X133127836Y-72750500D01*
X133127843Y-72750500D01*
X133381340Y-72717126D01*
X133628313Y-72650950D01*
X133864535Y-72553104D01*
X134085965Y-72425261D01*
X134288813Y-72269610D01*
X134469610Y-72088813D01*
X134625261Y-71885965D01*
X134692613Y-71769307D01*
X134743180Y-71721092D01*
X134811787Y-71707869D01*
X134876652Y-71733837D01*
X134907386Y-71769307D01*
X134974739Y-71885965D01*
X134974744Y-71885971D01*
X134974745Y-71885973D01*
X135130388Y-72088811D01*
X135130394Y-72088818D01*
X135311181Y-72269605D01*
X135311187Y-72269610D01*
X135514035Y-72425261D01*
X135514042Y-72425265D01*
X135735457Y-72553100D01*
X135735462Y-72553102D01*
X135735465Y-72553104D01*
X135971687Y-72650950D01*
X136218660Y-72717126D01*
X136472157Y-72750500D01*
X136472164Y-72750500D01*
X137327836Y-72750500D01*
X137327843Y-72750500D01*
X137581340Y-72717126D01*
X137828313Y-72650950D01*
X138064535Y-72553104D01*
X138285965Y-72425261D01*
X138488813Y-72269610D01*
X138669610Y-72088813D01*
X138825261Y-71885965D01*
X138953104Y-71664535D01*
X139050950Y-71428313D01*
X139117126Y-71181340D01*
X139150500Y-70927843D01*
X139150500Y-70672157D01*
X139117126Y-70418660D01*
X139050950Y-70171687D01*
X138953104Y-69935465D01*
X138953102Y-69935462D01*
X138953100Y-69935457D01*
X138825265Y-69714042D01*
X138825261Y-69714035D01*
X138712540Y-69567135D01*
X171899500Y-69567135D01*
X171899500Y-72262870D01*
X171899501Y-72262876D01*
X171905908Y-72322483D01*
X171956202Y-72457328D01*
X171956206Y-72457335D01*
X172042452Y-72572544D01*
X172042455Y-72572547D01*
X172157664Y-72658793D01*
X172157671Y-72658797D01*
X172292517Y-72709091D01*
X172292516Y-72709091D01*
X172299444Y-72709835D01*
X172352127Y-72715500D01*
X175047872Y-72715499D01*
X175107483Y-72709091D01*
X175242331Y-72658796D01*
X175357546Y-72572546D01*
X175443796Y-72457331D01*
X175494091Y-72322483D01*
X175500500Y-72262873D01*
X175500499Y-69567128D01*
X175494091Y-69507517D01*
X175443796Y-69372669D01*
X175443795Y-69372668D01*
X175443793Y-69372664D01*
X175357547Y-69257455D01*
X175357544Y-69257452D01*
X175242335Y-69171206D01*
X175242328Y-69171202D01*
X175107482Y-69120908D01*
X175107483Y-69120908D01*
X175047883Y-69114501D01*
X175047881Y-69114500D01*
X175047873Y-69114500D01*
X175047864Y-69114500D01*
X172352129Y-69114500D01*
X172352123Y-69114501D01*
X172292516Y-69120908D01*
X172157671Y-69171202D01*
X172157664Y-69171206D01*
X172042455Y-69257452D01*
X172042452Y-69257455D01*
X171956206Y-69372664D01*
X171956202Y-69372671D01*
X171905908Y-69507517D01*
X171899501Y-69567116D01*
X171899501Y-69567123D01*
X171899500Y-69567135D01*
X138712540Y-69567135D01*
X138669611Y-69511188D01*
X138669605Y-69511181D01*
X138488818Y-69330394D01*
X138488811Y-69330388D01*
X138285973Y-69174745D01*
X138285971Y-69174743D01*
X138285965Y-69174739D01*
X138285960Y-69174736D01*
X138285957Y-69174734D01*
X138064542Y-69046899D01*
X138064531Y-69046894D01*
X137828322Y-68949053D01*
X137828315Y-68949051D01*
X137828313Y-68949050D01*
X137581340Y-68882874D01*
X137525007Y-68875457D01*
X137327850Y-68849500D01*
X137327843Y-68849500D01*
X136472157Y-68849500D01*
X136472149Y-68849500D01*
X136246826Y-68879165D01*
X136218660Y-68882874D01*
X135971687Y-68949050D01*
X135971677Y-68949053D01*
X135735468Y-69046894D01*
X135735457Y-69046899D01*
X135514042Y-69174734D01*
X135514026Y-69174745D01*
X135311188Y-69330388D01*
X135311181Y-69330394D01*
X135130394Y-69511181D01*
X135130388Y-69511188D01*
X134974745Y-69714026D01*
X134974734Y-69714042D01*
X134907387Y-69830691D01*
X134856820Y-69878907D01*
X134788213Y-69892129D01*
X134723348Y-69866161D01*
X134692613Y-69830691D01*
X134625265Y-69714042D01*
X134625261Y-69714035D01*
X134567909Y-69639292D01*
X134469611Y-69511188D01*
X134469605Y-69511181D01*
X134288818Y-69330394D01*
X134288811Y-69330388D01*
X134085973Y-69174745D01*
X134085971Y-69174743D01*
X134085965Y-69174739D01*
X134085960Y-69174736D01*
X134085957Y-69174734D01*
X133864542Y-69046899D01*
X133864531Y-69046894D01*
X133628322Y-68949053D01*
X133628315Y-68949051D01*
X133628313Y-68949050D01*
X133381340Y-68882874D01*
X133325007Y-68875457D01*
X133127850Y-68849500D01*
X133127843Y-68849500D01*
X132272157Y-68849500D01*
X132272149Y-68849500D01*
X132046826Y-68879165D01*
X132018660Y-68882874D01*
X131771687Y-68949050D01*
X131771677Y-68949053D01*
X131535468Y-69046894D01*
X131535457Y-69046899D01*
X131314042Y-69174734D01*
X131314026Y-69174745D01*
X131111188Y-69330388D01*
X131111181Y-69330394D01*
X130930394Y-69511181D01*
X130930388Y-69511188D01*
X130774745Y-69714026D01*
X130774734Y-69714042D01*
X130646899Y-69935457D01*
X130646894Y-69935468D01*
X130549053Y-70171677D01*
X130549050Y-70171687D01*
X130482874Y-70418661D01*
X130449500Y-70672149D01*
X123250500Y-70672149D01*
X123250500Y-66472149D01*
X130449500Y-66472149D01*
X130449500Y-66727850D01*
X130474463Y-66917450D01*
X130482874Y-66981340D01*
X130549050Y-67228312D01*
X130549053Y-67228322D01*
X130646894Y-67464531D01*
X130646899Y-67464542D01*
X130774734Y-67685957D01*
X130774745Y-67685973D01*
X130930388Y-67888811D01*
X130930394Y-67888818D01*
X131111181Y-68069605D01*
X131111187Y-68069610D01*
X131314035Y-68225261D01*
X131314042Y-68225265D01*
X131535457Y-68353100D01*
X131535462Y-68353102D01*
X131535465Y-68353104D01*
X131771687Y-68450950D01*
X132018660Y-68517126D01*
X132272157Y-68550500D01*
X132272164Y-68550500D01*
X133127836Y-68550500D01*
X133127843Y-68550500D01*
X133381340Y-68517126D01*
X133628313Y-68450950D01*
X133864535Y-68353104D01*
X134085965Y-68225261D01*
X134288813Y-68069610D01*
X134469610Y-67888813D01*
X134625261Y-67685965D01*
X134692613Y-67569307D01*
X134743180Y-67521092D01*
X134811787Y-67507869D01*
X134876652Y-67533837D01*
X134907386Y-67569307D01*
X134974739Y-67685965D01*
X134974744Y-67685971D01*
X134974745Y-67685973D01*
X135130388Y-67888811D01*
X135130394Y-67888818D01*
X135311181Y-68069605D01*
X135311187Y-68069610D01*
X135514035Y-68225261D01*
X135514042Y-68225265D01*
X135735457Y-68353100D01*
X135735462Y-68353102D01*
X135735465Y-68353104D01*
X135971687Y-68450950D01*
X136218660Y-68517126D01*
X136472157Y-68550500D01*
X136472164Y-68550500D01*
X137327836Y-68550500D01*
X137327843Y-68550500D01*
X137581340Y-68517126D01*
X137828313Y-68450950D01*
X138064535Y-68353104D01*
X138285965Y-68225261D01*
X138488813Y-68069610D01*
X138669610Y-67888813D01*
X138825261Y-67685965D01*
X138953104Y-67464535D01*
X139050950Y-67228313D01*
X139117126Y-66981340D01*
X139150500Y-66727843D01*
X139150500Y-66472157D01*
X139117126Y-66218660D01*
X139050950Y-65971687D01*
X139050945Y-65971677D01*
X139050944Y-65971671D01*
X138996563Y-65840382D01*
X138978590Y-65796995D01*
X171899500Y-65796995D01*
X171899500Y-66033004D01*
X171899501Y-66033020D01*
X171930306Y-66267010D01*
X171991394Y-66494993D01*
X172081714Y-66713045D01*
X172081719Y-66713056D01*
X172152677Y-66835957D01*
X172199727Y-66917450D01*
X172199729Y-66917453D01*
X172199730Y-66917454D01*
X172343406Y-67104697D01*
X172343412Y-67104704D01*
X172510295Y-67271587D01*
X172510301Y-67271592D01*
X172697550Y-67415273D01*
X172828918Y-67491118D01*
X172901943Y-67533280D01*
X172901948Y-67533282D01*
X172901951Y-67533284D01*
X173120007Y-67623606D01*
X173347986Y-67684693D01*
X173581989Y-67715500D01*
X173581996Y-67715500D01*
X173818004Y-67715500D01*
X173818011Y-67715500D01*
X174052014Y-67684693D01*
X174279993Y-67623606D01*
X174498049Y-67533284D01*
X174702450Y-67415273D01*
X174889699Y-67271592D01*
X175056592Y-67104699D01*
X175200273Y-66917450D01*
X175318284Y-66713049D01*
X175408606Y-66494993D01*
X175469693Y-66267014D01*
X175500500Y-66033011D01*
X175500500Y-65796989D01*
X175469693Y-65562986D01*
X175408606Y-65335007D01*
X175318284Y-65116951D01*
X175318282Y-65116948D01*
X175318280Y-65116943D01*
X175236181Y-64974745D01*
X175200273Y-64912550D01*
X175056592Y-64725301D01*
X175056587Y-64725295D01*
X174889704Y-64558412D01*
X174889697Y-64558406D01*
X174702454Y-64414730D01*
X174702453Y-64414729D01*
X174702450Y-64414727D01*
X174620957Y-64367677D01*
X174498056Y-64296719D01*
X174498045Y-64296714D01*
X174279993Y-64206394D01*
X174052010Y-64145306D01*
X173818020Y-64114501D01*
X173818017Y-64114500D01*
X173818011Y-64114500D01*
X173581989Y-64114500D01*
X173581983Y-64114500D01*
X173581979Y-64114501D01*
X173347989Y-64145306D01*
X173120006Y-64206394D01*
X172901954Y-64296714D01*
X172901943Y-64296719D01*
X172697545Y-64414730D01*
X172510302Y-64558406D01*
X172510295Y-64558412D01*
X172343412Y-64725295D01*
X172343406Y-64725302D01*
X172199730Y-64912545D01*
X172081719Y-65116943D01*
X172081714Y-65116954D01*
X171991394Y-65335006D01*
X171930306Y-65562989D01*
X171899501Y-65796979D01*
X171899500Y-65796995D01*
X138978590Y-65796995D01*
X138969225Y-65774386D01*
X138953104Y-65735465D01*
X138953101Y-65735460D01*
X138953100Y-65735457D01*
X138825265Y-65514042D01*
X138825261Y-65514035D01*
X138669610Y-65311187D01*
X138669605Y-65311181D01*
X138488818Y-65130394D01*
X138488811Y-65130388D01*
X138285973Y-64974745D01*
X138285971Y-64974743D01*
X138285965Y-64974739D01*
X138285960Y-64974736D01*
X138285957Y-64974734D01*
X138064542Y-64846899D01*
X138064531Y-64846894D01*
X137828322Y-64749053D01*
X137828315Y-64749051D01*
X137828313Y-64749050D01*
X137581340Y-64682874D01*
X137525007Y-64675457D01*
X137327850Y-64649500D01*
X137327843Y-64649500D01*
X136472157Y-64649500D01*
X136472149Y-64649500D01*
X136246826Y-64679165D01*
X136218660Y-64682874D01*
X136060320Y-64725301D01*
X135971687Y-64749050D01*
X135971677Y-64749053D01*
X135735468Y-64846894D01*
X135735457Y-64846899D01*
X135514042Y-64974734D01*
X135514026Y-64974745D01*
X135311188Y-65130388D01*
X135311181Y-65130394D01*
X135130394Y-65311181D01*
X135130388Y-65311188D01*
X134974745Y-65514026D01*
X134974734Y-65514042D01*
X134907387Y-65630691D01*
X134856820Y-65678907D01*
X134788213Y-65692129D01*
X134723348Y-65666161D01*
X134692613Y-65630691D01*
X134625265Y-65514042D01*
X134625261Y-65514035D01*
X134469610Y-65311187D01*
X134469605Y-65311181D01*
X134288818Y-65130394D01*
X134288811Y-65130388D01*
X134085973Y-64974745D01*
X134085971Y-64974743D01*
X134085965Y-64974739D01*
X134085960Y-64974736D01*
X134085957Y-64974734D01*
X133864542Y-64846899D01*
X133864531Y-64846894D01*
X133628322Y-64749053D01*
X133628315Y-64749051D01*
X133628313Y-64749050D01*
X133381340Y-64682874D01*
X133325007Y-64675457D01*
X133127850Y-64649500D01*
X133127843Y-64649500D01*
X132272157Y-64649500D01*
X132272149Y-64649500D01*
X132046826Y-64679165D01*
X132018660Y-64682874D01*
X131860320Y-64725301D01*
X131771687Y-64749050D01*
X131771677Y-64749053D01*
X131535468Y-64846894D01*
X131535457Y-64846899D01*
X131314042Y-64974734D01*
X131314026Y-64974745D01*
X131111188Y-65130388D01*
X131111181Y-65130394D01*
X130930394Y-65311181D01*
X130930388Y-65311188D01*
X130774745Y-65514026D01*
X130774734Y-65514042D01*
X130646899Y-65735457D01*
X130646894Y-65735468D01*
X130549053Y-65971677D01*
X130549050Y-65971687D01*
X130482874Y-66218661D01*
X130449500Y-66472149D01*
X123250500Y-66472149D01*
X123250500Y-54181995D01*
X128834500Y-54181995D01*
X128834500Y-54418004D01*
X128834501Y-54418020D01*
X128865306Y-54652010D01*
X128926394Y-54879993D01*
X129016714Y-55098045D01*
X129016719Y-55098056D01*
X129087677Y-55220957D01*
X129134727Y-55302450D01*
X129134729Y-55302453D01*
X129134730Y-55302454D01*
X129278406Y-55489697D01*
X129278412Y-55489704D01*
X129445295Y-55656587D01*
X129445302Y-55656593D01*
X129555306Y-55741001D01*
X129632550Y-55800273D01*
X129705397Y-55842331D01*
X129836943Y-55918280D01*
X129836948Y-55918282D01*
X129836951Y-55918284D01*
X130055007Y-56008606D01*
X130282986Y-56069693D01*
X130516989Y-56100500D01*
X130516996Y-56100500D01*
X130753004Y-56100500D01*
X130753011Y-56100500D01*
X130987014Y-56069693D01*
X131214993Y-56008606D01*
X131433049Y-55918284D01*
X131637450Y-55800273D01*
X131824699Y-55656592D01*
X131991592Y-55489699D01*
X132135273Y-55302450D01*
X132253284Y-55098049D01*
X132343606Y-54879993D01*
X132404693Y-54652014D01*
X132435500Y-54418011D01*
X132435500Y-54181989D01*
X132404693Y-53947986D01*
X132343606Y-53720007D01*
X132253284Y-53501951D01*
X132253282Y-53501948D01*
X132253280Y-53501943D01*
X132211118Y-53428918D01*
X132135273Y-53297550D01*
X131991592Y-53110301D01*
X131991587Y-53110295D01*
X131833427Y-52952135D01*
X133834500Y-52952135D01*
X133834500Y-55647870D01*
X133834501Y-55647876D01*
X133840908Y-55707483D01*
X133891202Y-55842328D01*
X133891206Y-55842335D01*
X133977452Y-55957544D01*
X133977455Y-55957547D01*
X134092664Y-56043793D01*
X134092671Y-56043797D01*
X134227517Y-56094091D01*
X134227516Y-56094091D01*
X134234444Y-56094835D01*
X134287127Y-56100500D01*
X136982872Y-56100499D01*
X137042483Y-56094091D01*
X137177331Y-56043796D01*
X137292546Y-55957546D01*
X137378796Y-55842331D01*
X137429091Y-55707483D01*
X137435500Y-55647873D01*
X137435499Y-54181995D01*
X141956167Y-54181995D01*
X141956167Y-54418004D01*
X141956168Y-54418020D01*
X141986973Y-54652010D01*
X142048061Y-54879993D01*
X142138381Y-55098045D01*
X142138386Y-55098056D01*
X142209344Y-55220957D01*
X142256394Y-55302450D01*
X142256396Y-55302453D01*
X142256397Y-55302454D01*
X142400073Y-55489697D01*
X142400079Y-55489704D01*
X142566962Y-55656587D01*
X142566969Y-55656593D01*
X142676973Y-55741001D01*
X142754217Y-55800273D01*
X142827064Y-55842331D01*
X142958610Y-55918280D01*
X142958615Y-55918282D01*
X142958618Y-55918284D01*
X143176674Y-56008606D01*
X143404653Y-56069693D01*
X143638656Y-56100500D01*
X143638663Y-56100500D01*
X143874671Y-56100500D01*
X143874678Y-56100500D01*
X144108681Y-56069693D01*
X144336660Y-56008606D01*
X144554716Y-55918284D01*
X144759117Y-55800273D01*
X144946366Y-55656592D01*
X145113259Y-55489699D01*
X145256940Y-55302450D01*
X145374951Y-55098049D01*
X145465273Y-54879993D01*
X145526360Y-54652014D01*
X145557167Y-54418011D01*
X145557167Y-54181989D01*
X145526360Y-53947986D01*
X145465273Y-53720007D01*
X145374951Y-53501951D01*
X145374949Y-53501948D01*
X145374947Y-53501943D01*
X145332785Y-53428918D01*
X145256940Y-53297550D01*
X145113259Y-53110301D01*
X145113254Y-53110295D01*
X144955094Y-52952135D01*
X146956167Y-52952135D01*
X146956167Y-55647870D01*
X146956168Y-55647876D01*
X146962575Y-55707483D01*
X147012869Y-55842328D01*
X147012873Y-55842335D01*
X147099119Y-55957544D01*
X147099122Y-55957547D01*
X147214331Y-56043793D01*
X147214338Y-56043797D01*
X147349184Y-56094091D01*
X147349183Y-56094091D01*
X147356111Y-56094835D01*
X147408794Y-56100500D01*
X150104539Y-56100499D01*
X150164150Y-56094091D01*
X150298998Y-56043796D01*
X150414213Y-55957546D01*
X150500463Y-55842331D01*
X150550758Y-55707483D01*
X150557167Y-55647873D01*
X150557166Y-54182014D01*
X155078333Y-54182014D01*
X155078333Y-54417985D01*
X155109132Y-54651914D01*
X155170203Y-54879837D01*
X155260493Y-55097819D01*
X155260498Y-55097828D01*
X155378477Y-55302171D01*
X155378478Y-55302172D01*
X155441054Y-55383723D01*
X156277291Y-54547487D01*
X156302311Y-54607890D01*
X156373445Y-54714351D01*
X156463982Y-54804888D01*
X156570443Y-54876022D01*
X156630844Y-54901041D01*
X155794608Y-55737277D01*
X155876160Y-55799854D01*
X155876161Y-55799855D01*
X156080504Y-55917834D01*
X156080513Y-55917839D01*
X156298496Y-56008129D01*
X156298494Y-56008129D01*
X156526418Y-56069200D01*
X156760347Y-56099999D01*
X156760362Y-56100000D01*
X156996304Y-56100000D01*
X156996318Y-56099999D01*
X157230247Y-56069200D01*
X157458170Y-56008129D01*
X157676152Y-55917839D01*
X157676161Y-55917834D01*
X157880514Y-55799850D01*
X157962056Y-55737279D01*
X157962056Y-55737276D01*
X157125820Y-54901041D01*
X157186223Y-54876022D01*
X157292684Y-54804888D01*
X157383221Y-54714351D01*
X157454355Y-54607890D01*
X157479374Y-54547488D01*
X158315609Y-55383723D01*
X158315612Y-55383723D01*
X158378183Y-55302181D01*
X158496167Y-55097828D01*
X158496172Y-55097819D01*
X158586462Y-54879837D01*
X158647533Y-54651914D01*
X158669845Y-54482452D01*
X158669845Y-54482451D01*
X158678331Y-54417988D01*
X158678333Y-54417971D01*
X158678333Y-54182028D01*
X158678332Y-54182014D01*
X158647533Y-53948085D01*
X158586462Y-53720162D01*
X158496172Y-53502180D01*
X158496167Y-53502171D01*
X158378188Y-53297828D01*
X158378187Y-53297827D01*
X158315610Y-53216275D01*
X157479374Y-54052511D01*
X157454355Y-53992110D01*
X157383221Y-53885649D01*
X157292684Y-53795112D01*
X157186223Y-53723978D01*
X157125821Y-53698958D01*
X157872622Y-52952155D01*
X160078333Y-52952155D01*
X160078333Y-54050000D01*
X161278332Y-54050000D01*
X161253312Y-54110402D01*
X161228333Y-54235981D01*
X161228333Y-54364019D01*
X161253312Y-54489598D01*
X161278332Y-54550000D01*
X160078333Y-54550000D01*
X160078333Y-55647844D01*
X160084734Y-55707372D01*
X160084736Y-55707379D01*
X160134978Y-55842086D01*
X160134982Y-55842093D01*
X160221142Y-55957187D01*
X160221145Y-55957190D01*
X160336239Y-56043350D01*
X160336246Y-56043354D01*
X160470953Y-56093596D01*
X160470960Y-56093598D01*
X160530488Y-56099999D01*
X160530505Y-56100000D01*
X161628333Y-56100000D01*
X161628333Y-54900001D01*
X161688735Y-54925021D01*
X161814314Y-54950000D01*
X161942352Y-54950000D01*
X162067931Y-54925021D01*
X162128333Y-54900001D01*
X162128333Y-56100000D01*
X163226161Y-56100000D01*
X163226177Y-56099999D01*
X163285705Y-56093598D01*
X163285712Y-56093596D01*
X163420419Y-56043354D01*
X163420426Y-56043350D01*
X163535520Y-55957190D01*
X163535523Y-55957187D01*
X163621683Y-55842093D01*
X163621687Y-55842086D01*
X163671929Y-55707379D01*
X163671931Y-55707372D01*
X163675297Y-55676070D01*
X163675297Y-55676067D01*
X163678332Y-55647839D01*
X163678333Y-55647827D01*
X163678333Y-54550000D01*
X162478334Y-54550000D01*
X162503354Y-54489598D01*
X162528333Y-54364019D01*
X162528333Y-54235981D01*
X162517598Y-54182014D01*
X168200000Y-54182014D01*
X168200000Y-54417985D01*
X168230799Y-54651914D01*
X168291870Y-54879837D01*
X168382160Y-55097819D01*
X168382165Y-55097828D01*
X168500144Y-55302171D01*
X168500145Y-55302172D01*
X168562721Y-55383723D01*
X169398958Y-54547487D01*
X169423978Y-54607890D01*
X169495112Y-54714351D01*
X169585649Y-54804888D01*
X169692110Y-54876022D01*
X169752511Y-54901041D01*
X168916275Y-55737277D01*
X168997827Y-55799854D01*
X168997828Y-55799855D01*
X169202171Y-55917834D01*
X169202180Y-55917839D01*
X169420163Y-56008129D01*
X169420161Y-56008129D01*
X169648085Y-56069200D01*
X169882014Y-56099999D01*
X169882029Y-56100000D01*
X170117971Y-56100000D01*
X170117985Y-56099999D01*
X170351914Y-56069200D01*
X170579837Y-56008129D01*
X170797819Y-55917839D01*
X170797828Y-55917834D01*
X171002181Y-55799850D01*
X171083723Y-55737279D01*
X171083723Y-55737276D01*
X170247487Y-54901041D01*
X170307890Y-54876022D01*
X170414351Y-54804888D01*
X170504888Y-54714351D01*
X170576022Y-54607890D01*
X170601041Y-54547488D01*
X171437276Y-55383723D01*
X171437279Y-55383723D01*
X171499850Y-55302181D01*
X171617834Y-55097828D01*
X171617839Y-55097819D01*
X171708129Y-54879837D01*
X171769200Y-54651914D01*
X171791512Y-54482452D01*
X171791512Y-54482451D01*
X171799998Y-54417988D01*
X171800000Y-54417971D01*
X171800000Y-54182028D01*
X171799999Y-54182014D01*
X171769200Y-53948085D01*
X171708129Y-53720162D01*
X171617839Y-53502180D01*
X171617834Y-53502171D01*
X171499855Y-53297828D01*
X171499854Y-53297827D01*
X171437277Y-53216275D01*
X170601041Y-54052511D01*
X170576022Y-53992110D01*
X170504888Y-53885649D01*
X170414351Y-53795112D01*
X170307890Y-53723978D01*
X170247488Y-53698958D01*
X170994289Y-52952155D01*
X173200000Y-52952155D01*
X173200000Y-54050000D01*
X174399999Y-54050000D01*
X174374979Y-54110402D01*
X174350000Y-54235981D01*
X174350000Y-54364019D01*
X174374979Y-54489598D01*
X174399999Y-54550000D01*
X173200000Y-54550000D01*
X173200000Y-55647844D01*
X173206401Y-55707372D01*
X173206403Y-55707379D01*
X173256645Y-55842086D01*
X173256649Y-55842093D01*
X173342809Y-55957187D01*
X173342812Y-55957190D01*
X173457906Y-56043350D01*
X173457913Y-56043354D01*
X173592620Y-56093596D01*
X173592627Y-56093598D01*
X173652155Y-56099999D01*
X173652172Y-56100000D01*
X174750000Y-56100000D01*
X174750000Y-54900001D01*
X174810402Y-54925021D01*
X174935981Y-54950000D01*
X175064019Y-54950000D01*
X175189598Y-54925021D01*
X175250000Y-54900001D01*
X175250000Y-56100000D01*
X176347828Y-56100000D01*
X176347844Y-56099999D01*
X176407372Y-56093598D01*
X176407379Y-56093596D01*
X176542086Y-56043354D01*
X176542093Y-56043350D01*
X176657187Y-55957190D01*
X176657190Y-55957187D01*
X176743350Y-55842093D01*
X176743354Y-55842086D01*
X176793596Y-55707379D01*
X176793598Y-55707372D01*
X176799999Y-55647844D01*
X176800000Y-55647827D01*
X176800000Y-54550000D01*
X175600001Y-54550000D01*
X175625021Y-54489598D01*
X175650000Y-54364019D01*
X175650000Y-54235981D01*
X175625021Y-54110402D01*
X175600001Y-54050000D01*
X176800000Y-54050000D01*
X176800000Y-52952172D01*
X176799999Y-52952155D01*
X176793598Y-52892627D01*
X176793596Y-52892620D01*
X176743354Y-52757913D01*
X176743350Y-52757906D01*
X176657190Y-52642812D01*
X176657187Y-52642809D01*
X176542093Y-52556649D01*
X176542086Y-52556645D01*
X176407379Y-52506403D01*
X176407372Y-52506401D01*
X176347844Y-52500000D01*
X175250000Y-52500000D01*
X175250000Y-53699998D01*
X175189598Y-53674979D01*
X175064019Y-53650000D01*
X174935981Y-53650000D01*
X174810402Y-53674979D01*
X174750000Y-53699998D01*
X174750000Y-52500000D01*
X173652155Y-52500000D01*
X173592627Y-52506401D01*
X173592620Y-52506403D01*
X173457913Y-52556645D01*
X173457906Y-52556649D01*
X173342812Y-52642809D01*
X173342809Y-52642812D01*
X173256649Y-52757906D01*
X173256645Y-52757913D01*
X173206403Y-52892620D01*
X173206401Y-52892627D01*
X173200000Y-52952155D01*
X170994289Y-52952155D01*
X171083723Y-52862721D01*
X171002172Y-52800145D01*
X171002171Y-52800144D01*
X170797828Y-52682165D01*
X170797819Y-52682160D01*
X170579836Y-52591870D01*
X170579838Y-52591870D01*
X170351914Y-52530799D01*
X170117985Y-52500000D01*
X169882014Y-52500000D01*
X169648085Y-52530799D01*
X169420162Y-52591870D01*
X169202180Y-52682160D01*
X169202171Y-52682165D01*
X168997828Y-52800144D01*
X168997818Y-52800150D01*
X168916275Y-52862720D01*
X168916275Y-52862721D01*
X169752512Y-53698958D01*
X169692110Y-53723978D01*
X169585649Y-53795112D01*
X169495112Y-53885649D01*
X169423978Y-53992110D01*
X169398958Y-54052511D01*
X168562721Y-53216275D01*
X168562720Y-53216275D01*
X168500150Y-53297818D01*
X168500144Y-53297828D01*
X168382165Y-53502171D01*
X168382160Y-53502180D01*
X168291870Y-53720162D01*
X168230799Y-53948085D01*
X168200000Y-54182014D01*
X162517598Y-54182014D01*
X162503354Y-54110402D01*
X162478334Y-54050000D01*
X163678333Y-54050000D01*
X163678333Y-52952172D01*
X163678332Y-52952158D01*
X163675297Y-52923931D01*
X163675297Y-52923929D01*
X163671931Y-52892626D01*
X163671929Y-52892620D01*
X163621687Y-52757913D01*
X163621683Y-52757906D01*
X163535523Y-52642812D01*
X163535520Y-52642809D01*
X163420426Y-52556649D01*
X163420419Y-52556645D01*
X163285712Y-52506403D01*
X163285705Y-52506401D01*
X163226177Y-52500000D01*
X162128333Y-52500000D01*
X162128333Y-53699998D01*
X162067931Y-53674979D01*
X161942352Y-53650000D01*
X161814314Y-53650000D01*
X161688735Y-53674979D01*
X161628333Y-53699998D01*
X161628333Y-52500000D01*
X160530488Y-52500000D01*
X160470960Y-52506401D01*
X160470953Y-52506403D01*
X160336246Y-52556645D01*
X160336239Y-52556649D01*
X160221145Y-52642809D01*
X160221142Y-52642812D01*
X160134982Y-52757906D01*
X160134978Y-52757913D01*
X160084736Y-52892620D01*
X160084734Y-52892627D01*
X160078333Y-52952155D01*
X157872622Y-52952155D01*
X157962056Y-52862721D01*
X157880505Y-52800145D01*
X157880504Y-52800144D01*
X157676161Y-52682165D01*
X157676152Y-52682160D01*
X157458169Y-52591870D01*
X157458171Y-52591870D01*
X157230247Y-52530799D01*
X156996318Y-52500000D01*
X156760347Y-52500000D01*
X156526418Y-52530799D01*
X156298495Y-52591870D01*
X156080513Y-52682160D01*
X156080504Y-52682165D01*
X155876161Y-52800144D01*
X155876151Y-52800150D01*
X155794608Y-52862720D01*
X155794608Y-52862721D01*
X156630845Y-53698958D01*
X156570443Y-53723978D01*
X156463982Y-53795112D01*
X156373445Y-53885649D01*
X156302311Y-53992110D01*
X156277291Y-54052511D01*
X155441054Y-53216275D01*
X155441053Y-53216275D01*
X155378483Y-53297818D01*
X155378477Y-53297828D01*
X155260498Y-53502171D01*
X155260493Y-53502180D01*
X155170203Y-53720162D01*
X155109132Y-53948085D01*
X155078333Y-54182014D01*
X150557166Y-54182014D01*
X150557166Y-52952128D01*
X150556228Y-52943406D01*
X150554135Y-52923926D01*
X150552738Y-52910945D01*
X150550758Y-52892517D01*
X150500554Y-52757913D01*
X150500464Y-52757671D01*
X150500460Y-52757664D01*
X150414214Y-52642455D01*
X150414211Y-52642452D01*
X150299002Y-52556206D01*
X150298995Y-52556202D01*
X150164149Y-52505908D01*
X150164150Y-52505908D01*
X150104550Y-52499501D01*
X150104548Y-52499500D01*
X150104540Y-52499500D01*
X150104531Y-52499500D01*
X147408796Y-52499500D01*
X147408790Y-52499501D01*
X147349183Y-52505908D01*
X147214338Y-52556202D01*
X147214331Y-52556206D01*
X147099122Y-52642452D01*
X147099119Y-52642455D01*
X147012873Y-52757664D01*
X147012869Y-52757671D01*
X146962575Y-52892517D01*
X146957104Y-52943408D01*
X146956168Y-52952123D01*
X146956167Y-52952135D01*
X144955094Y-52952135D01*
X144946371Y-52943412D01*
X144946364Y-52943406D01*
X144759121Y-52799730D01*
X144759120Y-52799729D01*
X144759117Y-52799727D01*
X144677624Y-52752677D01*
X144554723Y-52681719D01*
X144554712Y-52681714D01*
X144336660Y-52591394D01*
X144205337Y-52556206D01*
X144108681Y-52530307D01*
X144108680Y-52530306D01*
X144108677Y-52530306D01*
X143874687Y-52499501D01*
X143874684Y-52499500D01*
X143874678Y-52499500D01*
X143638656Y-52499500D01*
X143638650Y-52499500D01*
X143638646Y-52499501D01*
X143404656Y-52530306D01*
X143176673Y-52591394D01*
X142958621Y-52681714D01*
X142958610Y-52681719D01*
X142754212Y-52799730D01*
X142566969Y-52943406D01*
X142566962Y-52943412D01*
X142400079Y-53110295D01*
X142400073Y-53110302D01*
X142256397Y-53297545D01*
X142256394Y-53297549D01*
X142256394Y-53297550D01*
X142248681Y-53310909D01*
X142138386Y-53501943D01*
X142138381Y-53501954D01*
X142048061Y-53720006D01*
X141986973Y-53947989D01*
X141956168Y-54181979D01*
X141956167Y-54181995D01*
X137435499Y-54181995D01*
X137435499Y-52952128D01*
X137429091Y-52892517D01*
X137417977Y-52862720D01*
X137378797Y-52757671D01*
X137378793Y-52757664D01*
X137292547Y-52642455D01*
X137292544Y-52642452D01*
X137177335Y-52556206D01*
X137177328Y-52556202D01*
X137042482Y-52505908D01*
X137042483Y-52505908D01*
X136982883Y-52499501D01*
X136982881Y-52499500D01*
X136982873Y-52499500D01*
X136982864Y-52499500D01*
X134287129Y-52499500D01*
X134287123Y-52499501D01*
X134227516Y-52505908D01*
X134092671Y-52556202D01*
X134092664Y-52556206D01*
X133977455Y-52642452D01*
X133977452Y-52642455D01*
X133891206Y-52757664D01*
X133891202Y-52757671D01*
X133840908Y-52892517D01*
X133835437Y-52943408D01*
X133834501Y-52952123D01*
X133834500Y-52952135D01*
X131833427Y-52952135D01*
X131824704Y-52943412D01*
X131824697Y-52943406D01*
X131637454Y-52799730D01*
X131637453Y-52799729D01*
X131637450Y-52799727D01*
X131555957Y-52752677D01*
X131433056Y-52681719D01*
X131433045Y-52681714D01*
X131214993Y-52591394D01*
X131083670Y-52556206D01*
X130987014Y-52530307D01*
X130987013Y-52530306D01*
X130987010Y-52530306D01*
X130753020Y-52499501D01*
X130753017Y-52499500D01*
X130753011Y-52499500D01*
X130516989Y-52499500D01*
X130516983Y-52499500D01*
X130516979Y-52499501D01*
X130282989Y-52530306D01*
X130055006Y-52591394D01*
X129836954Y-52681714D01*
X129836943Y-52681719D01*
X129632545Y-52799730D01*
X129445302Y-52943406D01*
X129445295Y-52943412D01*
X129278412Y-53110295D01*
X129278406Y-53110302D01*
X129134730Y-53297545D01*
X129134727Y-53297549D01*
X129134727Y-53297550D01*
X129127014Y-53310909D01*
X129016719Y-53501943D01*
X129016714Y-53501954D01*
X128926394Y-53720006D01*
X128865306Y-53947989D01*
X128834501Y-54181979D01*
X128834500Y-54181995D01*
X123250500Y-54181995D01*
X123250500Y-44578711D01*
X124849500Y-44578711D01*
X124849500Y-44821288D01*
X124881161Y-45061785D01*
X124943947Y-45296104D01*
X125036773Y-45520205D01*
X125036776Y-45520212D01*
X125158064Y-45730289D01*
X125158066Y-45730292D01*
X125158067Y-45730293D01*
X125305733Y-45922736D01*
X125305739Y-45922743D01*
X125477256Y-46094260D01*
X125477262Y-46094265D01*
X125669711Y-46241936D01*
X125879788Y-46363224D01*
X126103900Y-46456054D01*
X126338211Y-46518838D01*
X126518586Y-46542584D01*
X126578711Y-46550500D01*
X126578712Y-46550500D01*
X126821289Y-46550500D01*
X126869388Y-46544167D01*
X127061789Y-46518838D01*
X127296100Y-46456054D01*
X127520212Y-46363224D01*
X127730289Y-46241936D01*
X127922738Y-46094265D01*
X128094265Y-45922738D01*
X128241936Y-45730289D01*
X128363224Y-45520212D01*
X128456054Y-45296100D01*
X128518838Y-45061789D01*
X128550500Y-44821288D01*
X128550500Y-44578712D01*
X128550500Y-44578711D01*
X176949500Y-44578711D01*
X176949500Y-44821288D01*
X176981161Y-45061785D01*
X177043947Y-45296104D01*
X177136773Y-45520205D01*
X177136776Y-45520212D01*
X177258064Y-45730289D01*
X177258066Y-45730292D01*
X177258067Y-45730293D01*
X177405733Y-45922736D01*
X177405739Y-45922743D01*
X177577256Y-46094260D01*
X177577262Y-46094265D01*
X177769711Y-46241936D01*
X177979788Y-46363224D01*
X178203900Y-46456054D01*
X178438211Y-46518838D01*
X178618586Y-46542584D01*
X178678711Y-46550500D01*
X178678712Y-46550500D01*
X178921289Y-46550500D01*
X178969388Y-46544167D01*
X179161789Y-46518838D01*
X179396100Y-46456054D01*
X179620212Y-46363224D01*
X179830289Y-46241936D01*
X180022738Y-46094265D01*
X180194265Y-45922738D01*
X180341936Y-45730289D01*
X180463224Y-45520212D01*
X180556054Y-45296100D01*
X180618838Y-45061789D01*
X180650500Y-44821288D01*
X180650500Y-44578712D01*
X180618838Y-44338211D01*
X180556054Y-44103900D01*
X180463224Y-43879788D01*
X180341936Y-43669711D01*
X180194265Y-43477262D01*
X180194260Y-43477256D01*
X180022743Y-43305739D01*
X180022736Y-43305733D01*
X179830293Y-43158067D01*
X179830292Y-43158066D01*
X179830289Y-43158064D01*
X179620212Y-43036776D01*
X179620205Y-43036773D01*
X179396104Y-42943947D01*
X179161785Y-42881161D01*
X178921289Y-42849500D01*
X178921288Y-42849500D01*
X178678712Y-42849500D01*
X178678711Y-42849500D01*
X178438214Y-42881161D01*
X178203895Y-42943947D01*
X177979794Y-43036773D01*
X177979785Y-43036777D01*
X177769706Y-43158067D01*
X177577263Y-43305733D01*
X177577256Y-43305739D01*
X177405739Y-43477256D01*
X177405733Y-43477263D01*
X177258067Y-43669706D01*
X177136777Y-43879785D01*
X177136773Y-43879794D01*
X177043947Y-44103895D01*
X176981161Y-44338214D01*
X176949500Y-44578711D01*
X128550500Y-44578711D01*
X128518838Y-44338211D01*
X128456054Y-44103900D01*
X128363224Y-43879788D01*
X128241936Y-43669711D01*
X128094265Y-43477262D01*
X128094260Y-43477256D01*
X127922743Y-43305739D01*
X127922736Y-43305733D01*
X127730293Y-43158067D01*
X127730292Y-43158066D01*
X127730289Y-43158064D01*
X127520212Y-43036776D01*
X127520205Y-43036773D01*
X127296104Y-42943947D01*
X127061785Y-42881161D01*
X126821289Y-42849500D01*
X126821288Y-42849500D01*
X126578712Y-42849500D01*
X126578711Y-42849500D01*
X126338214Y-42881161D01*
X126103895Y-42943947D01*
X125879794Y-43036773D01*
X125879785Y-43036777D01*
X125669706Y-43158067D01*
X125477263Y-43305733D01*
X125477256Y-43305739D01*
X125305739Y-43477256D01*
X125305733Y-43477263D01*
X125158067Y-43669706D01*
X125036777Y-43879785D01*
X125036773Y-43879794D01*
X124943947Y-44103895D01*
X124881161Y-44338214D01*
X124849500Y-44578711D01*
X123250500Y-44578711D01*
X123250500Y-41324500D01*
X123270185Y-41257461D01*
X123322989Y-41211706D01*
X123374500Y-41200500D01*
X182125500Y-41200500D01*
X182192539Y-41220185D01*
G37*
%TD.AperFunction*%
%TD*%
M02*
