%TF.GenerationSoftware,KiCad,Pcbnew,10.0.1*%
%TF.CreationDate,2026-05-14T13:20:08-04:00*%
%TF.ProjectId,Bench_Power_Supply,42656e63-685f-4506-9f77-65725f537570,rev?*%
%TF.SameCoordinates,Original*%
%TF.FileFunction,Legend,Top*%
%TF.FilePolarity,Positive*%
%FSLAX46Y46*%
G04 Gerber Fmt 4.6, Leading zero omitted, Abs format (unit mm)*
G04 Created by KiCad (PCBNEW 10.0.1) date 2026-05-14 13:20:08*
%MOMM*%
%LPD*%
G01*
G04 APERTURE LIST*
%ADD10C,0.100000*%
%ADD11C,0.150000*%
%ADD12C,0.000000*%
%ADD13C,0.120000*%
G04 APERTURE END LIST*
D10*
X130150789Y-130391466D02*
X130912694Y-130391466D01*
X130531741Y-130772419D02*
X130531741Y-130010514D01*
X131865074Y-129772419D02*
X131388884Y-129772419D01*
X131388884Y-129772419D02*
X131341265Y-130248609D01*
X131341265Y-130248609D02*
X131388884Y-130200990D01*
X131388884Y-130200990D02*
X131484122Y-130153371D01*
X131484122Y-130153371D02*
X131722217Y-130153371D01*
X131722217Y-130153371D02*
X131817455Y-130200990D01*
X131817455Y-130200990D02*
X131865074Y-130248609D01*
X131865074Y-130248609D02*
X131912693Y-130343847D01*
X131912693Y-130343847D02*
X131912693Y-130581942D01*
X131912693Y-130581942D02*
X131865074Y-130677180D01*
X131865074Y-130677180D02*
X131817455Y-130724800D01*
X131817455Y-130724800D02*
X131722217Y-130772419D01*
X131722217Y-130772419D02*
X131484122Y-130772419D01*
X131484122Y-130772419D02*
X131388884Y-130724800D01*
X131388884Y-130724800D02*
X131341265Y-130677180D01*
X132198408Y-129772419D02*
X132531741Y-130772419D01*
X132531741Y-130772419D02*
X132865074Y-129772419D01*
X134293646Y-130248609D02*
X133960313Y-130248609D01*
X133960313Y-130772419D02*
X133960313Y-129772419D01*
X133960313Y-129772419D02*
X134436503Y-129772419D01*
X135246027Y-130772419D02*
X135246027Y-130248609D01*
X135246027Y-130248609D02*
X135198408Y-130153371D01*
X135198408Y-130153371D02*
X135103170Y-130105752D01*
X135103170Y-130105752D02*
X134912694Y-130105752D01*
X134912694Y-130105752D02*
X134817456Y-130153371D01*
X135246027Y-130724800D02*
X135150789Y-130772419D01*
X135150789Y-130772419D02*
X134912694Y-130772419D01*
X134912694Y-130772419D02*
X134817456Y-130724800D01*
X134817456Y-130724800D02*
X134769837Y-130629561D01*
X134769837Y-130629561D02*
X134769837Y-130534323D01*
X134769837Y-130534323D02*
X134817456Y-130439085D01*
X134817456Y-130439085D02*
X134912694Y-130391466D01*
X134912694Y-130391466D02*
X135150789Y-130391466D01*
X135150789Y-130391466D02*
X135246027Y-130343847D01*
X135722218Y-130105752D02*
X135722218Y-130772419D01*
X135722218Y-130200990D02*
X135769837Y-130153371D01*
X135769837Y-130153371D02*
X135865075Y-130105752D01*
X135865075Y-130105752D02*
X136007932Y-130105752D01*
X136007932Y-130105752D02*
X136103170Y-130153371D01*
X136103170Y-130153371D02*
X136150789Y-130248609D01*
X136150789Y-130248609D02*
X136150789Y-130772419D01*
X142867694Y-129772419D02*
X143058170Y-129772419D01*
X143058170Y-129772419D02*
X143153408Y-129820038D01*
X143153408Y-129820038D02*
X143248646Y-129915276D01*
X143248646Y-129915276D02*
X143296265Y-130105752D01*
X143296265Y-130105752D02*
X143296265Y-130439085D01*
X143296265Y-130439085D02*
X143248646Y-130629561D01*
X143248646Y-130629561D02*
X143153408Y-130724800D01*
X143153408Y-130724800D02*
X143058170Y-130772419D01*
X143058170Y-130772419D02*
X142867694Y-130772419D01*
X142867694Y-130772419D02*
X142772456Y-130724800D01*
X142772456Y-130724800D02*
X142677218Y-130629561D01*
X142677218Y-130629561D02*
X142629599Y-130439085D01*
X142629599Y-130439085D02*
X142629599Y-130105752D01*
X142629599Y-130105752D02*
X142677218Y-129915276D01*
X142677218Y-129915276D02*
X142772456Y-129820038D01*
X142772456Y-129820038D02*
X142867694Y-129772419D01*
X143724837Y-130772419D02*
X143724837Y-129772419D01*
X143724837Y-129772419D02*
X144296265Y-130772419D01*
X144296265Y-130772419D02*
X144296265Y-129772419D01*
X145486742Y-130724800D02*
X145629599Y-130772419D01*
X145629599Y-130772419D02*
X145867694Y-130772419D01*
X145867694Y-130772419D02*
X145962932Y-130724800D01*
X145962932Y-130724800D02*
X146010551Y-130677180D01*
X146010551Y-130677180D02*
X146058170Y-130581942D01*
X146058170Y-130581942D02*
X146058170Y-130486704D01*
X146058170Y-130486704D02*
X146010551Y-130391466D01*
X146010551Y-130391466D02*
X145962932Y-130343847D01*
X145962932Y-130343847D02*
X145867694Y-130296228D01*
X145867694Y-130296228D02*
X145677218Y-130248609D01*
X145677218Y-130248609D02*
X145581980Y-130200990D01*
X145581980Y-130200990D02*
X145534361Y-130153371D01*
X145534361Y-130153371D02*
X145486742Y-130058133D01*
X145486742Y-130058133D02*
X145486742Y-129962895D01*
X145486742Y-129962895D02*
X145534361Y-129867657D01*
X145534361Y-129867657D02*
X145581980Y-129820038D01*
X145581980Y-129820038D02*
X145677218Y-129772419D01*
X145677218Y-129772419D02*
X145915313Y-129772419D01*
X145915313Y-129772419D02*
X146058170Y-129820038D01*
X146391504Y-130105752D02*
X146581980Y-130772419D01*
X146581980Y-130772419D02*
X146772456Y-130296228D01*
X146772456Y-130296228D02*
X146962932Y-130772419D01*
X146962932Y-130772419D02*
X147153408Y-130105752D01*
X147534361Y-130772419D02*
X147534361Y-130105752D01*
X147534361Y-129772419D02*
X147486742Y-129820038D01*
X147486742Y-129820038D02*
X147534361Y-129867657D01*
X147534361Y-129867657D02*
X147581980Y-129820038D01*
X147581980Y-129820038D02*
X147534361Y-129772419D01*
X147534361Y-129772419D02*
X147534361Y-129867657D01*
X147867694Y-130105752D02*
X148248646Y-130105752D01*
X148010551Y-129772419D02*
X148010551Y-130629561D01*
X148010551Y-130629561D02*
X148058170Y-130724800D01*
X148058170Y-130724800D02*
X148153408Y-130772419D01*
X148153408Y-130772419D02*
X148248646Y-130772419D01*
X149010551Y-130724800D02*
X148915313Y-130772419D01*
X148915313Y-130772419D02*
X148724837Y-130772419D01*
X148724837Y-130772419D02*
X148629599Y-130724800D01*
X148629599Y-130724800D02*
X148581980Y-130677180D01*
X148581980Y-130677180D02*
X148534361Y-130581942D01*
X148534361Y-130581942D02*
X148534361Y-130296228D01*
X148534361Y-130296228D02*
X148581980Y-130200990D01*
X148581980Y-130200990D02*
X148629599Y-130153371D01*
X148629599Y-130153371D02*
X148724837Y-130105752D01*
X148724837Y-130105752D02*
X148915313Y-130105752D01*
X148915313Y-130105752D02*
X149010551Y-130153371D01*
X149439123Y-130772419D02*
X149439123Y-129772419D01*
X149867694Y-130772419D02*
X149867694Y-130248609D01*
X149867694Y-130248609D02*
X149820075Y-130153371D01*
X149820075Y-130153371D02*
X149724837Y-130105752D01*
X149724837Y-130105752D02*
X149581980Y-130105752D01*
X149581980Y-130105752D02*
X149486742Y-130153371D01*
X149486742Y-130153371D02*
X149439123Y-130200990D01*
X153727455Y-130772419D02*
X153727455Y-129772419D01*
X153727455Y-129772419D02*
X154108407Y-129772419D01*
X154108407Y-129772419D02*
X154203645Y-129820038D01*
X154203645Y-129820038D02*
X154251264Y-129867657D01*
X154251264Y-129867657D02*
X154298883Y-129962895D01*
X154298883Y-129962895D02*
X154298883Y-130105752D01*
X154298883Y-130105752D02*
X154251264Y-130200990D01*
X154251264Y-130200990D02*
X154203645Y-130248609D01*
X154203645Y-130248609D02*
X154108407Y-130296228D01*
X154108407Y-130296228D02*
X153727455Y-130296228D01*
X154870312Y-130772419D02*
X154775074Y-130724800D01*
X154775074Y-130724800D02*
X154727455Y-130677180D01*
X154727455Y-130677180D02*
X154679836Y-130581942D01*
X154679836Y-130581942D02*
X154679836Y-130296228D01*
X154679836Y-130296228D02*
X154727455Y-130200990D01*
X154727455Y-130200990D02*
X154775074Y-130153371D01*
X154775074Y-130153371D02*
X154870312Y-130105752D01*
X154870312Y-130105752D02*
X155013169Y-130105752D01*
X155013169Y-130105752D02*
X155108407Y-130153371D01*
X155108407Y-130153371D02*
X155156026Y-130200990D01*
X155156026Y-130200990D02*
X155203645Y-130296228D01*
X155203645Y-130296228D02*
X155203645Y-130581942D01*
X155203645Y-130581942D02*
X155156026Y-130677180D01*
X155156026Y-130677180D02*
X155108407Y-130724800D01*
X155108407Y-130724800D02*
X155013169Y-130772419D01*
X155013169Y-130772419D02*
X154870312Y-130772419D01*
X155536979Y-130105752D02*
X155727455Y-130772419D01*
X155727455Y-130772419D02*
X155917931Y-130296228D01*
X155917931Y-130296228D02*
X156108407Y-130772419D01*
X156108407Y-130772419D02*
X156298883Y-130105752D01*
X157060788Y-130724800D02*
X156965550Y-130772419D01*
X156965550Y-130772419D02*
X156775074Y-130772419D01*
X156775074Y-130772419D02*
X156679836Y-130724800D01*
X156679836Y-130724800D02*
X156632217Y-130629561D01*
X156632217Y-130629561D02*
X156632217Y-130248609D01*
X156632217Y-130248609D02*
X156679836Y-130153371D01*
X156679836Y-130153371D02*
X156775074Y-130105752D01*
X156775074Y-130105752D02*
X156965550Y-130105752D01*
X156965550Y-130105752D02*
X157060788Y-130153371D01*
X157060788Y-130153371D02*
X157108407Y-130248609D01*
X157108407Y-130248609D02*
X157108407Y-130343847D01*
X157108407Y-130343847D02*
X156632217Y-130439085D01*
X157536979Y-130772419D02*
X157536979Y-130105752D01*
X157536979Y-130296228D02*
X157584598Y-130200990D01*
X157584598Y-130200990D02*
X157632217Y-130153371D01*
X157632217Y-130153371D02*
X157727455Y-130105752D01*
X157727455Y-130105752D02*
X157822693Y-130105752D01*
X158917932Y-130772419D02*
X158917932Y-129772419D01*
X159394122Y-130105752D02*
X159394122Y-130772419D01*
X159394122Y-130200990D02*
X159441741Y-130153371D01*
X159441741Y-130153371D02*
X159536979Y-130105752D01*
X159536979Y-130105752D02*
X159679836Y-130105752D01*
X159679836Y-130105752D02*
X159775074Y-130153371D01*
X159775074Y-130153371D02*
X159822693Y-130248609D01*
X159822693Y-130248609D02*
X159822693Y-130772419D01*
X160727455Y-130772419D02*
X160727455Y-129772419D01*
X160727455Y-130724800D02*
X160632217Y-130772419D01*
X160632217Y-130772419D02*
X160441741Y-130772419D01*
X160441741Y-130772419D02*
X160346503Y-130724800D01*
X160346503Y-130724800D02*
X160298884Y-130677180D01*
X160298884Y-130677180D02*
X160251265Y-130581942D01*
X160251265Y-130581942D02*
X160251265Y-130296228D01*
X160251265Y-130296228D02*
X160298884Y-130200990D01*
X160298884Y-130200990D02*
X160346503Y-130153371D01*
X160346503Y-130153371D02*
X160441741Y-130105752D01*
X160441741Y-130105752D02*
X160632217Y-130105752D01*
X160632217Y-130105752D02*
X160727455Y-130153371D01*
X161203646Y-130772419D02*
X161203646Y-130105752D01*
X161203646Y-129772419D02*
X161156027Y-129820038D01*
X161156027Y-129820038D02*
X161203646Y-129867657D01*
X161203646Y-129867657D02*
X161251265Y-129820038D01*
X161251265Y-129820038D02*
X161203646Y-129772419D01*
X161203646Y-129772419D02*
X161203646Y-129867657D01*
X162108407Y-130724800D02*
X162013169Y-130772419D01*
X162013169Y-130772419D02*
X161822693Y-130772419D01*
X161822693Y-130772419D02*
X161727455Y-130724800D01*
X161727455Y-130724800D02*
X161679836Y-130677180D01*
X161679836Y-130677180D02*
X161632217Y-130581942D01*
X161632217Y-130581942D02*
X161632217Y-130296228D01*
X161632217Y-130296228D02*
X161679836Y-130200990D01*
X161679836Y-130200990D02*
X161727455Y-130153371D01*
X161727455Y-130153371D02*
X161822693Y-130105752D01*
X161822693Y-130105752D02*
X162013169Y-130105752D01*
X162013169Y-130105752D02*
X162108407Y-130153371D01*
X162965550Y-130772419D02*
X162965550Y-130248609D01*
X162965550Y-130248609D02*
X162917931Y-130153371D01*
X162917931Y-130153371D02*
X162822693Y-130105752D01*
X162822693Y-130105752D02*
X162632217Y-130105752D01*
X162632217Y-130105752D02*
X162536979Y-130153371D01*
X162965550Y-130724800D02*
X162870312Y-130772419D01*
X162870312Y-130772419D02*
X162632217Y-130772419D01*
X162632217Y-130772419D02*
X162536979Y-130724800D01*
X162536979Y-130724800D02*
X162489360Y-130629561D01*
X162489360Y-130629561D02*
X162489360Y-130534323D01*
X162489360Y-130534323D02*
X162536979Y-130439085D01*
X162536979Y-130439085D02*
X162632217Y-130391466D01*
X162632217Y-130391466D02*
X162870312Y-130391466D01*
X162870312Y-130391466D02*
X162965550Y-130343847D01*
X163298884Y-130105752D02*
X163679836Y-130105752D01*
X163441741Y-129772419D02*
X163441741Y-130629561D01*
X163441741Y-130629561D02*
X163489360Y-130724800D01*
X163489360Y-130724800D02*
X163584598Y-130772419D01*
X163584598Y-130772419D02*
X163679836Y-130772419D01*
X164156027Y-130772419D02*
X164060789Y-130724800D01*
X164060789Y-130724800D02*
X164013170Y-130677180D01*
X164013170Y-130677180D02*
X163965551Y-130581942D01*
X163965551Y-130581942D02*
X163965551Y-130296228D01*
X163965551Y-130296228D02*
X164013170Y-130200990D01*
X164013170Y-130200990D02*
X164060789Y-130153371D01*
X164060789Y-130153371D02*
X164156027Y-130105752D01*
X164156027Y-130105752D02*
X164298884Y-130105752D01*
X164298884Y-130105752D02*
X164394122Y-130153371D01*
X164394122Y-130153371D02*
X164441741Y-130200990D01*
X164441741Y-130200990D02*
X164489360Y-130296228D01*
X164489360Y-130296228D02*
X164489360Y-130581942D01*
X164489360Y-130581942D02*
X164441741Y-130677180D01*
X164441741Y-130677180D02*
X164394122Y-130724800D01*
X164394122Y-130724800D02*
X164298884Y-130772419D01*
X164298884Y-130772419D02*
X164156027Y-130772419D01*
X164917932Y-130772419D02*
X164917932Y-130105752D01*
X164917932Y-130296228D02*
X164965551Y-130200990D01*
X164965551Y-130200990D02*
X165013170Y-130153371D01*
X165013170Y-130153371D02*
X165108408Y-130105752D01*
X165108408Y-130105752D02*
X165203646Y-130105752D01*
X166658645Y-130724800D02*
X166801502Y-130772419D01*
X166801502Y-130772419D02*
X167039597Y-130772419D01*
X167039597Y-130772419D02*
X167134835Y-130724800D01*
X167134835Y-130724800D02*
X167182454Y-130677180D01*
X167182454Y-130677180D02*
X167230073Y-130581942D01*
X167230073Y-130581942D02*
X167230073Y-130486704D01*
X167230073Y-130486704D02*
X167182454Y-130391466D01*
X167182454Y-130391466D02*
X167134835Y-130343847D01*
X167134835Y-130343847D02*
X167039597Y-130296228D01*
X167039597Y-130296228D02*
X166849121Y-130248609D01*
X166849121Y-130248609D02*
X166753883Y-130200990D01*
X166753883Y-130200990D02*
X166706264Y-130153371D01*
X166706264Y-130153371D02*
X166658645Y-130058133D01*
X166658645Y-130058133D02*
X166658645Y-129962895D01*
X166658645Y-129962895D02*
X166706264Y-129867657D01*
X166706264Y-129867657D02*
X166753883Y-129820038D01*
X166753883Y-129820038D02*
X166849121Y-129772419D01*
X166849121Y-129772419D02*
X167087216Y-129772419D01*
X167087216Y-129772419D02*
X167230073Y-129820038D01*
X167515788Y-130105752D02*
X167896740Y-130105752D01*
X167658645Y-129772419D02*
X167658645Y-130629561D01*
X167658645Y-130629561D02*
X167706264Y-130724800D01*
X167706264Y-130724800D02*
X167801502Y-130772419D01*
X167801502Y-130772419D02*
X167896740Y-130772419D01*
X168658645Y-130772419D02*
X168658645Y-130248609D01*
X168658645Y-130248609D02*
X168611026Y-130153371D01*
X168611026Y-130153371D02*
X168515788Y-130105752D01*
X168515788Y-130105752D02*
X168325312Y-130105752D01*
X168325312Y-130105752D02*
X168230074Y-130153371D01*
X168658645Y-130724800D02*
X168563407Y-130772419D01*
X168563407Y-130772419D02*
X168325312Y-130772419D01*
X168325312Y-130772419D02*
X168230074Y-130724800D01*
X168230074Y-130724800D02*
X168182455Y-130629561D01*
X168182455Y-130629561D02*
X168182455Y-130534323D01*
X168182455Y-130534323D02*
X168230074Y-130439085D01*
X168230074Y-130439085D02*
X168325312Y-130391466D01*
X168325312Y-130391466D02*
X168563407Y-130391466D01*
X168563407Y-130391466D02*
X168658645Y-130343847D01*
X168991979Y-130105752D02*
X169372931Y-130105752D01*
X169134836Y-129772419D02*
X169134836Y-130629561D01*
X169134836Y-130629561D02*
X169182455Y-130724800D01*
X169182455Y-130724800D02*
X169277693Y-130772419D01*
X169277693Y-130772419D02*
X169372931Y-130772419D01*
X170134836Y-130105752D02*
X170134836Y-130772419D01*
X169706265Y-130105752D02*
X169706265Y-130629561D01*
X169706265Y-130629561D02*
X169753884Y-130724800D01*
X169753884Y-130724800D02*
X169849122Y-130772419D01*
X169849122Y-130772419D02*
X169991979Y-130772419D01*
X169991979Y-130772419D02*
X170087217Y-130724800D01*
X170087217Y-130724800D02*
X170134836Y-130677180D01*
X170563408Y-130724800D02*
X170658646Y-130772419D01*
X170658646Y-130772419D02*
X170849122Y-130772419D01*
X170849122Y-130772419D02*
X170944360Y-130724800D01*
X170944360Y-130724800D02*
X170991979Y-130629561D01*
X170991979Y-130629561D02*
X170991979Y-130581942D01*
X170991979Y-130581942D02*
X170944360Y-130486704D01*
X170944360Y-130486704D02*
X170849122Y-130439085D01*
X170849122Y-130439085D02*
X170706265Y-130439085D01*
X170706265Y-130439085D02*
X170611027Y-130391466D01*
X170611027Y-130391466D02*
X170563408Y-130296228D01*
X170563408Y-130296228D02*
X170563408Y-130248609D01*
X170563408Y-130248609D02*
X170611027Y-130153371D01*
X170611027Y-130153371D02*
X170706265Y-130105752D01*
X170706265Y-130105752D02*
X170849122Y-130105752D01*
X170849122Y-130105752D02*
X170944360Y-130153371D01*
X172182456Y-130772419D02*
X172182456Y-129772419D01*
X172658646Y-130105752D02*
X172658646Y-130772419D01*
X172658646Y-130200990D02*
X172706265Y-130153371D01*
X172706265Y-130153371D02*
X172801503Y-130105752D01*
X172801503Y-130105752D02*
X172944360Y-130105752D01*
X172944360Y-130105752D02*
X173039598Y-130153371D01*
X173039598Y-130153371D02*
X173087217Y-130248609D01*
X173087217Y-130248609D02*
X173087217Y-130772419D01*
X173991979Y-130772419D02*
X173991979Y-129772419D01*
X173991979Y-130724800D02*
X173896741Y-130772419D01*
X173896741Y-130772419D02*
X173706265Y-130772419D01*
X173706265Y-130772419D02*
X173611027Y-130724800D01*
X173611027Y-130724800D02*
X173563408Y-130677180D01*
X173563408Y-130677180D02*
X173515789Y-130581942D01*
X173515789Y-130581942D02*
X173515789Y-130296228D01*
X173515789Y-130296228D02*
X173563408Y-130200990D01*
X173563408Y-130200990D02*
X173611027Y-130153371D01*
X173611027Y-130153371D02*
X173706265Y-130105752D01*
X173706265Y-130105752D02*
X173896741Y-130105752D01*
X173896741Y-130105752D02*
X173991979Y-130153371D01*
X174468170Y-130772419D02*
X174468170Y-130105752D01*
X174468170Y-129772419D02*
X174420551Y-129820038D01*
X174420551Y-129820038D02*
X174468170Y-129867657D01*
X174468170Y-129867657D02*
X174515789Y-129820038D01*
X174515789Y-129820038D02*
X174468170Y-129772419D01*
X174468170Y-129772419D02*
X174468170Y-129867657D01*
X175372931Y-130724800D02*
X175277693Y-130772419D01*
X175277693Y-130772419D02*
X175087217Y-130772419D01*
X175087217Y-130772419D02*
X174991979Y-130724800D01*
X174991979Y-130724800D02*
X174944360Y-130677180D01*
X174944360Y-130677180D02*
X174896741Y-130581942D01*
X174896741Y-130581942D02*
X174896741Y-130296228D01*
X174896741Y-130296228D02*
X174944360Y-130200990D01*
X174944360Y-130200990D02*
X174991979Y-130153371D01*
X174991979Y-130153371D02*
X175087217Y-130105752D01*
X175087217Y-130105752D02*
X175277693Y-130105752D01*
X175277693Y-130105752D02*
X175372931Y-130153371D01*
X176230074Y-130772419D02*
X176230074Y-130248609D01*
X176230074Y-130248609D02*
X176182455Y-130153371D01*
X176182455Y-130153371D02*
X176087217Y-130105752D01*
X176087217Y-130105752D02*
X175896741Y-130105752D01*
X175896741Y-130105752D02*
X175801503Y-130153371D01*
X176230074Y-130724800D02*
X176134836Y-130772419D01*
X176134836Y-130772419D02*
X175896741Y-130772419D01*
X175896741Y-130772419D02*
X175801503Y-130724800D01*
X175801503Y-130724800D02*
X175753884Y-130629561D01*
X175753884Y-130629561D02*
X175753884Y-130534323D01*
X175753884Y-130534323D02*
X175801503Y-130439085D01*
X175801503Y-130439085D02*
X175896741Y-130391466D01*
X175896741Y-130391466D02*
X176134836Y-130391466D01*
X176134836Y-130391466D02*
X176230074Y-130343847D01*
X176563408Y-130105752D02*
X176944360Y-130105752D01*
X176706265Y-129772419D02*
X176706265Y-130629561D01*
X176706265Y-130629561D02*
X176753884Y-130724800D01*
X176753884Y-130724800D02*
X176849122Y-130772419D01*
X176849122Y-130772419D02*
X176944360Y-130772419D01*
X177420551Y-130772419D02*
X177325313Y-130724800D01*
X177325313Y-130724800D02*
X177277694Y-130677180D01*
X177277694Y-130677180D02*
X177230075Y-130581942D01*
X177230075Y-130581942D02*
X177230075Y-130296228D01*
X177230075Y-130296228D02*
X177277694Y-130200990D01*
X177277694Y-130200990D02*
X177325313Y-130153371D01*
X177325313Y-130153371D02*
X177420551Y-130105752D01*
X177420551Y-130105752D02*
X177563408Y-130105752D01*
X177563408Y-130105752D02*
X177658646Y-130153371D01*
X177658646Y-130153371D02*
X177706265Y-130200990D01*
X177706265Y-130200990D02*
X177753884Y-130296228D01*
X177753884Y-130296228D02*
X177753884Y-130581942D01*
X177753884Y-130581942D02*
X177706265Y-130677180D01*
X177706265Y-130677180D02*
X177658646Y-130724800D01*
X177658646Y-130724800D02*
X177563408Y-130772419D01*
X177563408Y-130772419D02*
X177420551Y-130772419D01*
X178182456Y-130772419D02*
X178182456Y-130105752D01*
X178182456Y-130296228D02*
X178230075Y-130200990D01*
X178230075Y-130200990D02*
X178277694Y-130153371D01*
X178277694Y-130153371D02*
X178372932Y-130105752D01*
X178372932Y-130105752D02*
X178468170Y-130105752D01*
X179391466Y-69684925D02*
X179391466Y-68923021D01*
X179772419Y-69303973D02*
X179010514Y-69303973D01*
X178772419Y-67970640D02*
X178772419Y-68446830D01*
X178772419Y-68446830D02*
X179248609Y-68494449D01*
X179248609Y-68494449D02*
X179200990Y-68446830D01*
X179200990Y-68446830D02*
X179153371Y-68351592D01*
X179153371Y-68351592D02*
X179153371Y-68113497D01*
X179153371Y-68113497D02*
X179200990Y-68018259D01*
X179200990Y-68018259D02*
X179248609Y-67970640D01*
X179248609Y-67970640D02*
X179343847Y-67923021D01*
X179343847Y-67923021D02*
X179581942Y-67923021D01*
X179581942Y-67923021D02*
X179677180Y-67970640D01*
X179677180Y-67970640D02*
X179724800Y-68018259D01*
X179724800Y-68018259D02*
X179772419Y-68113497D01*
X179772419Y-68113497D02*
X179772419Y-68351592D01*
X179772419Y-68351592D02*
X179724800Y-68446830D01*
X179724800Y-68446830D02*
X179677180Y-68494449D01*
X178772419Y-67637306D02*
X179772419Y-67303973D01*
X179772419Y-67303973D02*
X178772419Y-66970640D01*
X178820038Y-83351116D02*
X178772419Y-83446354D01*
X178772419Y-83446354D02*
X178772419Y-83589211D01*
X178772419Y-83589211D02*
X178820038Y-83732068D01*
X178820038Y-83732068D02*
X178915276Y-83827306D01*
X178915276Y-83827306D02*
X179010514Y-83874925D01*
X179010514Y-83874925D02*
X179200990Y-83922544D01*
X179200990Y-83922544D02*
X179343847Y-83922544D01*
X179343847Y-83922544D02*
X179534323Y-83874925D01*
X179534323Y-83874925D02*
X179629561Y-83827306D01*
X179629561Y-83827306D02*
X179724800Y-83732068D01*
X179724800Y-83732068D02*
X179772419Y-83589211D01*
X179772419Y-83589211D02*
X179772419Y-83493973D01*
X179772419Y-83493973D02*
X179724800Y-83351116D01*
X179724800Y-83351116D02*
X179677180Y-83303497D01*
X179677180Y-83303497D02*
X179343847Y-83303497D01*
X179343847Y-83303497D02*
X179343847Y-83493973D01*
X179772419Y-82874925D02*
X178772419Y-82874925D01*
X178772419Y-82874925D02*
X179772419Y-82303497D01*
X179772419Y-82303497D02*
X178772419Y-82303497D01*
X179772419Y-81827306D02*
X178772419Y-81827306D01*
X178772419Y-81827306D02*
X178772419Y-81589211D01*
X178772419Y-81589211D02*
X178820038Y-81446354D01*
X178820038Y-81446354D02*
X178915276Y-81351116D01*
X178915276Y-81351116D02*
X179010514Y-81303497D01*
X179010514Y-81303497D02*
X179200990Y-81255878D01*
X179200990Y-81255878D02*
X179343847Y-81255878D01*
X179343847Y-81255878D02*
X179534323Y-81303497D01*
X179534323Y-81303497D02*
X179629561Y-81351116D01*
X179629561Y-81351116D02*
X179724800Y-81446354D01*
X179724800Y-81446354D02*
X179772419Y-81589211D01*
X179772419Y-81589211D02*
X179772419Y-81827306D01*
X179391466Y-98779210D02*
X179391466Y-98017306D01*
X179772419Y-98398258D02*
X179010514Y-98398258D01*
X178772419Y-97636353D02*
X178772419Y-97017306D01*
X178772419Y-97017306D02*
X179153371Y-97350639D01*
X179153371Y-97350639D02*
X179153371Y-97207782D01*
X179153371Y-97207782D02*
X179200990Y-97112544D01*
X179200990Y-97112544D02*
X179248609Y-97064925D01*
X179248609Y-97064925D02*
X179343847Y-97017306D01*
X179343847Y-97017306D02*
X179581942Y-97017306D01*
X179581942Y-97017306D02*
X179677180Y-97064925D01*
X179677180Y-97064925D02*
X179724800Y-97112544D01*
X179724800Y-97112544D02*
X179772419Y-97207782D01*
X179772419Y-97207782D02*
X179772419Y-97493496D01*
X179772419Y-97493496D02*
X179724800Y-97588734D01*
X179724800Y-97588734D02*
X179677180Y-97636353D01*
X179677180Y-96588734D02*
X179724800Y-96541115D01*
X179724800Y-96541115D02*
X179772419Y-96588734D01*
X179772419Y-96588734D02*
X179724800Y-96636353D01*
X179724800Y-96636353D02*
X179677180Y-96588734D01*
X179677180Y-96588734D02*
X179772419Y-96588734D01*
X178772419Y-96207782D02*
X178772419Y-95588735D01*
X178772419Y-95588735D02*
X179153371Y-95922068D01*
X179153371Y-95922068D02*
X179153371Y-95779211D01*
X179153371Y-95779211D02*
X179200990Y-95683973D01*
X179200990Y-95683973D02*
X179248609Y-95636354D01*
X179248609Y-95636354D02*
X179343847Y-95588735D01*
X179343847Y-95588735D02*
X179581942Y-95588735D01*
X179581942Y-95588735D02*
X179677180Y-95636354D01*
X179677180Y-95636354D02*
X179724800Y-95683973D01*
X179724800Y-95683973D02*
X179772419Y-95779211D01*
X179772419Y-95779211D02*
X179772419Y-96064925D01*
X179772419Y-96064925D02*
X179724800Y-96160163D01*
X179724800Y-96160163D02*
X179677180Y-96207782D01*
X178772419Y-95303020D02*
X179772419Y-94969687D01*
X179772419Y-94969687D02*
X178772419Y-94636354D01*
X178820038Y-111731116D02*
X178772419Y-111826354D01*
X178772419Y-111826354D02*
X178772419Y-111969211D01*
X178772419Y-111969211D02*
X178820038Y-112112068D01*
X178820038Y-112112068D02*
X178915276Y-112207306D01*
X178915276Y-112207306D02*
X179010514Y-112254925D01*
X179010514Y-112254925D02*
X179200990Y-112302544D01*
X179200990Y-112302544D02*
X179343847Y-112302544D01*
X179343847Y-112302544D02*
X179534323Y-112254925D01*
X179534323Y-112254925D02*
X179629561Y-112207306D01*
X179629561Y-112207306D02*
X179724800Y-112112068D01*
X179724800Y-112112068D02*
X179772419Y-111969211D01*
X179772419Y-111969211D02*
X179772419Y-111873973D01*
X179772419Y-111873973D02*
X179724800Y-111731116D01*
X179724800Y-111731116D02*
X179677180Y-111683497D01*
X179677180Y-111683497D02*
X179343847Y-111683497D01*
X179343847Y-111683497D02*
X179343847Y-111873973D01*
X179772419Y-111254925D02*
X178772419Y-111254925D01*
X178772419Y-111254925D02*
X179772419Y-110683497D01*
X179772419Y-110683497D02*
X178772419Y-110683497D01*
X179772419Y-110207306D02*
X178772419Y-110207306D01*
X178772419Y-110207306D02*
X178772419Y-109969211D01*
X178772419Y-109969211D02*
X178820038Y-109826354D01*
X178820038Y-109826354D02*
X178915276Y-109731116D01*
X178915276Y-109731116D02*
X179010514Y-109683497D01*
X179010514Y-109683497D02*
X179200990Y-109635878D01*
X179200990Y-109635878D02*
X179343847Y-109635878D01*
X179343847Y-109635878D02*
X179534323Y-109683497D01*
X179534323Y-109683497D02*
X179629561Y-109731116D01*
X179629561Y-109731116D02*
X179724800Y-109826354D01*
X179724800Y-109826354D02*
X179772419Y-109969211D01*
X179772419Y-109969211D02*
X179772419Y-110207306D01*
X137047783Y-49072390D02*
X136904926Y-49024771D01*
X136904926Y-49024771D02*
X136857307Y-48977152D01*
X136857307Y-48977152D02*
X136809688Y-48881914D01*
X136809688Y-48881914D02*
X136809688Y-48739057D01*
X136809688Y-48739057D02*
X136857307Y-48643819D01*
X136857307Y-48643819D02*
X136904926Y-48596200D01*
X136904926Y-48596200D02*
X137000164Y-48548580D01*
X137000164Y-48548580D02*
X137381116Y-48548580D01*
X137381116Y-48548580D02*
X137381116Y-49548580D01*
X137381116Y-49548580D02*
X137047783Y-49548580D01*
X137047783Y-49548580D02*
X136952545Y-49500961D01*
X136952545Y-49500961D02*
X136904926Y-49453342D01*
X136904926Y-49453342D02*
X136857307Y-49358104D01*
X136857307Y-49358104D02*
X136857307Y-49262866D01*
X136857307Y-49262866D02*
X136904926Y-49167628D01*
X136904926Y-49167628D02*
X136952545Y-49120009D01*
X136952545Y-49120009D02*
X137047783Y-49072390D01*
X137047783Y-49072390D02*
X137381116Y-49072390D01*
X135952545Y-49215247D02*
X135952545Y-48548580D01*
X136381116Y-49215247D02*
X136381116Y-48691438D01*
X136381116Y-48691438D02*
X136333497Y-48596200D01*
X136333497Y-48596200D02*
X136238259Y-48548580D01*
X136238259Y-48548580D02*
X136095402Y-48548580D01*
X136095402Y-48548580D02*
X136000164Y-48596200D01*
X136000164Y-48596200D02*
X135952545Y-48643819D01*
X135047783Y-48596200D02*
X135143021Y-48548580D01*
X135143021Y-48548580D02*
X135333497Y-48548580D01*
X135333497Y-48548580D02*
X135428735Y-48596200D01*
X135428735Y-48596200D02*
X135476354Y-48643819D01*
X135476354Y-48643819D02*
X135523973Y-48739057D01*
X135523973Y-48739057D02*
X135523973Y-49024771D01*
X135523973Y-49024771D02*
X135476354Y-49120009D01*
X135476354Y-49120009D02*
X135428735Y-49167628D01*
X135428735Y-49167628D02*
X135333497Y-49215247D01*
X135333497Y-49215247D02*
X135143021Y-49215247D01*
X135143021Y-49215247D02*
X135047783Y-49167628D01*
X134619211Y-48548580D02*
X134619211Y-49548580D01*
X134523973Y-48929533D02*
X134238259Y-48548580D01*
X134238259Y-49215247D02*
X134619211Y-48834295D01*
X133809687Y-48929533D02*
X133047783Y-48929533D01*
X132238259Y-49072390D02*
X132095402Y-49024771D01*
X132095402Y-49024771D02*
X132047783Y-48977152D01*
X132047783Y-48977152D02*
X132000164Y-48881914D01*
X132000164Y-48881914D02*
X132000164Y-48739057D01*
X132000164Y-48739057D02*
X132047783Y-48643819D01*
X132047783Y-48643819D02*
X132095402Y-48596200D01*
X132095402Y-48596200D02*
X132190640Y-48548580D01*
X132190640Y-48548580D02*
X132571592Y-48548580D01*
X132571592Y-48548580D02*
X132571592Y-49548580D01*
X132571592Y-49548580D02*
X132238259Y-49548580D01*
X132238259Y-49548580D02*
X132143021Y-49500961D01*
X132143021Y-49500961D02*
X132095402Y-49453342D01*
X132095402Y-49453342D02*
X132047783Y-49358104D01*
X132047783Y-49358104D02*
X132047783Y-49262866D01*
X132047783Y-49262866D02*
X132095402Y-49167628D01*
X132095402Y-49167628D02*
X132143021Y-49120009D01*
X132143021Y-49120009D02*
X132238259Y-49072390D01*
X132238259Y-49072390D02*
X132571592Y-49072390D01*
X131428735Y-48548580D02*
X131523973Y-48596200D01*
X131523973Y-48596200D02*
X131571592Y-48643819D01*
X131571592Y-48643819D02*
X131619211Y-48739057D01*
X131619211Y-48739057D02*
X131619211Y-49024771D01*
X131619211Y-49024771D02*
X131571592Y-49120009D01*
X131571592Y-49120009D02*
X131523973Y-49167628D01*
X131523973Y-49167628D02*
X131428735Y-49215247D01*
X131428735Y-49215247D02*
X131285878Y-49215247D01*
X131285878Y-49215247D02*
X131190640Y-49167628D01*
X131190640Y-49167628D02*
X131143021Y-49120009D01*
X131143021Y-49120009D02*
X131095402Y-49024771D01*
X131095402Y-49024771D02*
X131095402Y-48739057D01*
X131095402Y-48739057D02*
X131143021Y-48643819D01*
X131143021Y-48643819D02*
X131190640Y-48596200D01*
X131190640Y-48596200D02*
X131285878Y-48548580D01*
X131285878Y-48548580D02*
X131428735Y-48548580D01*
X130523973Y-48548580D02*
X130619211Y-48596200D01*
X130619211Y-48596200D02*
X130666830Y-48643819D01*
X130666830Y-48643819D02*
X130714449Y-48739057D01*
X130714449Y-48739057D02*
X130714449Y-49024771D01*
X130714449Y-49024771D02*
X130666830Y-49120009D01*
X130666830Y-49120009D02*
X130619211Y-49167628D01*
X130619211Y-49167628D02*
X130523973Y-49215247D01*
X130523973Y-49215247D02*
X130381116Y-49215247D01*
X130381116Y-49215247D02*
X130285878Y-49167628D01*
X130285878Y-49167628D02*
X130238259Y-49120009D01*
X130238259Y-49120009D02*
X130190640Y-49024771D01*
X130190640Y-49024771D02*
X130190640Y-48739057D01*
X130190640Y-48739057D02*
X130238259Y-48643819D01*
X130238259Y-48643819D02*
X130285878Y-48596200D01*
X130285878Y-48596200D02*
X130381116Y-48548580D01*
X130381116Y-48548580D02*
X130523973Y-48548580D01*
X129809687Y-48596200D02*
X129714449Y-48548580D01*
X129714449Y-48548580D02*
X129523973Y-48548580D01*
X129523973Y-48548580D02*
X129428735Y-48596200D01*
X129428735Y-48596200D02*
X129381116Y-48691438D01*
X129381116Y-48691438D02*
X129381116Y-48739057D01*
X129381116Y-48739057D02*
X129428735Y-48834295D01*
X129428735Y-48834295D02*
X129523973Y-48881914D01*
X129523973Y-48881914D02*
X129666830Y-48881914D01*
X129666830Y-48881914D02*
X129762068Y-48929533D01*
X129762068Y-48929533D02*
X129809687Y-49024771D01*
X129809687Y-49024771D02*
X129809687Y-49072390D01*
X129809687Y-49072390D02*
X129762068Y-49167628D01*
X129762068Y-49167628D02*
X129666830Y-49215247D01*
X129666830Y-49215247D02*
X129523973Y-49215247D01*
X129523973Y-49215247D02*
X129428735Y-49167628D01*
X129095401Y-49215247D02*
X128714449Y-49215247D01*
X128952544Y-49548580D02*
X128952544Y-48691438D01*
X128952544Y-48691438D02*
X128904925Y-48596200D01*
X128904925Y-48596200D02*
X128809687Y-48548580D01*
X128809687Y-48548580D02*
X128714449Y-48548580D01*
X148002782Y-48929533D02*
X147240878Y-48929533D01*
X147621830Y-48548580D02*
X147621830Y-49310485D01*
X146240878Y-48548580D02*
X146812306Y-48548580D01*
X146526592Y-48548580D02*
X146526592Y-49548580D01*
X146526592Y-49548580D02*
X146621830Y-49405723D01*
X146621830Y-49405723D02*
X146717068Y-49310485D01*
X146717068Y-49310485D02*
X146812306Y-49262866D01*
X145859925Y-49453342D02*
X145812306Y-49500961D01*
X145812306Y-49500961D02*
X145717068Y-49548580D01*
X145717068Y-49548580D02*
X145478973Y-49548580D01*
X145478973Y-49548580D02*
X145383735Y-49500961D01*
X145383735Y-49500961D02*
X145336116Y-49453342D01*
X145336116Y-49453342D02*
X145288497Y-49358104D01*
X145288497Y-49358104D02*
X145288497Y-49262866D01*
X145288497Y-49262866D02*
X145336116Y-49120009D01*
X145336116Y-49120009D02*
X145907544Y-48548580D01*
X145907544Y-48548580D02*
X145288497Y-48548580D01*
X145002782Y-49548580D02*
X144669449Y-48548580D01*
X144669449Y-48548580D02*
X144336116Y-49548580D01*
X160124449Y-49500961D02*
X160219687Y-49548580D01*
X160219687Y-49548580D02*
X160362544Y-49548580D01*
X160362544Y-49548580D02*
X160505401Y-49500961D01*
X160505401Y-49500961D02*
X160600639Y-49405723D01*
X160600639Y-49405723D02*
X160648258Y-49310485D01*
X160648258Y-49310485D02*
X160695877Y-49120009D01*
X160695877Y-49120009D02*
X160695877Y-48977152D01*
X160695877Y-48977152D02*
X160648258Y-48786676D01*
X160648258Y-48786676D02*
X160600639Y-48691438D01*
X160600639Y-48691438D02*
X160505401Y-48596200D01*
X160505401Y-48596200D02*
X160362544Y-48548580D01*
X160362544Y-48548580D02*
X160267306Y-48548580D01*
X160267306Y-48548580D02*
X160124449Y-48596200D01*
X160124449Y-48596200D02*
X160076830Y-48643819D01*
X160076830Y-48643819D02*
X160076830Y-48977152D01*
X160076830Y-48977152D02*
X160267306Y-48977152D01*
X159648258Y-48548580D02*
X159648258Y-49548580D01*
X159648258Y-49548580D02*
X159076830Y-48548580D01*
X159076830Y-48548580D02*
X159076830Y-49548580D01*
X158600639Y-48548580D02*
X158600639Y-49548580D01*
X158600639Y-49548580D02*
X158362544Y-49548580D01*
X158362544Y-49548580D02*
X158219687Y-49500961D01*
X158219687Y-49500961D02*
X158124449Y-49405723D01*
X158124449Y-49405723D02*
X158076830Y-49310485D01*
X158076830Y-49310485D02*
X158029211Y-49120009D01*
X158029211Y-49120009D02*
X158029211Y-48977152D01*
X158029211Y-48977152D02*
X158076830Y-48786676D01*
X158076830Y-48786676D02*
X158124449Y-48691438D01*
X158124449Y-48691438D02*
X158219687Y-48596200D01*
X158219687Y-48596200D02*
X158362544Y-48548580D01*
X158362544Y-48548580D02*
X158600639Y-48548580D01*
X173246116Y-49500961D02*
X173341354Y-49548580D01*
X173341354Y-49548580D02*
X173484211Y-49548580D01*
X173484211Y-49548580D02*
X173627068Y-49500961D01*
X173627068Y-49500961D02*
X173722306Y-49405723D01*
X173722306Y-49405723D02*
X173769925Y-49310485D01*
X173769925Y-49310485D02*
X173817544Y-49120009D01*
X173817544Y-49120009D02*
X173817544Y-48977152D01*
X173817544Y-48977152D02*
X173769925Y-48786676D01*
X173769925Y-48786676D02*
X173722306Y-48691438D01*
X173722306Y-48691438D02*
X173627068Y-48596200D01*
X173627068Y-48596200D02*
X173484211Y-48548580D01*
X173484211Y-48548580D02*
X173388973Y-48548580D01*
X173388973Y-48548580D02*
X173246116Y-48596200D01*
X173246116Y-48596200D02*
X173198497Y-48643819D01*
X173198497Y-48643819D02*
X173198497Y-48977152D01*
X173198497Y-48977152D02*
X173388973Y-48977152D01*
X172769925Y-48548580D02*
X172769925Y-49548580D01*
X172769925Y-49548580D02*
X172198497Y-48548580D01*
X172198497Y-48548580D02*
X172198497Y-49548580D01*
X171722306Y-48548580D02*
X171722306Y-49548580D01*
X171722306Y-49548580D02*
X171484211Y-49548580D01*
X171484211Y-49548580D02*
X171341354Y-49500961D01*
X171341354Y-49500961D02*
X171246116Y-49405723D01*
X171246116Y-49405723D02*
X171198497Y-49310485D01*
X171198497Y-49310485D02*
X171150878Y-49120009D01*
X171150878Y-49120009D02*
X171150878Y-48977152D01*
X171150878Y-48977152D02*
X171198497Y-48786676D01*
X171198497Y-48786676D02*
X171246116Y-48691438D01*
X171246116Y-48691438D02*
X171341354Y-48596200D01*
X171341354Y-48596200D02*
X171484211Y-48548580D01*
X171484211Y-48548580D02*
X171722306Y-48548580D01*
D11*
X155174002Y-101670552D02*
X155275017Y-101098133D01*
X154769941Y-101266491D02*
X155477048Y-100559385D01*
X155477048Y-100559385D02*
X155746422Y-100828759D01*
X155746422Y-100828759D02*
X155780094Y-100929774D01*
X155780094Y-100929774D02*
X155780094Y-100997117D01*
X155780094Y-100997117D02*
X155746422Y-101098133D01*
X155746422Y-101098133D02*
X155645407Y-101199148D01*
X155645407Y-101199148D02*
X155544391Y-101232820D01*
X155544391Y-101232820D02*
X155477048Y-101232820D01*
X155477048Y-101232820D02*
X155376033Y-101199148D01*
X155376033Y-101199148D02*
X155106659Y-100929774D01*
X156083139Y-101300163D02*
X156150483Y-101300163D01*
X156150483Y-101300163D02*
X156251498Y-101333835D01*
X156251498Y-101333835D02*
X156419857Y-101502194D01*
X156419857Y-101502194D02*
X156453529Y-101603209D01*
X156453529Y-101603209D02*
X156453529Y-101670552D01*
X156453529Y-101670552D02*
X156419857Y-101771568D01*
X156419857Y-101771568D02*
X156352513Y-101838911D01*
X156352513Y-101838911D02*
X156217826Y-101906255D01*
X156217826Y-101906255D02*
X155409704Y-101906255D01*
X155409704Y-101906255D02*
X155847437Y-102343987D01*
X151474002Y-106770552D02*
X151575017Y-106198133D01*
X151069941Y-106366491D02*
X151777048Y-105659385D01*
X151777048Y-105659385D02*
X152046422Y-105928759D01*
X152046422Y-105928759D02*
X152080094Y-106029774D01*
X152080094Y-106029774D02*
X152080094Y-106097117D01*
X152080094Y-106097117D02*
X152046422Y-106198133D01*
X152046422Y-106198133D02*
X151945407Y-106299148D01*
X151945407Y-106299148D02*
X151844391Y-106332820D01*
X151844391Y-106332820D02*
X151777048Y-106332820D01*
X151777048Y-106332820D02*
X151676033Y-106299148D01*
X151676033Y-106299148D02*
X151406659Y-106029774D01*
X152147437Y-107443987D02*
X151743376Y-107039926D01*
X151945407Y-107241957D02*
X152652513Y-106534850D01*
X152652513Y-106534850D02*
X152484155Y-106568522D01*
X152484155Y-106568522D02*
X152349468Y-106568522D01*
X152349468Y-106568522D02*
X152248452Y-106534850D01*
D12*
%TO.C,G\u002A\u002A\u002A*%
G36*
X161888414Y-67432163D02*
G01*
X161958665Y-67469505D01*
X161958686Y-67470341D01*
X161897074Y-67549453D01*
X161719027Y-67731987D01*
X161434724Y-68008455D01*
X161054347Y-68369370D01*
X160588078Y-68805244D01*
X160046096Y-69306588D01*
X159438582Y-69863916D01*
X158775719Y-70467739D01*
X158067686Y-71108570D01*
X157677121Y-71460398D01*
X157377031Y-71731630D01*
X156999468Y-72074862D01*
X156591648Y-72447076D01*
X156200791Y-72805254D01*
X156182097Y-72822430D01*
X155831980Y-73143610D01*
X155499946Y-73447196D01*
X155219054Y-73703031D01*
X155022361Y-73880956D01*
X154992800Y-73907427D01*
X154695475Y-74172746D01*
X156925408Y-74175228D01*
X157520673Y-74178203D01*
X158055772Y-74185317D01*
X158508556Y-74195912D01*
X158856873Y-74209331D01*
X159078576Y-74224919D01*
X159151739Y-74241210D01*
X159085855Y-74303389D01*
X158897516Y-74459734D01*
X158598661Y-74700811D01*
X158201227Y-75017185D01*
X157717153Y-75399423D01*
X157158375Y-75838090D01*
X156536832Y-76323754D01*
X155864461Y-76846980D01*
X155322427Y-77267344D01*
X154609627Y-77819706D01*
X153930572Y-78346631D01*
X153298310Y-78837945D01*
X152725887Y-79283477D01*
X152226350Y-79673056D01*
X151812746Y-79996510D01*
X151498122Y-80243667D01*
X151295524Y-80404356D01*
X151227200Y-80460069D01*
X150957683Y-80690161D01*
X152847816Y-80693602D01*
X153492666Y-80696956D01*
X153983846Y-80704996D01*
X154337548Y-80718659D01*
X154569959Y-80738881D01*
X154697271Y-80766600D01*
X154735672Y-80802754D01*
X154735669Y-80802877D01*
X154662996Y-80858203D01*
X154455098Y-80985776D01*
X154126081Y-81177897D01*
X153690050Y-81426866D01*
X153161113Y-81724985D01*
X152553375Y-82064555D01*
X151880943Y-82437876D01*
X151157921Y-82837250D01*
X150398418Y-83254978D01*
X149616537Y-83683361D01*
X148826387Y-84114699D01*
X148042072Y-84541294D01*
X147277699Y-84955447D01*
X146547374Y-85349459D01*
X145865202Y-85715631D01*
X145245291Y-86046263D01*
X144701746Y-86333657D01*
X144248673Y-86570114D01*
X143900178Y-86747935D01*
X143670368Y-86859421D01*
X143573348Y-86896873D01*
X143571455Y-86896214D01*
X143541315Y-86845803D01*
X143550240Y-86774104D01*
X143611007Y-86664632D01*
X143736392Y-86500900D01*
X143823584Y-86400076D01*
X144161696Y-86400076D01*
X144543970Y-86184655D01*
X144691858Y-86102905D01*
X144973358Y-85948830D01*
X145372801Y-85730956D01*
X145874517Y-85457806D01*
X146462834Y-85137905D01*
X147122082Y-84779776D01*
X147836591Y-84391945D01*
X148590690Y-83982935D01*
X148833937Y-83851068D01*
X149611228Y-83429767D01*
X150365272Y-83021124D01*
X151078651Y-82634575D01*
X151733945Y-82279556D01*
X152313735Y-81965503D01*
X152800602Y-81701852D01*
X153177126Y-81498040D01*
X153425888Y-81363502D01*
X153463703Y-81343078D01*
X154185776Y-80953256D01*
X152231930Y-80949668D01*
X150278084Y-80946079D01*
X150538828Y-80715728D01*
X150652858Y-80622091D01*
X150888150Y-80434664D01*
X151231802Y-80163547D01*
X151670909Y-79818840D01*
X152192568Y-79410644D01*
X152783877Y-78949057D01*
X153431931Y-78444181D01*
X154123828Y-77906116D01*
X154672977Y-77479710D01*
X158546383Y-74474043D01*
X156338286Y-74431710D01*
X154130188Y-74389377D01*
X156873340Y-71891710D01*
X157490535Y-71329828D01*
X158104410Y-70771116D01*
X158695857Y-70232956D01*
X159245769Y-69732728D01*
X159735038Y-69287812D01*
X160144554Y-68915589D01*
X160455211Y-68633441D01*
X160545423Y-68551590D01*
X160873072Y-68245932D01*
X161131607Y-67987827D01*
X161303717Y-67795816D01*
X161372091Y-67688442D01*
X161365689Y-67673036D01*
X161255315Y-67666478D01*
X161001757Y-67666694D01*
X160628954Y-67672820D01*
X160160842Y-67683995D01*
X159621359Y-67699355D01*
X159034444Y-67718037D01*
X158424034Y-67739178D01*
X157814068Y-67761915D01*
X157228482Y-67785384D01*
X156691214Y-67808723D01*
X156226203Y-67831068D01*
X155857386Y-67851557D01*
X155608702Y-67869326D01*
X155504087Y-67883513D01*
X155502698Y-67884426D01*
X155436389Y-67950177D01*
X155260006Y-68124838D01*
X154984050Y-68398016D01*
X154619019Y-68759321D01*
X154175414Y-69198361D01*
X153663734Y-69704743D01*
X153094479Y-70268078D01*
X152478148Y-70877973D01*
X151825241Y-71524037D01*
X151785944Y-71562922D01*
X151132465Y-72209967D01*
X150516153Y-72821046D01*
X149947359Y-73385839D01*
X149436434Y-73894028D01*
X148993728Y-74335294D01*
X148629595Y-74699321D01*
X148354383Y-74975788D01*
X148178446Y-75154377D01*
X148112133Y-75224771D01*
X148111863Y-75225365D01*
X148192850Y-75235453D01*
X148420083Y-75249141D01*
X148769975Y-75265393D01*
X149218936Y-75283169D01*
X149743378Y-75301432D01*
X150084393Y-75312189D01*
X150645526Y-75330744D01*
X151147854Y-75350262D01*
X151567175Y-75369564D01*
X151879285Y-75387471D01*
X152059982Y-75402804D01*
X152095127Y-75410141D01*
X152045769Y-75475988D01*
X151888040Y-75645205D01*
X151635941Y-75903696D01*
X151303473Y-76237365D01*
X150904640Y-76632116D01*
X150453441Y-77073853D01*
X150144262Y-77374131D01*
X149588411Y-77912719D01*
X149005285Y-78478423D01*
X148423791Y-79043151D01*
X147872835Y-79578813D01*
X147381324Y-80057318D01*
X146978164Y-80450576D01*
X146922992Y-80504487D01*
X145690793Y-81708931D01*
X146158017Y-81721362D01*
X146452700Y-81732283D01*
X146850907Y-81751131D01*
X147286631Y-81774666D01*
X147493669Y-81786918D01*
X148362096Y-81840043D01*
X148003001Y-82221043D01*
X147784485Y-82454226D01*
X147490671Y-82769703D01*
X147139368Y-83148173D01*
X146748382Y-83570335D01*
X146335523Y-84016888D01*
X145918598Y-84468529D01*
X145515416Y-84905959D01*
X145143784Y-85309876D01*
X144821510Y-85660979D01*
X144566403Y-85939967D01*
X144396269Y-86127539D01*
X144337031Y-86194393D01*
X144161696Y-86400076D01*
X143823584Y-86400076D01*
X143939170Y-86266420D01*
X144232117Y-85944708D01*
X144628010Y-85519275D01*
X144688865Y-85454251D01*
X145137439Y-84975106D01*
X145633216Y-84445476D01*
X146131907Y-83912681D01*
X146589222Y-83424036D01*
X146855086Y-83139922D01*
X147182122Y-82787600D01*
X147464451Y-82478080D01*
X147683259Y-82232426D01*
X147819735Y-82071701D01*
X147857014Y-82018088D01*
X147776767Y-82000778D01*
X147554837Y-81985554D01*
X147219435Y-81973529D01*
X146798774Y-81965817D01*
X146476579Y-81963601D01*
X145096144Y-81960158D01*
X146242967Y-80848964D01*
X146595161Y-80507862D01*
X147043302Y-80074073D01*
X147561355Y-79572781D01*
X148123289Y-79029172D01*
X148703072Y-78468431D01*
X149274670Y-77915744D01*
X149496611Y-77701189D01*
X150072520Y-77142489D01*
X150534357Y-76689385D01*
X150891820Y-76331471D01*
X151154606Y-76058340D01*
X151332414Y-75859584D01*
X151434941Y-75724796D01*
X151471885Y-75643570D01*
X151452943Y-75605498D01*
X151450457Y-75604443D01*
X151308345Y-75579569D01*
X151036063Y-75556837D01*
X150673339Y-75538824D01*
X150278084Y-75528383D01*
X149768449Y-75516598D01*
X149216488Y-75497652D01*
X148702496Y-75474563D01*
X148429416Y-75458932D01*
X147600146Y-75405377D01*
X151530085Y-71498668D01*
X155460024Y-67591959D01*
X157541295Y-67539503D01*
X158205057Y-67521686D01*
X158890815Y-67501360D01*
X159554780Y-67479959D01*
X160153160Y-67458916D01*
X160642165Y-67439666D01*
X160790626Y-67433100D01*
X161313429Y-67414249D01*
X161676347Y-67413841D01*
X161888414Y-67432163D01*
G37*
%TO.C,R2*%
D13*
X149935391Y-99635391D02*
X150423295Y-100123295D01*
X157444865Y-107144865D02*
X156956961Y-106656961D01*
X158173185Y-105440738D02*
X155740738Y-107873185D01*
X149207071Y-101339518D01*
X151639518Y-98907071D01*
X158173185Y-105440738D01*
%TO.C,J9*%
D10*
X170000000Y-77605000D02*
X177500000Y-77605000D01*
X177500000Y-87605000D01*
X170000000Y-87605000D01*
X170000000Y-77605000D01*
%TO.C,J4*%
X156378333Y-120539488D02*
X156878333Y-121405513D01*
X156378333Y-120539488D02*
X157378333Y-120539488D01*
X156878333Y-121405513D02*
X157378333Y-120539488D01*
X154378333Y-121572500D02*
X164378333Y-121572500D01*
X164378333Y-129072500D01*
X154378333Y-129072500D01*
X154378333Y-121572500D01*
%TO.C,J2*%
X128135000Y-50500000D02*
X138135000Y-50500000D01*
X138135000Y-58000000D01*
X128135000Y-58000000D01*
X128135000Y-50500000D01*
%TO.C,J5*%
X170000000Y-91795000D02*
X177500000Y-91795000D01*
X177500000Y-101795000D01*
X170000000Y-101795000D01*
X170000000Y-91795000D01*
%TO.C,J10*%
X167500000Y-50500000D02*
X177500000Y-50500000D01*
X177500000Y-58000000D01*
X167500000Y-58000000D01*
X167500000Y-50500000D01*
%TO.C,J13*%
X130135000Y-120539488D02*
X130635000Y-121405513D01*
X130135000Y-120539488D02*
X131135000Y-120539488D01*
X130635000Y-121405513D02*
X131135000Y-120539488D01*
X128135000Y-121572500D02*
X138135000Y-121572500D01*
X138135000Y-129072500D01*
X128135000Y-129072500D01*
X128135000Y-121572500D01*
%TO.C,J1*%
D13*
X128500000Y-87890000D02*
X128500000Y-89700000D01*
X128500000Y-91510000D02*
X128500000Y-89700000D01*
X129900000Y-63790000D02*
X129900000Y-87890000D01*
X129900000Y-87890000D02*
X128500000Y-87890000D01*
X129900000Y-91510000D02*
X128500000Y-91510000D01*
X129900000Y-115610000D02*
X129900000Y-91510000D01*
X139720000Y-63790000D02*
X129900000Y-63790000D01*
X139720000Y-89700000D02*
X139720000Y-63790000D01*
X139720000Y-89700000D02*
X139720000Y-115610000D01*
X139720000Y-115610000D02*
X129900000Y-115610000D01*
X139960000Y-63550000D02*
X137110000Y-63550000D01*
X139960000Y-66400000D02*
X139960000Y-63550000D01*
%TO.C,J8*%
D10*
X170000000Y-105985000D02*
X177500000Y-105985000D01*
X177500000Y-115985000D01*
X170000000Y-115985000D01*
X170000000Y-105985000D01*
%TO.C,R1*%
D13*
X146235391Y-104735391D02*
X146723295Y-105223295D01*
X153744865Y-112244865D02*
X153256961Y-111756961D01*
X154473185Y-110540738D02*
X152040738Y-112973185D01*
X145507071Y-106439518D01*
X147939518Y-104007071D01*
X154473185Y-110540738D01*
%TO.C,J7*%
D10*
X169500000Y-120539488D02*
X170000000Y-121405513D01*
X169500000Y-120539488D02*
X170500000Y-120539488D01*
X170000000Y-121405513D02*
X170500000Y-120539488D01*
X167500000Y-121572500D02*
X177500000Y-121572500D01*
X177500000Y-129072500D01*
X167500000Y-129072500D01*
X167500000Y-121572500D01*
%TO.C,J3*%
X170000000Y-63415000D02*
X177500000Y-63415000D01*
X177500000Y-73415000D01*
X170000000Y-73415000D01*
X170000000Y-63415000D01*
%TO.C,J12*%
X143256667Y-120539488D02*
X143756667Y-121405513D01*
X143256667Y-120539488D02*
X144256667Y-120539488D01*
X143756667Y-121405513D02*
X144256667Y-120539488D01*
X141256667Y-121572500D02*
X151256667Y-121572500D01*
X151256667Y-129072500D01*
X141256667Y-129072500D01*
X141256667Y-121572500D01*
%TO.C,J6*%
X141256667Y-50500000D02*
X151256667Y-50500000D01*
X151256667Y-58000000D01*
X141256667Y-58000000D01*
X141256667Y-50500000D01*
%TO.C,J11*%
X154378333Y-50500000D02*
X164378333Y-50500000D01*
X164378333Y-58000000D01*
X154378333Y-58000000D01*
X154378333Y-50500000D01*
%TD*%
M02*
