M48
; DRILL file KiCad 10.0.1 date 2026-05-14T13:20:10
; FORMAT={-:-/ absolute / metric / decimal}
; #@! TF.CreationDate,2026-05-14T13:20:10-04:00
; #@! TF.GenerationSoftware,Kicad,Pcbnew,10.0.1
; #@! TF.FileFunction,MixedPlating,1,4
FMAT,2
METRIC
; #@! TA.AperFunction,Plated,PTH,ComponentDrill
T1C0.800
; #@! TA.AperFunction,Plated,PTH,ComponentDrill
T2C1.300
; #@! TA.AperFunction,Plated,PTH,ComponentDrill
T3C1.600
; #@! TA.AperFunction,NonPlated,NPTH,ComponentDrill
T4C3.200
%
G90
G05
T1
X145.5Y-104.0
X149.2Y-98.9
X154.48Y-112.98
X158.18Y-107.88
T2
X130.635Y-54.3
X130.635Y-125.272
X135.635Y-54.3
X135.635Y-125.272
X143.757Y-54.3
X143.757Y-125.272
X148.757Y-54.3
X148.757Y-125.272
X156.878Y-54.3
X156.878Y-125.272
X161.878Y-54.3
X161.878Y-125.272
X170.0Y-54.3
X170.0Y-125.272
X173.7Y-65.915
X173.7Y-70.915
X173.7Y-80.105
X173.7Y-85.105
X173.7Y-94.295
X173.7Y-99.295
X173.7Y-108.485
X173.7Y-113.485
X175.0Y-54.3
X175.0Y-125.272
T3
X132.7Y-66.6
X132.7Y-70.8
X132.7Y-75.0
X132.7Y-79.2
X132.7Y-83.4
X132.7Y-87.6
X132.7Y-91.8
X132.7Y-96.0
X132.7Y-100.2
X132.7Y-104.4
X132.7Y-108.6
X132.7Y-112.8
X136.9Y-66.6
X136.9Y-70.8
X136.9Y-75.0
X136.9Y-79.2
X136.9Y-83.4
X136.9Y-87.6
X136.9Y-91.8
X136.9Y-96.0
X136.9Y-100.2
X136.9Y-104.4
X136.9Y-108.6
X136.9Y-112.8
T4
X126.7Y-44.7
X126.7Y-134.8
X178.8Y-44.7
X178.8Y-134.8
M30
