%TF.GenerationSoftware,KiCad,Pcbnew,10.0.1*%
%TF.CreationDate,2026-05-14T13:20:08-04:00*%
%TF.ProjectId,Bench_Power_Supply,42656e63-685f-4506-9f77-65725f537570,rev?*%
%TF.SameCoordinates,Original*%
%TF.FileFunction,Copper,L3,Inr*%
%TF.FilePolarity,Positive*%
%FSLAX46Y46*%
G04 Gerber Fmt 4.6, Leading zero omitted, Abs format (unit mm)*
G04 Created by KiCad (PCBNEW 10.0.1) date 2026-05-14 13:20:08*
%MOMM*%
%LPD*%
G01*
G04 APERTURE LIST*
%TA.AperFunction,ComponentPad*%
%ADD10C,1.600000*%
%TD*%
%TA.AperFunction,ComponentPad*%
%ADD11R,2.600000X2.600000*%
%TD*%
%TA.AperFunction,ComponentPad*%
%ADD12C,2.600000*%
%TD*%
%TA.AperFunction,ComponentPad*%
%ADD13O,3.500000X2.900000*%
%TD*%
G04 APERTURE END LIST*
D10*
%TO.N,/PWR_OK*%
%TO.C,R2*%
X149200000Y-98900000D03*
%TO.N,Net-(J7-Pin_1)*%
X158180256Y-107880256D03*
%TD*%
D11*
%TO.N,GND*%
%TO.C,J9*%
X173700000Y-85105000D03*
D12*
X173700000Y-80105000D03*
%TD*%
D11*
%TO.N,Net-(J4-Pin_1)*%
%TO.C,J4*%
X156878333Y-125272500D03*
D12*
%TO.N,GND*%
X161878333Y-125272500D03*
%TD*%
D11*
%TO.N,/+12V*%
%TO.C,J2*%
X135635000Y-54300000D03*
D12*
X130635000Y-54300000D03*
%TD*%
D11*
%TO.N,/+3.3V*%
%TO.C,J5*%
X173700000Y-99295000D03*
D12*
X173700000Y-94295000D03*
%TD*%
D11*
%TO.N,GND*%
%TO.C,J10*%
X175000000Y-54300000D03*
D12*
X170000000Y-54300000D03*
%TD*%
D11*
%TO.N,/+5V*%
%TO.C,J13*%
X130635000Y-125272500D03*
D12*
%TO.N,GND*%
X135635000Y-125272500D03*
%TD*%
D13*
%TO.N,/+3.3V*%
%TO.C,J1*%
X136900000Y-66600000D03*
X136900000Y-70800000D03*
%TO.N,GND*%
X136900000Y-75000000D03*
%TO.N,/+5V*%
X136900000Y-79200000D03*
%TO.N,GND*%
X136900000Y-83400000D03*
%TO.N,/+5V*%
X136900000Y-87600000D03*
%TO.N,GND*%
X136900000Y-91800000D03*
%TO.N,/PWR_OK*%
X136900000Y-96000000D03*
%TO.N,/+5VSB*%
X136900000Y-100200000D03*
%TO.N,/+12V*%
X136900000Y-104400000D03*
X136900000Y-108600000D03*
%TO.N,/+3.3V*%
X136900000Y-112800000D03*
X132700000Y-66600000D03*
%TO.N,unconnected-(J1--12V-Pad14)*%
X132700000Y-70800000D03*
%TO.N,GND*%
X132700000Y-75000000D03*
%TO.N,/PS_ON*%
X132700000Y-79200000D03*
%TO.N,GND*%
X132700000Y-83400000D03*
X132700000Y-87600000D03*
X132700000Y-91800000D03*
%TO.N,unconnected-(J1-NC-Pad20)*%
X132700000Y-96000000D03*
%TO.N,/+5V*%
X132700000Y-100200000D03*
X132700000Y-104400000D03*
X132700000Y-108600000D03*
%TO.N,GND*%
X132700000Y-112800000D03*
%TD*%
D11*
%TO.N,GND*%
%TO.C,J8*%
X173700000Y-113485000D03*
D12*
X173700000Y-108485000D03*
%TD*%
D10*
%TO.N,/+5VSB*%
%TO.C,R1*%
X145500000Y-104000000D03*
%TO.N,Net-(J4-Pin_1)*%
X154480256Y-112980256D03*
%TD*%
D11*
%TO.N,Net-(J7-Pin_1)*%
%TO.C,J7*%
X170000000Y-125272500D03*
D12*
%TO.N,GND*%
X175000000Y-125272500D03*
%TD*%
D11*
%TO.N,/+5V*%
%TO.C,J3*%
X173700000Y-70915000D03*
D12*
X173700000Y-65915000D03*
%TD*%
D11*
%TO.N,/PS_ON*%
%TO.C,J12*%
X143756667Y-125272500D03*
D12*
%TO.N,GND*%
X148756667Y-125272500D03*
%TD*%
D11*
%TO.N,/+12V*%
%TO.C,J6*%
X148756667Y-54300000D03*
D12*
X143756667Y-54300000D03*
%TD*%
D11*
%TO.N,GND*%
%TO.C,J11*%
X161878333Y-54300000D03*
D12*
X156878333Y-54300000D03*
%TD*%
%TA.AperFunction,Conductor*%
%TO.N,/+12V*%
G36*
X182192539Y-41220185D02*
G01*
X182238294Y-41272989D01*
X182249500Y-41324500D01*
X182249500Y-138075500D01*
X182229815Y-138142539D01*
X182177011Y-138188294D01*
X182125500Y-138199500D01*
X123374500Y-138199500D01*
X123307461Y-138179815D01*
X123261706Y-138127011D01*
X123250500Y-138075500D01*
X123250500Y-134678711D01*
X124849500Y-134678711D01*
X124849500Y-134921288D01*
X124881161Y-135161785D01*
X124943947Y-135396104D01*
X125036773Y-135620205D01*
X125036776Y-135620212D01*
X125158064Y-135830289D01*
X125158066Y-135830292D01*
X125158067Y-135830293D01*
X125305733Y-136022736D01*
X125305739Y-136022743D01*
X125477256Y-136194260D01*
X125477262Y-136194265D01*
X125669711Y-136341936D01*
X125879788Y-136463224D01*
X126103900Y-136556054D01*
X126338211Y-136618838D01*
X126518586Y-136642584D01*
X126578711Y-136650500D01*
X126578712Y-136650500D01*
X126821289Y-136650500D01*
X126869388Y-136644167D01*
X127061789Y-136618838D01*
X127296100Y-136556054D01*
X127520212Y-136463224D01*
X127730289Y-136341936D01*
X127922738Y-136194265D01*
X128094265Y-136022738D01*
X128241936Y-135830289D01*
X128363224Y-135620212D01*
X128456054Y-135396100D01*
X128518838Y-135161789D01*
X128550500Y-134921288D01*
X128550500Y-134678712D01*
X128550500Y-134678711D01*
X176949500Y-134678711D01*
X176949500Y-134921288D01*
X176981161Y-135161785D01*
X177043947Y-135396104D01*
X177136773Y-135620205D01*
X177136776Y-135620212D01*
X177258064Y-135830289D01*
X177258066Y-135830292D01*
X177258067Y-135830293D01*
X177405733Y-136022736D01*
X177405739Y-136022743D01*
X177577256Y-136194260D01*
X177577262Y-136194265D01*
X177769711Y-136341936D01*
X177979788Y-136463224D01*
X178203900Y-136556054D01*
X178438211Y-136618838D01*
X178618586Y-136642584D01*
X178678711Y-136650500D01*
X178678712Y-136650500D01*
X178921289Y-136650500D01*
X178969388Y-136644167D01*
X179161789Y-136618838D01*
X179396100Y-136556054D01*
X179620212Y-136463224D01*
X179830289Y-136341936D01*
X180022738Y-136194265D01*
X180194265Y-136022738D01*
X180341936Y-135830289D01*
X180463224Y-135620212D01*
X180556054Y-135396100D01*
X180618838Y-135161789D01*
X180650500Y-134921288D01*
X180650500Y-134678712D01*
X180618838Y-134438211D01*
X180556054Y-134203900D01*
X180463224Y-133979788D01*
X180341936Y-133769711D01*
X180194265Y-133577262D01*
X180194260Y-133577256D01*
X180022743Y-133405739D01*
X180022736Y-133405733D01*
X179830293Y-133258067D01*
X179830292Y-133258066D01*
X179830289Y-133258064D01*
X179620212Y-133136776D01*
X179620205Y-133136773D01*
X179396104Y-133043947D01*
X179161785Y-132981161D01*
X178921289Y-132949500D01*
X178921288Y-132949500D01*
X178678712Y-132949500D01*
X178678711Y-132949500D01*
X178438214Y-132981161D01*
X178203895Y-133043947D01*
X177979794Y-133136773D01*
X177979785Y-133136777D01*
X177769706Y-133258067D01*
X177577263Y-133405733D01*
X177577256Y-133405739D01*
X177405739Y-133577256D01*
X177405733Y-133577263D01*
X177258067Y-133769706D01*
X177136777Y-133979785D01*
X177136773Y-133979794D01*
X177043947Y-134203895D01*
X176981161Y-134438214D01*
X176949500Y-134678711D01*
X128550500Y-134678711D01*
X128518838Y-134438211D01*
X128456054Y-134203900D01*
X128363224Y-133979788D01*
X128241936Y-133769711D01*
X128094265Y-133577262D01*
X128094260Y-133577256D01*
X127922743Y-133405739D01*
X127922736Y-133405733D01*
X127730293Y-133258067D01*
X127730292Y-133258066D01*
X127730289Y-133258064D01*
X127520212Y-133136776D01*
X127520205Y-133136773D01*
X127296104Y-133043947D01*
X127061785Y-132981161D01*
X126821289Y-132949500D01*
X126821288Y-132949500D01*
X126578712Y-132949500D01*
X126578711Y-132949500D01*
X126338214Y-132981161D01*
X126103895Y-133043947D01*
X125879794Y-133136773D01*
X125879785Y-133136777D01*
X125669706Y-133258067D01*
X125477263Y-133405733D01*
X125477256Y-133405739D01*
X125305739Y-133577256D01*
X125305733Y-133577263D01*
X125158067Y-133769706D01*
X125036777Y-133979785D01*
X125036773Y-133979794D01*
X124943947Y-134203895D01*
X124881161Y-134438214D01*
X124849500Y-134678711D01*
X123250500Y-134678711D01*
X123250500Y-123924635D01*
X128834500Y-123924635D01*
X128834500Y-126620370D01*
X128834501Y-126620376D01*
X128840908Y-126679983D01*
X128891202Y-126814828D01*
X128891206Y-126814835D01*
X128977452Y-126930044D01*
X128977455Y-126930047D01*
X129092664Y-127016293D01*
X129092671Y-127016297D01*
X129227517Y-127066591D01*
X129227516Y-127066591D01*
X129234444Y-127067335D01*
X129287127Y-127073000D01*
X131982872Y-127072999D01*
X132042483Y-127066591D01*
X132177331Y-127016296D01*
X132292546Y-126930046D01*
X132378796Y-126814831D01*
X132429091Y-126679983D01*
X132435500Y-126620373D01*
X132435499Y-125154495D01*
X133834500Y-125154495D01*
X133834500Y-125390504D01*
X133834501Y-125390520D01*
X133865306Y-125624510D01*
X133926394Y-125852493D01*
X134016714Y-126070545D01*
X134016719Y-126070556D01*
X134087677Y-126193457D01*
X134134727Y-126274950D01*
X134134729Y-126274953D01*
X134134730Y-126274954D01*
X134278406Y-126462197D01*
X134278412Y-126462204D01*
X134445295Y-126629087D01*
X134445302Y-126629093D01*
X134555306Y-126713501D01*
X134632550Y-126772773D01*
X134705397Y-126814831D01*
X134836943Y-126890780D01*
X134836948Y-126890782D01*
X134836951Y-126890784D01*
X135055007Y-126981106D01*
X135282986Y-127042193D01*
X135516989Y-127073000D01*
X135516996Y-127073000D01*
X135753004Y-127073000D01*
X135753011Y-127073000D01*
X135987014Y-127042193D01*
X136214993Y-126981106D01*
X136433049Y-126890784D01*
X136637450Y-126772773D01*
X136824699Y-126629092D01*
X136991592Y-126462199D01*
X137135273Y-126274950D01*
X137253284Y-126070549D01*
X137343606Y-125852493D01*
X137404693Y-125624514D01*
X137435500Y-125390511D01*
X137435500Y-125154489D01*
X137404693Y-124920486D01*
X137343606Y-124692507D01*
X137253284Y-124474451D01*
X137253282Y-124474448D01*
X137253280Y-124474443D01*
X137211118Y-124401418D01*
X137135273Y-124270050D01*
X136991592Y-124082801D01*
X136991587Y-124082795D01*
X136833427Y-123924635D01*
X141956167Y-123924635D01*
X141956167Y-126620370D01*
X141956168Y-126620376D01*
X141962575Y-126679983D01*
X142012869Y-126814828D01*
X142012873Y-126814835D01*
X142099119Y-126930044D01*
X142099122Y-126930047D01*
X142214331Y-127016293D01*
X142214338Y-127016297D01*
X142349184Y-127066591D01*
X142349183Y-127066591D01*
X142356111Y-127067335D01*
X142408794Y-127073000D01*
X145104539Y-127072999D01*
X145164150Y-127066591D01*
X145298998Y-127016296D01*
X145414213Y-126930046D01*
X145500463Y-126814831D01*
X145550758Y-126679983D01*
X145557167Y-126620373D01*
X145557166Y-125154495D01*
X146956167Y-125154495D01*
X146956167Y-125390504D01*
X146956168Y-125390520D01*
X146986973Y-125624510D01*
X147048061Y-125852493D01*
X147138381Y-126070545D01*
X147138386Y-126070556D01*
X147209344Y-126193457D01*
X147256394Y-126274950D01*
X147256396Y-126274953D01*
X147256397Y-126274954D01*
X147400073Y-126462197D01*
X147400079Y-126462204D01*
X147566962Y-126629087D01*
X147566969Y-126629093D01*
X147676973Y-126713501D01*
X147754217Y-126772773D01*
X147827064Y-126814831D01*
X147958610Y-126890780D01*
X147958615Y-126890782D01*
X147958618Y-126890784D01*
X148176674Y-126981106D01*
X148404653Y-127042193D01*
X148638656Y-127073000D01*
X148638663Y-127073000D01*
X148874671Y-127073000D01*
X148874678Y-127073000D01*
X149108681Y-127042193D01*
X149336660Y-126981106D01*
X149554716Y-126890784D01*
X149759117Y-126772773D01*
X149946366Y-126629092D01*
X150113259Y-126462199D01*
X150256940Y-126274950D01*
X150374951Y-126070549D01*
X150465273Y-125852493D01*
X150526360Y-125624514D01*
X150557167Y-125390511D01*
X150557167Y-125154489D01*
X150526360Y-124920486D01*
X150465273Y-124692507D01*
X150374951Y-124474451D01*
X150374949Y-124474448D01*
X150374947Y-124474443D01*
X150332785Y-124401418D01*
X150256940Y-124270050D01*
X150113259Y-124082801D01*
X150113254Y-124082795D01*
X149955094Y-123924635D01*
X155077833Y-123924635D01*
X155077833Y-126620370D01*
X155077834Y-126620376D01*
X155084241Y-126679983D01*
X155134535Y-126814828D01*
X155134539Y-126814835D01*
X155220785Y-126930044D01*
X155220788Y-126930047D01*
X155335997Y-127016293D01*
X155336004Y-127016297D01*
X155470850Y-127066591D01*
X155470849Y-127066591D01*
X155477777Y-127067335D01*
X155530460Y-127073000D01*
X158226205Y-127072999D01*
X158285816Y-127066591D01*
X158420664Y-127016296D01*
X158535879Y-126930046D01*
X158622129Y-126814831D01*
X158672424Y-126679983D01*
X158678833Y-126620373D01*
X158678832Y-125154495D01*
X160077833Y-125154495D01*
X160077833Y-125390504D01*
X160077834Y-125390520D01*
X160108639Y-125624510D01*
X160169727Y-125852493D01*
X160260047Y-126070545D01*
X160260052Y-126070556D01*
X160331010Y-126193457D01*
X160378060Y-126274950D01*
X160378062Y-126274953D01*
X160378063Y-126274954D01*
X160521739Y-126462197D01*
X160521745Y-126462204D01*
X160688628Y-126629087D01*
X160688635Y-126629093D01*
X160798639Y-126713501D01*
X160875883Y-126772773D01*
X160948730Y-126814831D01*
X161080276Y-126890780D01*
X161080281Y-126890782D01*
X161080284Y-126890784D01*
X161298340Y-126981106D01*
X161526319Y-127042193D01*
X161760322Y-127073000D01*
X161760329Y-127073000D01*
X161996337Y-127073000D01*
X161996344Y-127073000D01*
X162230347Y-127042193D01*
X162458326Y-126981106D01*
X162676382Y-126890784D01*
X162880783Y-126772773D01*
X163068032Y-126629092D01*
X163234925Y-126462199D01*
X163378606Y-126274950D01*
X163496617Y-126070549D01*
X163586939Y-125852493D01*
X163648026Y-125624514D01*
X163678833Y-125390511D01*
X163678833Y-125154489D01*
X163648026Y-124920486D01*
X163586939Y-124692507D01*
X163496617Y-124474451D01*
X163496615Y-124474448D01*
X163496613Y-124474443D01*
X163454451Y-124401418D01*
X163378606Y-124270050D01*
X163234925Y-124082801D01*
X163234920Y-124082795D01*
X163076760Y-123924635D01*
X168199500Y-123924635D01*
X168199500Y-126620370D01*
X168199501Y-126620376D01*
X168205908Y-126679983D01*
X168256202Y-126814828D01*
X168256206Y-126814835D01*
X168342452Y-126930044D01*
X168342455Y-126930047D01*
X168457664Y-127016293D01*
X168457671Y-127016297D01*
X168592517Y-127066591D01*
X168592516Y-127066591D01*
X168599444Y-127067335D01*
X168652127Y-127073000D01*
X171347872Y-127072999D01*
X171407483Y-127066591D01*
X171542331Y-127016296D01*
X171657546Y-126930046D01*
X171743796Y-126814831D01*
X171794091Y-126679983D01*
X171800500Y-126620373D01*
X171800499Y-125154495D01*
X173199500Y-125154495D01*
X173199500Y-125390504D01*
X173199501Y-125390520D01*
X173230306Y-125624510D01*
X173291394Y-125852493D01*
X173381714Y-126070545D01*
X173381719Y-126070556D01*
X173452677Y-126193457D01*
X173499727Y-126274950D01*
X173499729Y-126274953D01*
X173499730Y-126274954D01*
X173643406Y-126462197D01*
X173643412Y-126462204D01*
X173810295Y-126629087D01*
X173810302Y-126629093D01*
X173920306Y-126713501D01*
X173997550Y-126772773D01*
X174070397Y-126814831D01*
X174201943Y-126890780D01*
X174201948Y-126890782D01*
X174201951Y-126890784D01*
X174420007Y-126981106D01*
X174647986Y-127042193D01*
X174881989Y-127073000D01*
X174881996Y-127073000D01*
X175118004Y-127073000D01*
X175118011Y-127073000D01*
X175352014Y-127042193D01*
X175579993Y-126981106D01*
X175798049Y-126890784D01*
X176002450Y-126772773D01*
X176189699Y-126629092D01*
X176356592Y-126462199D01*
X176500273Y-126274950D01*
X176618284Y-126070549D01*
X176708606Y-125852493D01*
X176769693Y-125624514D01*
X176800500Y-125390511D01*
X176800500Y-125154489D01*
X176769693Y-124920486D01*
X176708606Y-124692507D01*
X176618284Y-124474451D01*
X176618282Y-124474448D01*
X176618280Y-124474443D01*
X176576118Y-124401418D01*
X176500273Y-124270050D01*
X176356592Y-124082801D01*
X176356587Y-124082795D01*
X176189704Y-123915912D01*
X176189697Y-123915906D01*
X176002454Y-123772230D01*
X176002453Y-123772229D01*
X176002450Y-123772227D01*
X175920957Y-123725177D01*
X175798056Y-123654219D01*
X175798045Y-123654214D01*
X175579993Y-123563894D01*
X175448670Y-123528706D01*
X175352014Y-123502807D01*
X175352013Y-123502806D01*
X175352010Y-123502806D01*
X175118020Y-123472001D01*
X175118017Y-123472000D01*
X175118011Y-123472000D01*
X174881989Y-123472000D01*
X174881983Y-123472000D01*
X174881979Y-123472001D01*
X174647989Y-123502806D01*
X174420006Y-123563894D01*
X174201954Y-123654214D01*
X174201943Y-123654219D01*
X173997545Y-123772230D01*
X173810302Y-123915906D01*
X173810295Y-123915912D01*
X173643412Y-124082795D01*
X173643406Y-124082802D01*
X173499730Y-124270045D01*
X173381719Y-124474443D01*
X173381714Y-124474454D01*
X173291394Y-124692506D01*
X173230306Y-124920489D01*
X173199501Y-125154479D01*
X173199500Y-125154495D01*
X171800499Y-125154495D01*
X171800499Y-123924628D01*
X171794091Y-123865017D01*
X171743796Y-123730169D01*
X171743795Y-123730168D01*
X171743793Y-123730164D01*
X171657547Y-123614955D01*
X171657544Y-123614952D01*
X171542335Y-123528706D01*
X171542328Y-123528702D01*
X171407482Y-123478408D01*
X171407483Y-123478408D01*
X171347883Y-123472001D01*
X171347881Y-123472000D01*
X171347873Y-123472000D01*
X171347864Y-123472000D01*
X168652129Y-123472000D01*
X168652123Y-123472001D01*
X168592516Y-123478408D01*
X168457671Y-123528702D01*
X168457664Y-123528706D01*
X168342455Y-123614952D01*
X168342452Y-123614955D01*
X168256206Y-123730164D01*
X168256202Y-123730171D01*
X168205908Y-123865017D01*
X168200437Y-123915908D01*
X168199501Y-123924623D01*
X168199500Y-123924635D01*
X163076760Y-123924635D01*
X163068037Y-123915912D01*
X163068030Y-123915906D01*
X162880787Y-123772230D01*
X162880786Y-123772229D01*
X162880783Y-123772227D01*
X162799290Y-123725177D01*
X162676389Y-123654219D01*
X162676378Y-123654214D01*
X162458326Y-123563894D01*
X162327003Y-123528706D01*
X162230347Y-123502807D01*
X162230346Y-123502806D01*
X162230343Y-123502806D01*
X161996353Y-123472001D01*
X161996350Y-123472000D01*
X161996344Y-123472000D01*
X161760322Y-123472000D01*
X161760316Y-123472000D01*
X161760312Y-123472001D01*
X161526322Y-123502806D01*
X161298339Y-123563894D01*
X161080287Y-123654214D01*
X161080276Y-123654219D01*
X160875878Y-123772230D01*
X160688635Y-123915906D01*
X160688628Y-123915912D01*
X160521745Y-124082795D01*
X160521739Y-124082802D01*
X160378063Y-124270045D01*
X160260052Y-124474443D01*
X160260047Y-124474454D01*
X160169727Y-124692506D01*
X160108639Y-124920489D01*
X160077834Y-125154479D01*
X160077833Y-125154495D01*
X158678832Y-125154495D01*
X158678832Y-123924628D01*
X158672424Y-123865017D01*
X158622129Y-123730169D01*
X158622128Y-123730168D01*
X158622126Y-123730164D01*
X158535880Y-123614955D01*
X158535877Y-123614952D01*
X158420668Y-123528706D01*
X158420661Y-123528702D01*
X158285815Y-123478408D01*
X158285816Y-123478408D01*
X158226216Y-123472001D01*
X158226214Y-123472000D01*
X158226206Y-123472000D01*
X158226197Y-123472000D01*
X155530462Y-123472000D01*
X155530456Y-123472001D01*
X155470849Y-123478408D01*
X155336004Y-123528702D01*
X155335997Y-123528706D01*
X155220788Y-123614952D01*
X155220785Y-123614955D01*
X155134539Y-123730164D01*
X155134535Y-123730171D01*
X155084241Y-123865017D01*
X155078770Y-123915908D01*
X155077834Y-123924623D01*
X155077833Y-123924635D01*
X149955094Y-123924635D01*
X149946371Y-123915912D01*
X149946364Y-123915906D01*
X149759121Y-123772230D01*
X149759120Y-123772229D01*
X149759117Y-123772227D01*
X149677624Y-123725177D01*
X149554723Y-123654219D01*
X149554712Y-123654214D01*
X149336660Y-123563894D01*
X149205337Y-123528706D01*
X149108681Y-123502807D01*
X149108680Y-123502806D01*
X149108677Y-123502806D01*
X148874687Y-123472001D01*
X148874684Y-123472000D01*
X148874678Y-123472000D01*
X148638656Y-123472000D01*
X148638650Y-123472000D01*
X148638646Y-123472001D01*
X148404656Y-123502806D01*
X148176673Y-123563894D01*
X147958621Y-123654214D01*
X147958610Y-123654219D01*
X147754212Y-123772230D01*
X147566969Y-123915906D01*
X147566962Y-123915912D01*
X147400079Y-124082795D01*
X147400073Y-124082802D01*
X147256397Y-124270045D01*
X147138386Y-124474443D01*
X147138381Y-124474454D01*
X147048061Y-124692506D01*
X146986973Y-124920489D01*
X146956168Y-125154479D01*
X146956167Y-125154495D01*
X145557166Y-125154495D01*
X145557166Y-123924628D01*
X145550758Y-123865017D01*
X145500463Y-123730169D01*
X145500462Y-123730168D01*
X145500460Y-123730164D01*
X145414214Y-123614955D01*
X145414211Y-123614952D01*
X145299002Y-123528706D01*
X145298995Y-123528702D01*
X145164149Y-123478408D01*
X145164150Y-123478408D01*
X145104550Y-123472001D01*
X145104548Y-123472000D01*
X145104540Y-123472000D01*
X145104531Y-123472000D01*
X142408796Y-123472000D01*
X142408790Y-123472001D01*
X142349183Y-123478408D01*
X142214338Y-123528702D01*
X142214331Y-123528706D01*
X142099122Y-123614952D01*
X142099119Y-123614955D01*
X142012873Y-123730164D01*
X142012869Y-123730171D01*
X141962575Y-123865017D01*
X141957104Y-123915908D01*
X141956168Y-123924623D01*
X141956167Y-123924635D01*
X136833427Y-123924635D01*
X136824704Y-123915912D01*
X136824697Y-123915906D01*
X136637454Y-123772230D01*
X136637453Y-123772229D01*
X136637450Y-123772227D01*
X136555957Y-123725177D01*
X136433056Y-123654219D01*
X136433045Y-123654214D01*
X136214993Y-123563894D01*
X136083670Y-123528706D01*
X135987014Y-123502807D01*
X135987013Y-123502806D01*
X135987010Y-123502806D01*
X135753020Y-123472001D01*
X135753017Y-123472000D01*
X135753011Y-123472000D01*
X135516989Y-123472000D01*
X135516983Y-123472000D01*
X135516979Y-123472001D01*
X135282989Y-123502806D01*
X135055006Y-123563894D01*
X134836954Y-123654214D01*
X134836943Y-123654219D01*
X134632545Y-123772230D01*
X134445302Y-123915906D01*
X134445295Y-123915912D01*
X134278412Y-124082795D01*
X134278406Y-124082802D01*
X134134730Y-124270045D01*
X134016719Y-124474443D01*
X134016714Y-124474454D01*
X133926394Y-124692506D01*
X133865306Y-124920489D01*
X133834501Y-125154479D01*
X133834500Y-125154495D01*
X132435499Y-125154495D01*
X132435499Y-123924628D01*
X132429091Y-123865017D01*
X132378796Y-123730169D01*
X132378795Y-123730168D01*
X132378793Y-123730164D01*
X132292547Y-123614955D01*
X132292544Y-123614952D01*
X132177335Y-123528706D01*
X132177328Y-123528702D01*
X132042482Y-123478408D01*
X132042483Y-123478408D01*
X131982883Y-123472001D01*
X131982881Y-123472000D01*
X131982873Y-123472000D01*
X131982864Y-123472000D01*
X129287129Y-123472000D01*
X129287123Y-123472001D01*
X129227516Y-123478408D01*
X129092671Y-123528702D01*
X129092664Y-123528706D01*
X128977455Y-123614952D01*
X128977452Y-123614955D01*
X128891206Y-123730164D01*
X128891202Y-123730171D01*
X128840908Y-123865017D01*
X128835437Y-123915908D01*
X128834501Y-123924623D01*
X128834500Y-123924635D01*
X123250500Y-123924635D01*
X123250500Y-112672149D01*
X130449500Y-112672149D01*
X130449500Y-112927850D01*
X130469875Y-113082607D01*
X130482874Y-113181340D01*
X130549050Y-113428312D01*
X130549053Y-113428322D01*
X130646894Y-113664531D01*
X130646899Y-113664542D01*
X130774734Y-113885957D01*
X130774745Y-113885973D01*
X130930388Y-114088811D01*
X130930394Y-114088818D01*
X131111181Y-114269605D01*
X131111188Y-114269611D01*
X131255638Y-114380452D01*
X131314035Y-114425261D01*
X131314042Y-114425265D01*
X131535457Y-114553100D01*
X131535462Y-114553102D01*
X131535465Y-114553104D01*
X131771687Y-114650950D01*
X132018660Y-114717126D01*
X132272157Y-114750500D01*
X132272164Y-114750500D01*
X133127836Y-114750500D01*
X133127843Y-114750500D01*
X133381340Y-114717126D01*
X133628313Y-114650950D01*
X133864535Y-114553104D01*
X134085965Y-114425261D01*
X134288813Y-114269610D01*
X134469610Y-114088813D01*
X134625261Y-113885965D01*
X134692613Y-113769307D01*
X134743180Y-113721092D01*
X134811787Y-113707869D01*
X134876652Y-113733837D01*
X134907386Y-113769307D01*
X134974739Y-113885965D01*
X134974744Y-113885971D01*
X134974745Y-113885973D01*
X135130388Y-114088811D01*
X135130394Y-114088818D01*
X135311181Y-114269605D01*
X135311188Y-114269611D01*
X135455638Y-114380452D01*
X135514035Y-114425261D01*
X135514042Y-114425265D01*
X135735457Y-114553100D01*
X135735462Y-114553102D01*
X135735465Y-114553104D01*
X135971687Y-114650950D01*
X136218660Y-114717126D01*
X136472157Y-114750500D01*
X136472164Y-114750500D01*
X137327836Y-114750500D01*
X137327843Y-114750500D01*
X137581340Y-114717126D01*
X137828313Y-114650950D01*
X138064535Y-114553104D01*
X138285965Y-114425261D01*
X138488813Y-114269610D01*
X138669610Y-114088813D01*
X138825261Y-113885965D01*
X138953104Y-113664535D01*
X139050950Y-113428313D01*
X139117126Y-113181340D01*
X139150500Y-112927843D01*
X139150500Y-112877904D01*
X153179756Y-112877904D01*
X153179756Y-113082607D01*
X153211778Y-113284790D01*
X153275037Y-113479479D01*
X153367971Y-113661869D01*
X153488284Y-113827469D01*
X153633042Y-113972227D01*
X153788005Y-114084812D01*
X153798646Y-114092543D01*
X153914863Y-114151759D01*
X153981032Y-114185474D01*
X153981034Y-114185474D01*
X153981037Y-114185476D01*
X154085393Y-114219383D01*
X154175721Y-114248733D01*
X154276813Y-114264744D01*
X154377904Y-114280756D01*
X154377905Y-114280756D01*
X154582607Y-114280756D01*
X154582608Y-114280756D01*
X154784790Y-114248733D01*
X154979475Y-114185476D01*
X155161866Y-114092543D01*
X155254846Y-114024988D01*
X155327469Y-113972227D01*
X155327471Y-113972224D01*
X155327475Y-113972222D01*
X155472222Y-113827475D01*
X155472224Y-113827471D01*
X155472227Y-113827469D01*
X155559120Y-113707869D01*
X155592543Y-113661866D01*
X155685476Y-113479475D01*
X155748733Y-113284790D01*
X155780756Y-113082608D01*
X155780756Y-112877904D01*
X155748733Y-112675722D01*
X155685476Y-112481037D01*
X155685474Y-112481034D01*
X155685474Y-112481032D01*
X155651759Y-112414863D01*
X155592543Y-112298646D01*
X155475199Y-112137135D01*
X171899500Y-112137135D01*
X171899500Y-114832870D01*
X171899501Y-114832876D01*
X171905908Y-114892483D01*
X171956202Y-115027328D01*
X171956206Y-115027335D01*
X172042452Y-115142544D01*
X172042455Y-115142547D01*
X172157664Y-115228793D01*
X172157671Y-115228797D01*
X172292517Y-115279091D01*
X172292516Y-115279091D01*
X172299444Y-115279835D01*
X172352127Y-115285500D01*
X175047872Y-115285499D01*
X175107483Y-115279091D01*
X175242331Y-115228796D01*
X175357546Y-115142546D01*
X175443796Y-115027331D01*
X175494091Y-114892483D01*
X175500500Y-114832873D01*
X175500499Y-112137128D01*
X175494091Y-112077517D01*
X175483336Y-112048682D01*
X175443797Y-111942671D01*
X175443793Y-111942664D01*
X175357547Y-111827455D01*
X175357544Y-111827452D01*
X175242335Y-111741206D01*
X175242328Y-111741202D01*
X175107482Y-111690908D01*
X175107483Y-111690908D01*
X175047883Y-111684501D01*
X175047881Y-111684500D01*
X175047873Y-111684500D01*
X175047864Y-111684500D01*
X172352129Y-111684500D01*
X172352123Y-111684501D01*
X172292516Y-111690908D01*
X172157671Y-111741202D01*
X172157664Y-111741206D01*
X172042455Y-111827452D01*
X172042452Y-111827455D01*
X171956206Y-111942664D01*
X171956202Y-111942671D01*
X171905908Y-112077517D01*
X171899939Y-112133042D01*
X171899501Y-112137123D01*
X171899500Y-112137135D01*
X155475199Y-112137135D01*
X155472222Y-112133037D01*
X155327475Y-111988290D01*
X155327469Y-111988284D01*
X155161869Y-111867971D01*
X155161868Y-111867970D01*
X155161866Y-111867969D01*
X155082347Y-111827452D01*
X154979479Y-111775037D01*
X154784790Y-111711778D01*
X154610251Y-111684134D01*
X154582608Y-111679756D01*
X154377904Y-111679756D01*
X154353585Y-111683607D01*
X154175721Y-111711778D01*
X153981032Y-111775037D01*
X153798642Y-111867971D01*
X153633042Y-111988284D01*
X153488284Y-112133042D01*
X153367971Y-112298642D01*
X153275037Y-112481032D01*
X153211778Y-112675721D01*
X153179756Y-112877904D01*
X139150500Y-112877904D01*
X139150500Y-112672157D01*
X139117126Y-112418660D01*
X139050950Y-112171687D01*
X138953104Y-111935465D01*
X138953102Y-111935462D01*
X138953100Y-111935457D01*
X138825265Y-111714042D01*
X138825261Y-111714035D01*
X138669610Y-111511187D01*
X138669605Y-111511181D01*
X138488818Y-111330394D01*
X138488811Y-111330388D01*
X138285973Y-111174745D01*
X138285971Y-111174743D01*
X138285965Y-111174739D01*
X138285960Y-111174736D01*
X138285957Y-111174734D01*
X138064542Y-111046899D01*
X138064531Y-111046894D01*
X137828322Y-110949053D01*
X137828315Y-110949051D01*
X137828313Y-110949050D01*
X137581340Y-110882874D01*
X137525007Y-110875457D01*
X137327850Y-110849500D01*
X137327843Y-110849500D01*
X136472157Y-110849500D01*
X136472149Y-110849500D01*
X136246826Y-110879165D01*
X136218660Y-110882874D01*
X135971687Y-110949050D01*
X135971677Y-110949053D01*
X135735468Y-111046894D01*
X135735457Y-111046899D01*
X135514042Y-111174734D01*
X135514026Y-111174745D01*
X135311188Y-111330388D01*
X135311181Y-111330394D01*
X135130394Y-111511181D01*
X135130388Y-111511188D01*
X134974745Y-111714026D01*
X134974734Y-111714042D01*
X134907387Y-111830691D01*
X134856820Y-111878907D01*
X134788213Y-111892129D01*
X134723348Y-111866161D01*
X134692613Y-111830691D01*
X134625265Y-111714042D01*
X134625261Y-111714035D01*
X134469610Y-111511187D01*
X134469605Y-111511181D01*
X134288818Y-111330394D01*
X134288811Y-111330388D01*
X134085973Y-111174745D01*
X134085971Y-111174743D01*
X134085965Y-111174739D01*
X134085960Y-111174736D01*
X134085957Y-111174734D01*
X133864542Y-111046899D01*
X133864531Y-111046894D01*
X133628322Y-110949053D01*
X133628315Y-110949051D01*
X133628313Y-110949050D01*
X133381340Y-110882874D01*
X133325007Y-110875457D01*
X133127850Y-110849500D01*
X133127843Y-110849500D01*
X132272157Y-110849500D01*
X132272149Y-110849500D01*
X132046826Y-110879165D01*
X132018660Y-110882874D01*
X131771687Y-110949050D01*
X131771677Y-110949053D01*
X131535468Y-111046894D01*
X131535457Y-111046899D01*
X131314042Y-111174734D01*
X131314026Y-111174745D01*
X131111188Y-111330388D01*
X131111181Y-111330394D01*
X130930394Y-111511181D01*
X130930388Y-111511188D01*
X130774745Y-111714026D01*
X130774734Y-111714042D01*
X130646899Y-111935457D01*
X130646894Y-111935468D01*
X130549053Y-112171677D01*
X130549050Y-112171687D01*
X130482874Y-112418661D01*
X130449500Y-112672149D01*
X123250500Y-112672149D01*
X123250500Y-108472149D01*
X130449500Y-108472149D01*
X130449500Y-108727850D01*
X130468508Y-108872222D01*
X130482874Y-108981340D01*
X130549050Y-109228312D01*
X130549053Y-109228322D01*
X130646894Y-109464531D01*
X130646899Y-109464542D01*
X130774734Y-109685957D01*
X130774745Y-109685973D01*
X130930388Y-109888811D01*
X130930394Y-109888818D01*
X131111181Y-110069605D01*
X131111188Y-110069611D01*
X131155072Y-110103284D01*
X131314035Y-110225261D01*
X131314042Y-110225265D01*
X131535457Y-110353100D01*
X131535462Y-110353102D01*
X131535465Y-110353104D01*
X131684426Y-110414805D01*
X131770542Y-110450476D01*
X131771687Y-110450950D01*
X132018660Y-110517126D01*
X132272157Y-110550500D01*
X132272164Y-110550500D01*
X133127836Y-110550500D01*
X133127843Y-110550500D01*
X133381340Y-110517126D01*
X133628313Y-110450950D01*
X133864535Y-110353104D01*
X134085965Y-110225261D01*
X134288813Y-110069610D01*
X134469610Y-109888813D01*
X134625261Y-109685965D01*
X134692902Y-109568806D01*
X134743468Y-109520593D01*
X134812074Y-109507369D01*
X134876939Y-109533337D01*
X134907675Y-109568808D01*
X134975154Y-109685685D01*
X135130765Y-109888481D01*
X135130771Y-109888488D01*
X135311511Y-110069228D01*
X135311518Y-110069234D01*
X135514314Y-110224845D01*
X135735683Y-110352652D01*
X135735693Y-110352657D01*
X135971849Y-110450476D01*
X136218755Y-110516633D01*
X136218768Y-110516636D01*
X136472180Y-110549998D01*
X136472197Y-110550000D01*
X136650000Y-110550000D01*
X136650000Y-109362360D01*
X136666649Y-109369257D01*
X136821207Y-109400000D01*
X136978793Y-109400000D01*
X137133351Y-109369257D01*
X137150000Y-109362360D01*
X137150000Y-110550000D01*
X137327803Y-110550000D01*
X137327819Y-110549998D01*
X137581231Y-110516636D01*
X137581244Y-110516633D01*
X137828150Y-110450476D01*
X138064306Y-110352657D01*
X138064316Y-110352652D01*
X138285685Y-110224845D01*
X138488481Y-110069234D01*
X138488488Y-110069228D01*
X138669228Y-109888488D01*
X138669234Y-109888481D01*
X138824845Y-109685685D01*
X138952652Y-109464316D01*
X138952657Y-109464306D01*
X139050476Y-109228150D01*
X139116633Y-108981244D01*
X139116636Y-108981231D01*
X139133913Y-108850000D01*
X137662361Y-108850000D01*
X137669257Y-108833351D01*
X137700000Y-108678793D01*
X137700000Y-108521207D01*
X137669257Y-108366649D01*
X137662361Y-108350000D01*
X139133912Y-108350000D01*
X139116636Y-108218768D01*
X139116633Y-108218755D01*
X139050476Y-107971849D01*
X138987779Y-107820485D01*
X138970141Y-107777904D01*
X156879756Y-107777904D01*
X156879756Y-107982607D01*
X156911778Y-108184790D01*
X156975037Y-108379479D01*
X157067971Y-108561869D01*
X157188284Y-108727469D01*
X157333042Y-108872227D01*
X157483226Y-108981340D01*
X157498646Y-108992543D01*
X157614863Y-109051759D01*
X157681032Y-109085474D01*
X157681034Y-109085474D01*
X157681037Y-109085476D01*
X157756422Y-109109970D01*
X157875721Y-109148733D01*
X157976813Y-109164744D01*
X158077904Y-109180756D01*
X158077905Y-109180756D01*
X158282607Y-109180756D01*
X158282608Y-109180756D01*
X158484790Y-109148733D01*
X158679475Y-109085476D01*
X158861866Y-108992543D01*
X158954846Y-108924988D01*
X159027469Y-108872227D01*
X159027471Y-108872224D01*
X159027475Y-108872222D01*
X159172222Y-108727475D01*
X159172224Y-108727471D01*
X159172227Y-108727469D01*
X159262643Y-108603020D01*
X159292543Y-108561866D01*
X159385476Y-108379475D01*
X159389531Y-108366995D01*
X171899500Y-108366995D01*
X171899500Y-108603004D01*
X171899501Y-108603020D01*
X171930306Y-108837010D01*
X171991394Y-109064993D01*
X172081714Y-109283045D01*
X172081719Y-109283056D01*
X172131488Y-109369257D01*
X172199727Y-109487450D01*
X172199729Y-109487453D01*
X172199730Y-109487454D01*
X172343406Y-109674697D01*
X172343412Y-109674704D01*
X172510295Y-109841587D01*
X172510301Y-109841592D01*
X172697550Y-109985273D01*
X172828918Y-110061118D01*
X172901943Y-110103280D01*
X172901948Y-110103282D01*
X172901951Y-110103284D01*
X173120007Y-110193606D01*
X173347986Y-110254693D01*
X173581989Y-110285500D01*
X173581996Y-110285500D01*
X173818004Y-110285500D01*
X173818011Y-110285500D01*
X174052014Y-110254693D01*
X174279993Y-110193606D01*
X174498049Y-110103284D01*
X174702450Y-109985273D01*
X174889699Y-109841592D01*
X175056592Y-109674699D01*
X175200273Y-109487450D01*
X175318284Y-109283049D01*
X175408606Y-109064993D01*
X175469693Y-108837014D01*
X175500500Y-108603011D01*
X175500500Y-108366989D01*
X175469693Y-108132986D01*
X175408606Y-107905007D01*
X175318284Y-107686951D01*
X175318282Y-107686948D01*
X175318280Y-107686943D01*
X175254065Y-107575721D01*
X175200273Y-107482550D01*
X175141001Y-107405306D01*
X175056593Y-107295302D01*
X175056587Y-107295295D01*
X174889704Y-107128412D01*
X174889697Y-107128406D01*
X174702454Y-106984730D01*
X174702453Y-106984729D01*
X174702450Y-106984727D01*
X174620957Y-106937677D01*
X174498056Y-106866719D01*
X174498045Y-106866714D01*
X174279993Y-106776394D01*
X174052010Y-106715306D01*
X173818020Y-106684501D01*
X173818017Y-106684500D01*
X173818011Y-106684500D01*
X173581989Y-106684500D01*
X173581983Y-106684500D01*
X173581979Y-106684501D01*
X173347989Y-106715306D01*
X173120006Y-106776394D01*
X172901954Y-106866714D01*
X172901943Y-106866719D01*
X172697545Y-106984730D01*
X172510302Y-107128406D01*
X172510295Y-107128412D01*
X172343412Y-107295295D01*
X172343406Y-107295302D01*
X172199730Y-107482545D01*
X172081719Y-107686943D01*
X172081714Y-107686954D01*
X171991394Y-107905006D01*
X171930306Y-108132989D01*
X171899501Y-108366979D01*
X171899500Y-108366995D01*
X159389531Y-108366995D01*
X159448733Y-108184790D01*
X159480756Y-107982608D01*
X159480756Y-107777904D01*
X159448733Y-107575722D01*
X159385476Y-107381037D01*
X159385474Y-107381034D01*
X159385474Y-107381032D01*
X159341788Y-107295295D01*
X159292543Y-107198646D01*
X159284812Y-107188005D01*
X159172227Y-107033042D01*
X159027469Y-106888284D01*
X158861869Y-106767971D01*
X158861868Y-106767970D01*
X158861866Y-106767969D01*
X158804909Y-106738947D01*
X158679479Y-106675037D01*
X158484790Y-106611778D01*
X158310251Y-106584134D01*
X158282608Y-106579756D01*
X158077904Y-106579756D01*
X158053585Y-106583607D01*
X157875721Y-106611778D01*
X157681032Y-106675037D01*
X157498642Y-106767971D01*
X157333042Y-106888284D01*
X157188284Y-107033042D01*
X157067971Y-107198642D01*
X156975037Y-107381032D01*
X156911778Y-107575721D01*
X156879756Y-107777904D01*
X138970141Y-107777904D01*
X138952657Y-107735693D01*
X138952652Y-107735683D01*
X138824845Y-107514314D01*
X138669234Y-107311518D01*
X138669228Y-107311511D01*
X138488488Y-107130771D01*
X138488481Y-107130765D01*
X138285685Y-106975154D01*
X138064316Y-106847347D01*
X138064306Y-106847342D01*
X137828150Y-106749523D01*
X137581244Y-106683366D01*
X137581231Y-106683363D01*
X137327819Y-106650001D01*
X137327803Y-106650000D01*
X137150000Y-106650000D01*
X137150000Y-107837639D01*
X137133351Y-107830743D01*
X136978793Y-107800000D01*
X136821207Y-107800000D01*
X136666649Y-107830743D01*
X136650000Y-107837639D01*
X136650000Y-106650000D01*
X136472197Y-106650000D01*
X136472180Y-106650001D01*
X136218768Y-106683363D01*
X136218755Y-106683366D01*
X135971849Y-106749523D01*
X135735693Y-106847342D01*
X135735683Y-106847347D01*
X135514314Y-106975154D01*
X135311518Y-107130765D01*
X135311511Y-107130771D01*
X135130771Y-107311511D01*
X135130765Y-107311518D01*
X134975153Y-107514315D01*
X134907675Y-107631191D01*
X134857108Y-107679407D01*
X134788501Y-107692629D01*
X134723636Y-107666661D01*
X134692901Y-107631191D01*
X134660876Y-107575722D01*
X134625261Y-107514035D01*
X134469610Y-107311187D01*
X134469605Y-107311181D01*
X134288818Y-107130394D01*
X134288811Y-107130388D01*
X134085973Y-106974745D01*
X134085971Y-106974743D01*
X134085965Y-106974739D01*
X134085960Y-106974736D01*
X134085957Y-106974734D01*
X133864542Y-106846899D01*
X133864531Y-106846894D01*
X133628322Y-106749053D01*
X133628315Y-106749051D01*
X133628313Y-106749050D01*
X133381340Y-106682874D01*
X133321805Y-106675036D01*
X133127850Y-106649500D01*
X133127843Y-106649500D01*
X132272157Y-106649500D01*
X132272149Y-106649500D01*
X132046826Y-106679165D01*
X132018660Y-106682874D01*
X131771687Y-106749050D01*
X131771677Y-106749053D01*
X131535468Y-106846894D01*
X131535457Y-106846899D01*
X131314042Y-106974734D01*
X131314026Y-106974745D01*
X131111188Y-107130388D01*
X131111181Y-107130394D01*
X130930394Y-107311181D01*
X130930388Y-107311188D01*
X130774745Y-107514026D01*
X130774734Y-107514042D01*
X130646899Y-107735457D01*
X130646894Y-107735468D01*
X130549053Y-107971677D01*
X130549050Y-107971687D01*
X130482874Y-108218660D01*
X130482860Y-108218768D01*
X130449500Y-108472149D01*
X123250500Y-108472149D01*
X123250500Y-104272149D01*
X130449500Y-104272149D01*
X130449500Y-104527850D01*
X130469744Y-104681610D01*
X130482874Y-104781340D01*
X130549050Y-105028312D01*
X130549053Y-105028322D01*
X130646894Y-105264531D01*
X130646899Y-105264542D01*
X130774734Y-105485957D01*
X130774745Y-105485973D01*
X130930388Y-105688811D01*
X130930394Y-105688818D01*
X131111181Y-105869605D01*
X131111187Y-105869610D01*
X131314035Y-106025261D01*
X131314042Y-106025265D01*
X131535457Y-106153100D01*
X131535462Y-106153102D01*
X131535465Y-106153104D01*
X131684426Y-106214805D01*
X131770542Y-106250476D01*
X131771687Y-106250950D01*
X132018660Y-106317126D01*
X132272157Y-106350500D01*
X132272164Y-106350500D01*
X133127836Y-106350500D01*
X133127843Y-106350500D01*
X133381340Y-106317126D01*
X133628313Y-106250950D01*
X133864535Y-106153104D01*
X134085965Y-106025261D01*
X134288813Y-105869610D01*
X134469610Y-105688813D01*
X134625261Y-105485965D01*
X134692902Y-105368806D01*
X134743468Y-105320593D01*
X134812074Y-105307369D01*
X134876939Y-105333337D01*
X134907675Y-105368808D01*
X134975154Y-105485685D01*
X135130765Y-105688481D01*
X135130771Y-105688488D01*
X135311511Y-105869228D01*
X135311518Y-105869234D01*
X135514314Y-106024845D01*
X135735683Y-106152652D01*
X135735693Y-106152657D01*
X135971849Y-106250476D01*
X136218755Y-106316633D01*
X136218768Y-106316636D01*
X136472180Y-106349998D01*
X136472197Y-106350000D01*
X136650000Y-106350000D01*
X136650000Y-105162360D01*
X136666649Y-105169257D01*
X136821207Y-105200000D01*
X136978793Y-105200000D01*
X137133351Y-105169257D01*
X137150000Y-105162360D01*
X137150000Y-106350000D01*
X137327803Y-106350000D01*
X137327819Y-106349998D01*
X137581231Y-106316636D01*
X137581244Y-106316633D01*
X137828150Y-106250476D01*
X138064306Y-106152657D01*
X138064316Y-106152652D01*
X138285685Y-106024845D01*
X138488481Y-105869234D01*
X138488488Y-105869228D01*
X138669228Y-105688488D01*
X138669234Y-105688481D01*
X138824845Y-105485685D01*
X138952652Y-105264316D01*
X138952657Y-105264306D01*
X139050476Y-105028150D01*
X139116633Y-104781244D01*
X139116636Y-104781231D01*
X139133913Y-104650000D01*
X137662361Y-104650000D01*
X137669257Y-104633351D01*
X137700000Y-104478793D01*
X137700000Y-104321207D01*
X137669257Y-104166649D01*
X137662361Y-104150000D01*
X139133912Y-104150000D01*
X139116636Y-104018768D01*
X139116633Y-104018755D01*
X139091477Y-103924869D01*
X139084183Y-103897648D01*
X144199500Y-103897648D01*
X144199500Y-104102351D01*
X144231522Y-104304534D01*
X144294781Y-104499223D01*
X144387715Y-104681613D01*
X144508028Y-104847213D01*
X144652786Y-104991971D01*
X144807749Y-105104556D01*
X144818390Y-105112287D01*
X144930200Y-105169257D01*
X145000776Y-105205218D01*
X145000778Y-105205218D01*
X145000781Y-105205220D01*
X145105137Y-105239127D01*
X145195465Y-105268477D01*
X145296557Y-105284488D01*
X145397648Y-105300500D01*
X145397649Y-105300500D01*
X145602351Y-105300500D01*
X145602352Y-105300500D01*
X145804534Y-105268477D01*
X145999219Y-105205220D01*
X146181610Y-105112287D01*
X146297179Y-105028322D01*
X146347213Y-104991971D01*
X146347215Y-104991968D01*
X146347219Y-104991966D01*
X146491966Y-104847219D01*
X146491968Y-104847215D01*
X146491971Y-104847213D01*
X146544732Y-104774590D01*
X146612287Y-104681610D01*
X146705220Y-104499219D01*
X146768477Y-104304534D01*
X146800500Y-104102352D01*
X146800500Y-103897648D01*
X146780575Y-103771849D01*
X146768477Y-103695465D01*
X146737458Y-103600000D01*
X146705220Y-103500781D01*
X146705218Y-103500778D01*
X146705218Y-103500776D01*
X146669762Y-103431191D01*
X146612287Y-103318390D01*
X146604556Y-103307749D01*
X146491971Y-103152786D01*
X146347213Y-103008028D01*
X146181613Y-102887715D01*
X146181612Y-102887714D01*
X146181610Y-102887713D01*
X146124653Y-102858691D01*
X145999223Y-102794781D01*
X145804534Y-102731522D01*
X145629995Y-102703878D01*
X145602352Y-102699500D01*
X145397648Y-102699500D01*
X145373329Y-102703351D01*
X145195465Y-102731522D01*
X145000776Y-102794781D01*
X144818386Y-102887715D01*
X144652786Y-103008028D01*
X144508028Y-103152786D01*
X144387715Y-103318386D01*
X144294781Y-103500776D01*
X144231522Y-103695465D01*
X144199500Y-103897648D01*
X139084183Y-103897648D01*
X139050476Y-103771849D01*
X138952657Y-103535693D01*
X138952652Y-103535683D01*
X138824845Y-103314314D01*
X138669234Y-103111518D01*
X138669228Y-103111511D01*
X138488488Y-102930771D01*
X138488481Y-102930765D01*
X138285685Y-102775154D01*
X138064316Y-102647347D01*
X138064306Y-102647342D01*
X137828150Y-102549523D01*
X137581244Y-102483366D01*
X137581231Y-102483363D01*
X137327819Y-102450001D01*
X137327803Y-102450000D01*
X137150000Y-102450000D01*
X137150000Y-103637639D01*
X137133351Y-103630743D01*
X136978793Y-103600000D01*
X136821207Y-103600000D01*
X136666649Y-103630743D01*
X136650000Y-103637639D01*
X136650000Y-102450000D01*
X136472197Y-102450000D01*
X136472180Y-102450001D01*
X136218768Y-102483363D01*
X136218755Y-102483366D01*
X135971849Y-102549523D01*
X135735693Y-102647342D01*
X135735683Y-102647347D01*
X135514314Y-102775154D01*
X135311518Y-102930765D01*
X135311511Y-102930771D01*
X135130771Y-103111511D01*
X135130765Y-103111518D01*
X134975153Y-103314315D01*
X134907675Y-103431191D01*
X134857108Y-103479407D01*
X134788501Y-103492629D01*
X134723636Y-103466661D01*
X134692901Y-103431191D01*
X134627773Y-103318386D01*
X134625261Y-103314035D01*
X134469610Y-103111187D01*
X134469605Y-103111181D01*
X134288818Y-102930394D01*
X134288811Y-102930388D01*
X134085973Y-102774745D01*
X134085971Y-102774743D01*
X134085965Y-102774739D01*
X134085960Y-102774736D01*
X134085957Y-102774734D01*
X133864542Y-102646899D01*
X133864531Y-102646894D01*
X133628322Y-102549053D01*
X133628315Y-102549051D01*
X133628313Y-102549050D01*
X133381340Y-102482874D01*
X133325007Y-102475457D01*
X133127850Y-102449500D01*
X133127843Y-102449500D01*
X132272157Y-102449500D01*
X132272149Y-102449500D01*
X132046826Y-102479165D01*
X132018660Y-102482874D01*
X131771687Y-102549050D01*
X131771677Y-102549053D01*
X131535468Y-102646894D01*
X131535457Y-102646899D01*
X131314042Y-102774734D01*
X131314026Y-102774745D01*
X131111188Y-102930388D01*
X131111181Y-102930394D01*
X130930394Y-103111181D01*
X130930388Y-103111188D01*
X130774745Y-103314026D01*
X130774734Y-103314042D01*
X130646899Y-103535457D01*
X130646894Y-103535468D01*
X130549053Y-103771677D01*
X130549050Y-103771687D01*
X130482874Y-104018660D01*
X130482860Y-104018768D01*
X130449500Y-104272149D01*
X123250500Y-104272149D01*
X123250500Y-100072149D01*
X130449500Y-100072149D01*
X130449500Y-100327850D01*
X130475457Y-100525007D01*
X130482874Y-100581340D01*
X130515334Y-100702482D01*
X130549050Y-100828312D01*
X130549053Y-100828322D01*
X130646894Y-101064531D01*
X130646899Y-101064542D01*
X130774734Y-101285957D01*
X130774745Y-101285973D01*
X130930388Y-101488811D01*
X130930394Y-101488818D01*
X131111181Y-101669605D01*
X131111187Y-101669610D01*
X131314035Y-101825261D01*
X131314042Y-101825265D01*
X131535457Y-101953100D01*
X131535462Y-101953102D01*
X131535465Y-101953104D01*
X131771687Y-102050950D01*
X132018660Y-102117126D01*
X132272157Y-102150500D01*
X132272164Y-102150500D01*
X133127836Y-102150500D01*
X133127843Y-102150500D01*
X133381340Y-102117126D01*
X133628313Y-102050950D01*
X133864535Y-101953104D01*
X134085965Y-101825261D01*
X134288813Y-101669610D01*
X134469610Y-101488813D01*
X134625261Y-101285965D01*
X134692613Y-101169307D01*
X134743180Y-101121092D01*
X134811787Y-101107869D01*
X134876652Y-101133837D01*
X134907386Y-101169307D01*
X134974739Y-101285965D01*
X134974744Y-101285971D01*
X134974745Y-101285973D01*
X135130388Y-101488811D01*
X135130394Y-101488818D01*
X135311181Y-101669605D01*
X135311187Y-101669610D01*
X135514035Y-101825261D01*
X135514042Y-101825265D01*
X135735457Y-101953100D01*
X135735462Y-101953102D01*
X135735465Y-101953104D01*
X135971687Y-102050950D01*
X136218660Y-102117126D01*
X136472157Y-102150500D01*
X136472164Y-102150500D01*
X137327836Y-102150500D01*
X137327843Y-102150500D01*
X137581340Y-102117126D01*
X137828313Y-102050950D01*
X138064535Y-101953104D01*
X138285965Y-101825261D01*
X138488813Y-101669610D01*
X138669610Y-101488813D01*
X138825261Y-101285965D01*
X138953104Y-101064535D01*
X139050950Y-100828313D01*
X139117126Y-100581340D01*
X139150500Y-100327843D01*
X139150500Y-100072157D01*
X139117126Y-99818660D01*
X139050950Y-99571687D01*
X138953104Y-99335465D01*
X138953102Y-99335462D01*
X138953100Y-99335457D01*
X138825265Y-99114042D01*
X138825261Y-99114035D01*
X138780452Y-99055638D01*
X138669611Y-98911188D01*
X138669605Y-98911181D01*
X138556072Y-98797648D01*
X147899500Y-98797648D01*
X147899500Y-99002351D01*
X147931522Y-99204534D01*
X147994781Y-99399223D01*
X148087715Y-99581613D01*
X148208028Y-99747213D01*
X148352786Y-99891971D01*
X148507749Y-100004556D01*
X148518390Y-100012287D01*
X148634607Y-100071503D01*
X148700776Y-100105218D01*
X148700778Y-100105218D01*
X148700781Y-100105220D01*
X148805137Y-100139127D01*
X148895465Y-100168477D01*
X148996557Y-100184488D01*
X149097648Y-100200500D01*
X149097649Y-100200500D01*
X149302351Y-100200500D01*
X149302352Y-100200500D01*
X149504534Y-100168477D01*
X149699219Y-100105220D01*
X149881610Y-100012287D01*
X149974590Y-99944732D01*
X150047213Y-99891971D01*
X150047215Y-99891968D01*
X150047219Y-99891966D01*
X150191966Y-99747219D01*
X150191968Y-99747215D01*
X150191971Y-99747213D01*
X150244732Y-99674590D01*
X150312287Y-99581610D01*
X150405220Y-99399219D01*
X150468477Y-99204534D01*
X150500500Y-99002352D01*
X150500500Y-98797648D01*
X150468477Y-98595466D01*
X150461744Y-98574745D01*
X150439127Y-98505137D01*
X150405220Y-98400781D01*
X150405218Y-98400778D01*
X150405218Y-98400776D01*
X150328138Y-98249500D01*
X150312287Y-98218390D01*
X150304556Y-98207749D01*
X150191971Y-98052786D01*
X150086320Y-97947135D01*
X171899500Y-97947135D01*
X171899500Y-100642870D01*
X171899501Y-100642876D01*
X171905908Y-100702483D01*
X171956202Y-100837328D01*
X171956206Y-100837335D01*
X172042452Y-100952544D01*
X172042455Y-100952547D01*
X172157664Y-101038793D01*
X172157671Y-101038797D01*
X172292517Y-101089091D01*
X172292516Y-101089091D01*
X172299444Y-101089835D01*
X172352127Y-101095500D01*
X175047872Y-101095499D01*
X175107483Y-101089091D01*
X175242331Y-101038796D01*
X175357546Y-100952546D01*
X175443796Y-100837331D01*
X175494091Y-100702483D01*
X175500500Y-100642873D01*
X175500499Y-97947128D01*
X175494091Y-97887517D01*
X175480452Y-97850950D01*
X175443797Y-97752671D01*
X175443793Y-97752664D01*
X175357547Y-97637455D01*
X175357544Y-97637452D01*
X175242335Y-97551206D01*
X175242328Y-97551202D01*
X175107482Y-97500908D01*
X175107483Y-97500908D01*
X175047883Y-97494501D01*
X175047881Y-97494500D01*
X175047873Y-97494500D01*
X175047864Y-97494500D01*
X172352129Y-97494500D01*
X172352123Y-97494501D01*
X172292516Y-97500908D01*
X172157671Y-97551202D01*
X172157664Y-97551206D01*
X172042455Y-97637452D01*
X172042452Y-97637455D01*
X171956206Y-97752664D01*
X171956202Y-97752671D01*
X171905908Y-97887517D01*
X171899501Y-97947116D01*
X171899501Y-97947123D01*
X171899500Y-97947135D01*
X150086320Y-97947135D01*
X150047213Y-97908028D01*
X149881613Y-97787715D01*
X149881612Y-97787714D01*
X149881610Y-97787713D01*
X149813678Y-97753100D01*
X149699223Y-97694781D01*
X149504534Y-97631522D01*
X149329995Y-97603878D01*
X149302352Y-97599500D01*
X149097648Y-97599500D01*
X149073329Y-97603351D01*
X148895465Y-97631522D01*
X148700776Y-97694781D01*
X148518386Y-97787715D01*
X148352786Y-97908028D01*
X148208028Y-98052786D01*
X148087715Y-98218386D01*
X147994781Y-98400776D01*
X147931522Y-98595465D01*
X147899500Y-98797648D01*
X138556072Y-98797648D01*
X138488818Y-98730394D01*
X138488811Y-98730388D01*
X138285973Y-98574745D01*
X138285971Y-98574743D01*
X138285965Y-98574739D01*
X138285960Y-98574736D01*
X138285957Y-98574734D01*
X138064542Y-98446899D01*
X138064531Y-98446894D01*
X137828322Y-98349053D01*
X137828315Y-98349051D01*
X137828313Y-98349050D01*
X137581340Y-98282874D01*
X137525007Y-98275457D01*
X137327850Y-98249500D01*
X137327843Y-98249500D01*
X136472157Y-98249500D01*
X136472149Y-98249500D01*
X136246826Y-98279165D01*
X136218660Y-98282874D01*
X135971687Y-98349050D01*
X135971677Y-98349053D01*
X135735468Y-98446894D01*
X135735457Y-98446899D01*
X135514042Y-98574734D01*
X135514026Y-98574745D01*
X135311188Y-98730388D01*
X135311181Y-98730394D01*
X135130394Y-98911181D01*
X135130388Y-98911188D01*
X134974745Y-99114026D01*
X134974734Y-99114042D01*
X134907387Y-99230691D01*
X134856820Y-99278907D01*
X134788213Y-99292129D01*
X134723348Y-99266161D01*
X134692613Y-99230691D01*
X134625265Y-99114042D01*
X134625261Y-99114035D01*
X134580452Y-99055638D01*
X134469611Y-98911188D01*
X134469605Y-98911181D01*
X134288818Y-98730394D01*
X134288811Y-98730388D01*
X134085973Y-98574745D01*
X134085971Y-98574743D01*
X134085965Y-98574739D01*
X134085960Y-98574736D01*
X134085957Y-98574734D01*
X133864542Y-98446899D01*
X133864531Y-98446894D01*
X133628322Y-98349053D01*
X133628315Y-98349051D01*
X133628313Y-98349050D01*
X133381340Y-98282874D01*
X133325007Y-98275457D01*
X133127850Y-98249500D01*
X133127843Y-98249500D01*
X132272157Y-98249500D01*
X132272149Y-98249500D01*
X132046826Y-98279165D01*
X132018660Y-98282874D01*
X131771687Y-98349050D01*
X131771677Y-98349053D01*
X131535468Y-98446894D01*
X131535457Y-98446899D01*
X131314042Y-98574734D01*
X131314026Y-98574745D01*
X131111188Y-98730388D01*
X131111181Y-98730394D01*
X130930394Y-98911181D01*
X130930388Y-98911188D01*
X130774745Y-99114026D01*
X130774734Y-99114042D01*
X130646899Y-99335457D01*
X130646894Y-99335468D01*
X130549053Y-99571677D01*
X130549050Y-99571687D01*
X130502017Y-99747219D01*
X130482874Y-99818661D01*
X130449500Y-100072149D01*
X123250500Y-100072149D01*
X123250500Y-95872149D01*
X130449500Y-95872149D01*
X130449500Y-96127850D01*
X130475457Y-96325007D01*
X130482874Y-96381340D01*
X130549050Y-96628312D01*
X130549053Y-96628322D01*
X130646894Y-96864531D01*
X130646899Y-96864542D01*
X130774734Y-97085957D01*
X130774745Y-97085973D01*
X130930388Y-97288811D01*
X130930394Y-97288818D01*
X131111181Y-97469605D01*
X131111188Y-97469611D01*
X131217520Y-97551202D01*
X131314035Y-97625261D01*
X131314042Y-97625265D01*
X131535457Y-97753100D01*
X131535462Y-97753102D01*
X131535465Y-97753104D01*
X131771687Y-97850950D01*
X132018660Y-97917126D01*
X132272157Y-97950500D01*
X132272164Y-97950500D01*
X133127836Y-97950500D01*
X133127843Y-97950500D01*
X133381340Y-97917126D01*
X133628313Y-97850950D01*
X133864535Y-97753104D01*
X133865289Y-97752669D01*
X133965553Y-97694781D01*
X134085965Y-97625261D01*
X134288813Y-97469610D01*
X134469610Y-97288813D01*
X134625261Y-97085965D01*
X134692613Y-96969307D01*
X134743180Y-96921092D01*
X134811787Y-96907869D01*
X134876652Y-96933837D01*
X134907386Y-96969307D01*
X134974739Y-97085965D01*
X134974744Y-97085971D01*
X134974745Y-97085973D01*
X135130388Y-97288811D01*
X135130394Y-97288818D01*
X135311181Y-97469605D01*
X135311188Y-97469611D01*
X135417520Y-97551202D01*
X135514035Y-97625261D01*
X135514042Y-97625265D01*
X135735457Y-97753100D01*
X135735462Y-97753102D01*
X135735465Y-97753104D01*
X135971687Y-97850950D01*
X136218660Y-97917126D01*
X136472157Y-97950500D01*
X136472164Y-97950500D01*
X137327836Y-97950500D01*
X137327843Y-97950500D01*
X137581340Y-97917126D01*
X137828313Y-97850950D01*
X138064535Y-97753104D01*
X138065289Y-97752669D01*
X138165553Y-97694781D01*
X138285965Y-97625261D01*
X138488813Y-97469610D01*
X138669610Y-97288813D01*
X138825261Y-97085965D01*
X138953104Y-96864535D01*
X139050950Y-96628313D01*
X139117126Y-96381340D01*
X139150500Y-96127843D01*
X139150500Y-95872157D01*
X139117126Y-95618660D01*
X139050950Y-95371687D01*
X138953104Y-95135465D01*
X138953102Y-95135462D01*
X138953100Y-95135457D01*
X138825265Y-94914042D01*
X138825261Y-94914035D01*
X138669610Y-94711187D01*
X138669605Y-94711181D01*
X138488818Y-94530394D01*
X138488811Y-94530388D01*
X138285973Y-94374745D01*
X138285971Y-94374743D01*
X138285965Y-94374739D01*
X138285960Y-94374736D01*
X138285957Y-94374734D01*
X138122422Y-94280317D01*
X138064535Y-94246896D01*
X138064531Y-94246894D01*
X137895780Y-94176995D01*
X171899500Y-94176995D01*
X171899500Y-94413004D01*
X171899501Y-94413020D01*
X171930306Y-94647010D01*
X171991394Y-94874993D01*
X172081714Y-95093045D01*
X172081719Y-95093056D01*
X172152677Y-95215957D01*
X172199727Y-95297450D01*
X172199729Y-95297453D01*
X172199730Y-95297454D01*
X172343406Y-95484697D01*
X172343412Y-95484704D01*
X172510295Y-95651587D01*
X172510301Y-95651592D01*
X172697550Y-95795273D01*
X172828918Y-95871118D01*
X172901943Y-95913280D01*
X172901948Y-95913282D01*
X172901951Y-95913284D01*
X173120007Y-96003606D01*
X173347986Y-96064693D01*
X173581989Y-96095500D01*
X173581996Y-96095500D01*
X173818004Y-96095500D01*
X173818011Y-96095500D01*
X174052014Y-96064693D01*
X174279993Y-96003606D01*
X174498049Y-95913284D01*
X174702450Y-95795273D01*
X174889699Y-95651592D01*
X175056592Y-95484699D01*
X175200273Y-95297450D01*
X175318284Y-95093049D01*
X175408606Y-94874993D01*
X175469693Y-94647014D01*
X175500500Y-94413011D01*
X175500500Y-94176989D01*
X175469693Y-93942986D01*
X175408606Y-93715007D01*
X175318284Y-93496951D01*
X175318282Y-93496948D01*
X175318280Y-93496943D01*
X175276118Y-93423918D01*
X175200273Y-93292550D01*
X175056592Y-93105301D01*
X175056587Y-93105295D01*
X174889704Y-92938412D01*
X174889697Y-92938406D01*
X174702454Y-92794730D01*
X174702453Y-92794729D01*
X174702450Y-92794727D01*
X174620957Y-92747677D01*
X174498056Y-92676719D01*
X174498045Y-92676714D01*
X174279993Y-92586394D01*
X174052010Y-92525306D01*
X173818020Y-92494501D01*
X173818017Y-92494500D01*
X173818011Y-92494500D01*
X173581989Y-92494500D01*
X173581983Y-92494500D01*
X173581979Y-92494501D01*
X173347989Y-92525306D01*
X173120006Y-92586394D01*
X172901954Y-92676714D01*
X172901943Y-92676719D01*
X172697545Y-92794730D01*
X172510302Y-92938406D01*
X172510295Y-92938412D01*
X172343412Y-93105295D01*
X172343406Y-93105302D01*
X172199730Y-93292545D01*
X172081719Y-93496943D01*
X172081714Y-93496954D01*
X171991394Y-93715006D01*
X171930306Y-93942989D01*
X171899501Y-94176979D01*
X171899500Y-94176995D01*
X137895780Y-94176995D01*
X137828322Y-94149053D01*
X137828315Y-94149051D01*
X137828313Y-94149050D01*
X137581340Y-94082874D01*
X137525007Y-94075457D01*
X137327850Y-94049500D01*
X137327843Y-94049500D01*
X136472157Y-94049500D01*
X136472149Y-94049500D01*
X136246826Y-94079165D01*
X136218660Y-94082874D01*
X135971687Y-94149050D01*
X135971677Y-94149053D01*
X135735468Y-94246894D01*
X135735457Y-94246899D01*
X135514042Y-94374734D01*
X135514026Y-94374745D01*
X135311188Y-94530388D01*
X135311181Y-94530394D01*
X135130394Y-94711181D01*
X135130388Y-94711188D01*
X134974745Y-94914026D01*
X134974734Y-94914042D01*
X134907387Y-95030691D01*
X134856820Y-95078907D01*
X134788213Y-95092129D01*
X134723348Y-95066161D01*
X134692613Y-95030691D01*
X134625265Y-94914042D01*
X134625261Y-94914035D01*
X134469610Y-94711187D01*
X134469605Y-94711181D01*
X134288818Y-94530394D01*
X134288811Y-94530388D01*
X134085973Y-94374745D01*
X134085971Y-94374743D01*
X134085965Y-94374739D01*
X134085960Y-94374736D01*
X134085957Y-94374734D01*
X133864542Y-94246899D01*
X133864531Y-94246894D01*
X133628322Y-94149053D01*
X133628315Y-94149051D01*
X133628313Y-94149050D01*
X133381340Y-94082874D01*
X133325007Y-94075457D01*
X133127850Y-94049500D01*
X133127843Y-94049500D01*
X132272157Y-94049500D01*
X132272149Y-94049500D01*
X132046826Y-94079165D01*
X132018660Y-94082874D01*
X131771687Y-94149050D01*
X131771677Y-94149053D01*
X131535468Y-94246894D01*
X131535457Y-94246899D01*
X131314042Y-94374734D01*
X131314026Y-94374745D01*
X131111188Y-94530388D01*
X131111181Y-94530394D01*
X130930394Y-94711181D01*
X130930388Y-94711188D01*
X130774745Y-94914026D01*
X130774734Y-94914042D01*
X130646899Y-95135457D01*
X130646894Y-95135468D01*
X130549053Y-95371677D01*
X130549050Y-95371687D01*
X130482874Y-95618661D01*
X130449500Y-95872149D01*
X123250500Y-95872149D01*
X123250500Y-91672149D01*
X130449500Y-91672149D01*
X130449500Y-91927850D01*
X130475457Y-92125007D01*
X130482874Y-92181340D01*
X130549050Y-92428312D01*
X130549053Y-92428322D01*
X130646894Y-92664531D01*
X130646899Y-92664542D01*
X130774734Y-92885957D01*
X130774745Y-92885973D01*
X130930388Y-93088811D01*
X130930394Y-93088818D01*
X131111181Y-93269605D01*
X131111187Y-93269610D01*
X131314035Y-93425261D01*
X131314042Y-93425265D01*
X131535457Y-93553100D01*
X131535462Y-93553102D01*
X131535465Y-93553104D01*
X131771687Y-93650950D01*
X132018660Y-93717126D01*
X132272157Y-93750500D01*
X132272164Y-93750500D01*
X133127836Y-93750500D01*
X133127843Y-93750500D01*
X133381340Y-93717126D01*
X133628313Y-93650950D01*
X133864535Y-93553104D01*
X134085965Y-93425261D01*
X134288813Y-93269610D01*
X134469610Y-93088813D01*
X134625261Y-92885965D01*
X134692613Y-92769307D01*
X134743180Y-92721092D01*
X134811787Y-92707869D01*
X134876652Y-92733837D01*
X134907386Y-92769307D01*
X134974739Y-92885965D01*
X134974744Y-92885971D01*
X134974745Y-92885973D01*
X135130388Y-93088811D01*
X135130394Y-93088818D01*
X135311181Y-93269605D01*
X135311187Y-93269610D01*
X135514035Y-93425261D01*
X135514042Y-93425265D01*
X135735457Y-93553100D01*
X135735462Y-93553102D01*
X135735465Y-93553104D01*
X135971687Y-93650950D01*
X136218660Y-93717126D01*
X136472157Y-93750500D01*
X136472164Y-93750500D01*
X137327836Y-93750500D01*
X137327843Y-93750500D01*
X137581340Y-93717126D01*
X137828313Y-93650950D01*
X138064535Y-93553104D01*
X138285965Y-93425261D01*
X138488813Y-93269610D01*
X138669610Y-93088813D01*
X138825261Y-92885965D01*
X138953104Y-92664535D01*
X139050950Y-92428313D01*
X139117126Y-92181340D01*
X139150500Y-91927843D01*
X139150500Y-91672157D01*
X139117126Y-91418660D01*
X139050950Y-91171687D01*
X138953104Y-90935465D01*
X138953102Y-90935462D01*
X138953100Y-90935457D01*
X138825265Y-90714042D01*
X138825261Y-90714035D01*
X138669610Y-90511187D01*
X138669605Y-90511181D01*
X138488818Y-90330394D01*
X138488811Y-90330388D01*
X138285973Y-90174745D01*
X138285971Y-90174743D01*
X138285965Y-90174739D01*
X138285960Y-90174736D01*
X138285957Y-90174734D01*
X138064542Y-90046899D01*
X138064531Y-90046894D01*
X137828322Y-89949053D01*
X137828315Y-89949051D01*
X137828313Y-89949050D01*
X137581340Y-89882874D01*
X137525007Y-89875457D01*
X137327850Y-89849500D01*
X137327843Y-89849500D01*
X136472157Y-89849500D01*
X136472149Y-89849500D01*
X136246826Y-89879165D01*
X136218660Y-89882874D01*
X135971687Y-89949050D01*
X135971677Y-89949053D01*
X135735468Y-90046894D01*
X135735457Y-90046899D01*
X135514042Y-90174734D01*
X135514026Y-90174745D01*
X135311188Y-90330388D01*
X135311181Y-90330394D01*
X135130394Y-90511181D01*
X135130388Y-90511188D01*
X134974745Y-90714026D01*
X134974734Y-90714042D01*
X134907387Y-90830691D01*
X134856820Y-90878907D01*
X134788213Y-90892129D01*
X134723348Y-90866161D01*
X134692613Y-90830691D01*
X134625265Y-90714042D01*
X134625261Y-90714035D01*
X134469610Y-90511187D01*
X134469605Y-90511181D01*
X134288818Y-90330394D01*
X134288811Y-90330388D01*
X134085973Y-90174745D01*
X134085971Y-90174743D01*
X134085965Y-90174739D01*
X134085960Y-90174736D01*
X134085957Y-90174734D01*
X133864542Y-90046899D01*
X133864531Y-90046894D01*
X133628322Y-89949053D01*
X133628315Y-89949051D01*
X133628313Y-89949050D01*
X133381340Y-89882874D01*
X133325007Y-89875457D01*
X133127850Y-89849500D01*
X133127843Y-89849500D01*
X132272157Y-89849500D01*
X132272149Y-89849500D01*
X132046826Y-89879165D01*
X132018660Y-89882874D01*
X131771687Y-89949050D01*
X131771677Y-89949053D01*
X131535468Y-90046894D01*
X131535457Y-90046899D01*
X131314042Y-90174734D01*
X131314026Y-90174745D01*
X131111188Y-90330388D01*
X131111181Y-90330394D01*
X130930394Y-90511181D01*
X130930388Y-90511188D01*
X130774745Y-90714026D01*
X130774734Y-90714042D01*
X130646899Y-90935457D01*
X130646894Y-90935468D01*
X130549053Y-91171677D01*
X130549050Y-91171687D01*
X130482874Y-91418661D01*
X130449500Y-91672149D01*
X123250500Y-91672149D01*
X123250500Y-87472149D01*
X130449500Y-87472149D01*
X130449500Y-87727850D01*
X130475457Y-87925007D01*
X130482874Y-87981340D01*
X130549050Y-88228312D01*
X130549053Y-88228322D01*
X130646894Y-88464531D01*
X130646899Y-88464542D01*
X130774734Y-88685957D01*
X130774745Y-88685973D01*
X130930388Y-88888811D01*
X130930394Y-88888818D01*
X131111181Y-89069605D01*
X131111187Y-89069610D01*
X131314035Y-89225261D01*
X131314042Y-89225265D01*
X131535457Y-89353100D01*
X131535462Y-89353102D01*
X131535465Y-89353104D01*
X131771687Y-89450950D01*
X132018660Y-89517126D01*
X132272157Y-89550500D01*
X132272164Y-89550500D01*
X133127836Y-89550500D01*
X133127843Y-89550500D01*
X133381340Y-89517126D01*
X133628313Y-89450950D01*
X133864535Y-89353104D01*
X134085965Y-89225261D01*
X134288813Y-89069610D01*
X134469610Y-88888813D01*
X134625261Y-88685965D01*
X134692613Y-88569307D01*
X134743180Y-88521092D01*
X134811787Y-88507869D01*
X134876652Y-88533837D01*
X134907386Y-88569307D01*
X134974739Y-88685965D01*
X134974744Y-88685971D01*
X134974745Y-88685973D01*
X135130388Y-88888811D01*
X135130394Y-88888818D01*
X135311181Y-89069605D01*
X135311187Y-89069610D01*
X135514035Y-89225261D01*
X135514042Y-89225265D01*
X135735457Y-89353100D01*
X135735462Y-89353102D01*
X135735465Y-89353104D01*
X135971687Y-89450950D01*
X136218660Y-89517126D01*
X136472157Y-89550500D01*
X136472164Y-89550500D01*
X137327836Y-89550500D01*
X137327843Y-89550500D01*
X137581340Y-89517126D01*
X137828313Y-89450950D01*
X138064535Y-89353104D01*
X138285965Y-89225261D01*
X138488813Y-89069610D01*
X138669610Y-88888813D01*
X138825261Y-88685965D01*
X138953104Y-88464535D01*
X139050950Y-88228313D01*
X139117126Y-87981340D01*
X139150500Y-87727843D01*
X139150500Y-87472157D01*
X139117126Y-87218660D01*
X139050950Y-86971687D01*
X138953104Y-86735465D01*
X138953102Y-86735462D01*
X138953100Y-86735457D01*
X138825265Y-86514042D01*
X138825261Y-86514035D01*
X138669610Y-86311187D01*
X138669605Y-86311181D01*
X138488818Y-86130394D01*
X138488811Y-86130388D01*
X138285973Y-85974745D01*
X138285971Y-85974743D01*
X138285965Y-85974739D01*
X138285960Y-85974736D01*
X138285957Y-85974734D01*
X138064542Y-85846899D01*
X138064531Y-85846894D01*
X137828322Y-85749053D01*
X137828315Y-85749051D01*
X137828313Y-85749050D01*
X137581340Y-85682874D01*
X137525007Y-85675457D01*
X137327850Y-85649500D01*
X137327843Y-85649500D01*
X136472157Y-85649500D01*
X136472149Y-85649500D01*
X136246826Y-85679165D01*
X136218660Y-85682874D01*
X135971687Y-85749050D01*
X135971677Y-85749053D01*
X135735468Y-85846894D01*
X135735457Y-85846899D01*
X135514042Y-85974734D01*
X135514026Y-85974745D01*
X135311188Y-86130388D01*
X135311181Y-86130394D01*
X135130394Y-86311181D01*
X135130388Y-86311188D01*
X134974745Y-86514026D01*
X134974734Y-86514042D01*
X134907387Y-86630691D01*
X134856820Y-86678907D01*
X134788213Y-86692129D01*
X134723348Y-86666161D01*
X134692613Y-86630691D01*
X134625265Y-86514042D01*
X134625261Y-86514035D01*
X134469610Y-86311187D01*
X134469605Y-86311181D01*
X134288818Y-86130394D01*
X134288811Y-86130388D01*
X134085973Y-85974745D01*
X134085971Y-85974743D01*
X134085965Y-85974739D01*
X134085960Y-85974736D01*
X134085957Y-85974734D01*
X133864542Y-85846899D01*
X133864531Y-85846894D01*
X133628322Y-85749053D01*
X133628315Y-85749051D01*
X133628313Y-85749050D01*
X133381340Y-85682874D01*
X133325007Y-85675457D01*
X133127850Y-85649500D01*
X133127843Y-85649500D01*
X132272157Y-85649500D01*
X132272149Y-85649500D01*
X132046826Y-85679165D01*
X132018660Y-85682874D01*
X131771687Y-85749050D01*
X131771677Y-85749053D01*
X131535468Y-85846894D01*
X131535457Y-85846899D01*
X131314042Y-85974734D01*
X131314026Y-85974745D01*
X131111188Y-86130388D01*
X131111181Y-86130394D01*
X130930394Y-86311181D01*
X130930388Y-86311188D01*
X130774745Y-86514026D01*
X130774734Y-86514042D01*
X130646899Y-86735457D01*
X130646894Y-86735468D01*
X130549053Y-86971677D01*
X130549050Y-86971687D01*
X130482874Y-87218661D01*
X130449500Y-87472149D01*
X123250500Y-87472149D01*
X123250500Y-83272149D01*
X130449500Y-83272149D01*
X130449500Y-83527850D01*
X130454085Y-83562671D01*
X130482874Y-83781340D01*
X130549050Y-84028312D01*
X130549053Y-84028322D01*
X130646894Y-84264531D01*
X130646899Y-84264542D01*
X130774734Y-84485957D01*
X130774745Y-84485973D01*
X130930388Y-84688811D01*
X130930394Y-84688818D01*
X131111181Y-84869605D01*
X131111187Y-84869610D01*
X131314035Y-85025261D01*
X131314042Y-85025265D01*
X131535457Y-85153100D01*
X131535462Y-85153102D01*
X131535465Y-85153104D01*
X131771687Y-85250950D01*
X132018660Y-85317126D01*
X132272157Y-85350500D01*
X132272164Y-85350500D01*
X133127836Y-85350500D01*
X133127843Y-85350500D01*
X133381340Y-85317126D01*
X133628313Y-85250950D01*
X133864535Y-85153104D01*
X134085965Y-85025261D01*
X134288813Y-84869610D01*
X134469610Y-84688813D01*
X134625261Y-84485965D01*
X134692613Y-84369307D01*
X134743180Y-84321092D01*
X134811787Y-84307869D01*
X134876652Y-84333837D01*
X134907386Y-84369307D01*
X134974739Y-84485965D01*
X134974744Y-84485971D01*
X134974745Y-84485973D01*
X135130388Y-84688811D01*
X135130394Y-84688818D01*
X135311181Y-84869605D01*
X135311187Y-84869610D01*
X135514035Y-85025261D01*
X135514042Y-85025265D01*
X135735457Y-85153100D01*
X135735462Y-85153102D01*
X135735465Y-85153104D01*
X135971687Y-85250950D01*
X136218660Y-85317126D01*
X136472157Y-85350500D01*
X136472164Y-85350500D01*
X137327836Y-85350500D01*
X137327843Y-85350500D01*
X137581340Y-85317126D01*
X137828313Y-85250950D01*
X138064535Y-85153104D01*
X138285965Y-85025261D01*
X138488813Y-84869610D01*
X138669610Y-84688813D01*
X138825261Y-84485965D01*
X138953104Y-84264535D01*
X139050950Y-84028313D01*
X139117126Y-83781340D01*
X139120313Y-83757135D01*
X171899500Y-83757135D01*
X171899500Y-86452870D01*
X171899501Y-86452876D01*
X171905908Y-86512483D01*
X171956202Y-86647328D01*
X171956206Y-86647335D01*
X172042452Y-86762544D01*
X172042455Y-86762547D01*
X172157664Y-86848793D01*
X172157671Y-86848797D01*
X172292517Y-86899091D01*
X172292516Y-86899091D01*
X172299444Y-86899835D01*
X172352127Y-86905500D01*
X175047872Y-86905499D01*
X175107483Y-86899091D01*
X175242331Y-86848796D01*
X175357546Y-86762546D01*
X175443796Y-86647331D01*
X175494091Y-86512483D01*
X175500500Y-86452873D01*
X175500499Y-83757128D01*
X175494091Y-83697517D01*
X175443796Y-83562669D01*
X175443795Y-83562668D01*
X175443793Y-83562664D01*
X175357547Y-83447455D01*
X175357544Y-83447452D01*
X175242335Y-83361206D01*
X175242328Y-83361202D01*
X175107482Y-83310908D01*
X175107483Y-83310908D01*
X175047883Y-83304501D01*
X175047881Y-83304500D01*
X175047873Y-83304500D01*
X175047864Y-83304500D01*
X172352129Y-83304500D01*
X172352123Y-83304501D01*
X172292516Y-83310908D01*
X172157671Y-83361202D01*
X172157664Y-83361206D01*
X172042455Y-83447452D01*
X172042452Y-83447455D01*
X171956206Y-83562664D01*
X171956202Y-83562671D01*
X171905908Y-83697517D01*
X171901597Y-83737619D01*
X171899501Y-83757123D01*
X171899500Y-83757135D01*
X139120313Y-83757135D01*
X139150500Y-83527843D01*
X139150500Y-83272157D01*
X139117126Y-83018660D01*
X139050950Y-82771687D01*
X138953104Y-82535465D01*
X138953102Y-82535462D01*
X138953100Y-82535457D01*
X138825265Y-82314042D01*
X138825261Y-82314035D01*
X138669610Y-82111187D01*
X138669605Y-82111181D01*
X138488818Y-81930394D01*
X138488811Y-81930388D01*
X138285973Y-81774745D01*
X138285971Y-81774743D01*
X138285965Y-81774739D01*
X138285960Y-81774736D01*
X138285957Y-81774734D01*
X138064542Y-81646899D01*
X138064531Y-81646894D01*
X137828322Y-81549053D01*
X137828315Y-81549051D01*
X137828313Y-81549050D01*
X137581340Y-81482874D01*
X137525007Y-81475457D01*
X137327850Y-81449500D01*
X137327843Y-81449500D01*
X136472157Y-81449500D01*
X136472149Y-81449500D01*
X136246826Y-81479165D01*
X136218660Y-81482874D01*
X135971687Y-81549050D01*
X135971677Y-81549053D01*
X135735468Y-81646894D01*
X135735457Y-81646899D01*
X135514042Y-81774734D01*
X135514026Y-81774745D01*
X135311188Y-81930388D01*
X135311181Y-81930394D01*
X135130394Y-82111181D01*
X135130388Y-82111188D01*
X134974745Y-82314026D01*
X134974734Y-82314042D01*
X134907387Y-82430691D01*
X134856820Y-82478907D01*
X134788213Y-82492129D01*
X134723348Y-82466161D01*
X134692613Y-82430691D01*
X134625265Y-82314042D01*
X134625261Y-82314035D01*
X134469610Y-82111187D01*
X134469605Y-82111181D01*
X134288818Y-81930394D01*
X134288811Y-81930388D01*
X134085973Y-81774745D01*
X134085971Y-81774743D01*
X134085965Y-81774739D01*
X134085960Y-81774736D01*
X134085957Y-81774734D01*
X133864542Y-81646899D01*
X133864531Y-81646894D01*
X133628322Y-81549053D01*
X133628315Y-81549051D01*
X133628313Y-81549050D01*
X133381340Y-81482874D01*
X133325007Y-81475457D01*
X133127850Y-81449500D01*
X133127843Y-81449500D01*
X132272157Y-81449500D01*
X132272149Y-81449500D01*
X132046826Y-81479165D01*
X132018660Y-81482874D01*
X131771687Y-81549050D01*
X131771677Y-81549053D01*
X131535468Y-81646894D01*
X131535457Y-81646899D01*
X131314042Y-81774734D01*
X131314026Y-81774745D01*
X131111188Y-81930388D01*
X131111181Y-81930394D01*
X130930394Y-82111181D01*
X130930388Y-82111188D01*
X130774745Y-82314026D01*
X130774734Y-82314042D01*
X130646899Y-82535457D01*
X130646894Y-82535468D01*
X130549053Y-82771677D01*
X130549050Y-82771687D01*
X130482874Y-83018661D01*
X130449500Y-83272149D01*
X123250500Y-83272149D01*
X123250500Y-79072149D01*
X130449500Y-79072149D01*
X130449500Y-79327850D01*
X130475457Y-79525006D01*
X130482874Y-79581340D01*
X130528867Y-79752989D01*
X130549050Y-79828312D01*
X130549053Y-79828322D01*
X130646894Y-80064531D01*
X130646899Y-80064542D01*
X130774734Y-80285957D01*
X130774745Y-80285973D01*
X130930388Y-80488811D01*
X130930394Y-80488818D01*
X131111181Y-80669605D01*
X131111187Y-80669610D01*
X131314035Y-80825261D01*
X131314042Y-80825265D01*
X131535457Y-80953100D01*
X131535462Y-80953102D01*
X131535465Y-80953104D01*
X131771687Y-81050950D01*
X132018660Y-81117126D01*
X132272157Y-81150500D01*
X132272164Y-81150500D01*
X133127836Y-81150500D01*
X133127843Y-81150500D01*
X133381340Y-81117126D01*
X133628313Y-81050950D01*
X133864535Y-80953104D01*
X134085965Y-80825261D01*
X134288813Y-80669610D01*
X134469610Y-80488813D01*
X134625261Y-80285965D01*
X134692613Y-80169307D01*
X134743180Y-80121092D01*
X134811787Y-80107869D01*
X134876652Y-80133837D01*
X134907386Y-80169307D01*
X134974739Y-80285965D01*
X134974744Y-80285971D01*
X134974745Y-80285973D01*
X135130388Y-80488811D01*
X135130394Y-80488818D01*
X135311181Y-80669605D01*
X135311187Y-80669610D01*
X135514035Y-80825261D01*
X135514042Y-80825265D01*
X135735457Y-80953100D01*
X135735462Y-80953102D01*
X135735465Y-80953104D01*
X135971687Y-81050950D01*
X136218660Y-81117126D01*
X136472157Y-81150500D01*
X136472164Y-81150500D01*
X137327836Y-81150500D01*
X137327843Y-81150500D01*
X137581340Y-81117126D01*
X137828313Y-81050950D01*
X138064535Y-80953104D01*
X138285965Y-80825261D01*
X138488813Y-80669610D01*
X138669610Y-80488813D01*
X138825261Y-80285965D01*
X138953104Y-80064535D01*
X138985222Y-79986995D01*
X171899500Y-79986995D01*
X171899500Y-80223004D01*
X171899501Y-80223020D01*
X171930306Y-80457010D01*
X171991394Y-80684993D01*
X172081714Y-80903045D01*
X172081719Y-80903056D01*
X172152677Y-81025957D01*
X172199727Y-81107450D01*
X172199729Y-81107453D01*
X172199730Y-81107454D01*
X172343406Y-81294697D01*
X172343412Y-81294704D01*
X172510295Y-81461587D01*
X172510301Y-81461592D01*
X172697550Y-81605273D01*
X172828918Y-81681118D01*
X172901943Y-81723280D01*
X172901948Y-81723282D01*
X172901951Y-81723284D01*
X173120007Y-81813606D01*
X173347986Y-81874693D01*
X173581989Y-81905500D01*
X173581996Y-81905500D01*
X173818004Y-81905500D01*
X173818011Y-81905500D01*
X174052014Y-81874693D01*
X174279993Y-81813606D01*
X174498049Y-81723284D01*
X174702450Y-81605273D01*
X174889699Y-81461592D01*
X175056592Y-81294699D01*
X175200273Y-81107450D01*
X175318284Y-80903049D01*
X175408606Y-80684993D01*
X175469693Y-80457014D01*
X175500500Y-80223011D01*
X175500500Y-79986989D01*
X175469693Y-79752986D01*
X175408606Y-79525007D01*
X175318284Y-79306951D01*
X175318282Y-79306948D01*
X175318280Y-79306943D01*
X175276118Y-79233918D01*
X175200273Y-79102550D01*
X175056592Y-78915301D01*
X175056587Y-78915295D01*
X174889704Y-78748412D01*
X174889697Y-78748406D01*
X174702454Y-78604730D01*
X174702453Y-78604729D01*
X174702450Y-78604727D01*
X174620957Y-78557677D01*
X174498056Y-78486719D01*
X174498045Y-78486714D01*
X174279993Y-78396394D01*
X174052615Y-78335468D01*
X174052014Y-78335307D01*
X174052013Y-78335306D01*
X174052010Y-78335306D01*
X173818020Y-78304501D01*
X173818017Y-78304500D01*
X173818011Y-78304500D01*
X173581989Y-78304500D01*
X173581983Y-78304500D01*
X173581979Y-78304501D01*
X173347989Y-78335306D01*
X173120006Y-78396394D01*
X172901954Y-78486714D01*
X172901943Y-78486719D01*
X172697545Y-78604730D01*
X172510302Y-78748406D01*
X172510295Y-78748412D01*
X172343412Y-78915295D01*
X172343406Y-78915302D01*
X172199730Y-79102545D01*
X172081719Y-79306943D01*
X172081714Y-79306954D01*
X171991394Y-79525006D01*
X171930306Y-79752989D01*
X171899501Y-79986979D01*
X171899500Y-79986995D01*
X138985222Y-79986995D01*
X139006562Y-79935477D01*
X139006562Y-79935475D01*
X139050944Y-79828328D01*
X139050946Y-79828322D01*
X139050950Y-79828313D01*
X139117126Y-79581340D01*
X139150500Y-79327843D01*
X139150500Y-79072157D01*
X139117126Y-78818660D01*
X139050950Y-78571687D01*
X138953104Y-78335465D01*
X138953102Y-78335462D01*
X138953100Y-78335457D01*
X138825265Y-78114042D01*
X138825261Y-78114035D01*
X138669610Y-77911187D01*
X138669605Y-77911181D01*
X138488818Y-77730394D01*
X138488811Y-77730388D01*
X138285973Y-77574745D01*
X138285971Y-77574743D01*
X138285965Y-77574739D01*
X138285960Y-77574736D01*
X138285957Y-77574734D01*
X138064542Y-77446899D01*
X138064531Y-77446894D01*
X137828322Y-77349053D01*
X137828315Y-77349051D01*
X137828313Y-77349050D01*
X137581340Y-77282874D01*
X137525007Y-77275457D01*
X137327850Y-77249500D01*
X137327843Y-77249500D01*
X136472157Y-77249500D01*
X136472149Y-77249500D01*
X136246826Y-77279165D01*
X136218660Y-77282874D01*
X135971687Y-77349050D01*
X135971677Y-77349053D01*
X135735468Y-77446894D01*
X135735457Y-77446899D01*
X135514042Y-77574734D01*
X135514026Y-77574745D01*
X135311188Y-77730388D01*
X135311181Y-77730394D01*
X135130394Y-77911181D01*
X135130388Y-77911188D01*
X134974745Y-78114026D01*
X134974734Y-78114042D01*
X134907387Y-78230691D01*
X134856820Y-78278907D01*
X134788213Y-78292129D01*
X134723348Y-78266161D01*
X134692613Y-78230691D01*
X134625265Y-78114042D01*
X134625261Y-78114035D01*
X134469610Y-77911187D01*
X134469605Y-77911181D01*
X134288818Y-77730394D01*
X134288811Y-77730388D01*
X134085973Y-77574745D01*
X134085971Y-77574743D01*
X134085965Y-77574739D01*
X134085960Y-77574736D01*
X134085957Y-77574734D01*
X133864542Y-77446899D01*
X133864531Y-77446894D01*
X133628322Y-77349053D01*
X133628315Y-77349051D01*
X133628313Y-77349050D01*
X133381340Y-77282874D01*
X133325007Y-77275457D01*
X133127850Y-77249500D01*
X133127843Y-77249500D01*
X132272157Y-77249500D01*
X132272149Y-77249500D01*
X132046826Y-77279165D01*
X132018660Y-77282874D01*
X131771687Y-77349050D01*
X131771677Y-77349053D01*
X131535468Y-77446894D01*
X131535457Y-77446899D01*
X131314042Y-77574734D01*
X131314026Y-77574745D01*
X131111188Y-77730388D01*
X131111181Y-77730394D01*
X130930394Y-77911181D01*
X130930388Y-77911188D01*
X130774745Y-78114026D01*
X130774734Y-78114042D01*
X130646899Y-78335457D01*
X130646894Y-78335468D01*
X130549053Y-78571677D01*
X130549050Y-78571687D01*
X130501699Y-78748406D01*
X130482874Y-78818661D01*
X130449500Y-79072149D01*
X123250500Y-79072149D01*
X123250500Y-74872149D01*
X130449500Y-74872149D01*
X130449500Y-75127850D01*
X130475457Y-75325007D01*
X130482874Y-75381340D01*
X130549050Y-75628312D01*
X130549053Y-75628322D01*
X130646894Y-75864531D01*
X130646899Y-75864542D01*
X130774734Y-76085957D01*
X130774745Y-76085973D01*
X130930388Y-76288811D01*
X130930394Y-76288818D01*
X131111181Y-76469605D01*
X131111187Y-76469610D01*
X131314035Y-76625261D01*
X131314042Y-76625265D01*
X131535457Y-76753100D01*
X131535462Y-76753102D01*
X131535465Y-76753104D01*
X131771687Y-76850950D01*
X132018660Y-76917126D01*
X132272157Y-76950500D01*
X132272164Y-76950500D01*
X133127836Y-76950500D01*
X133127843Y-76950500D01*
X133381340Y-76917126D01*
X133628313Y-76850950D01*
X133864535Y-76753104D01*
X134085965Y-76625261D01*
X134288813Y-76469610D01*
X134469610Y-76288813D01*
X134625261Y-76085965D01*
X134692613Y-75969307D01*
X134743180Y-75921092D01*
X134811787Y-75907869D01*
X134876652Y-75933837D01*
X134907386Y-75969307D01*
X134974739Y-76085965D01*
X134974744Y-76085971D01*
X134974745Y-76085973D01*
X135130388Y-76288811D01*
X135130394Y-76288818D01*
X135311181Y-76469605D01*
X135311187Y-76469610D01*
X135514035Y-76625261D01*
X135514042Y-76625265D01*
X135735457Y-76753100D01*
X135735462Y-76753102D01*
X135735465Y-76753104D01*
X135971687Y-76850950D01*
X136218660Y-76917126D01*
X136472157Y-76950500D01*
X136472164Y-76950500D01*
X137327836Y-76950500D01*
X137327843Y-76950500D01*
X137581340Y-76917126D01*
X137828313Y-76850950D01*
X138064535Y-76753104D01*
X138285965Y-76625261D01*
X138488813Y-76469610D01*
X138669610Y-76288813D01*
X138825261Y-76085965D01*
X138953104Y-75864535D01*
X139050950Y-75628313D01*
X139117126Y-75381340D01*
X139150500Y-75127843D01*
X139150500Y-74872157D01*
X139117126Y-74618660D01*
X139050950Y-74371687D01*
X138953104Y-74135465D01*
X138953102Y-74135462D01*
X138953100Y-74135457D01*
X138825265Y-73914042D01*
X138825261Y-73914035D01*
X138669610Y-73711187D01*
X138669605Y-73711181D01*
X138488818Y-73530394D01*
X138488811Y-73530388D01*
X138285973Y-73374745D01*
X138285971Y-73374743D01*
X138285965Y-73374739D01*
X138285960Y-73374736D01*
X138285957Y-73374734D01*
X138064542Y-73246899D01*
X138064531Y-73246894D01*
X137828322Y-73149053D01*
X137828315Y-73149051D01*
X137828313Y-73149050D01*
X137581340Y-73082874D01*
X137525007Y-73075457D01*
X137327850Y-73049500D01*
X137327843Y-73049500D01*
X136472157Y-73049500D01*
X136472149Y-73049500D01*
X136246826Y-73079165D01*
X136218660Y-73082874D01*
X135971687Y-73149050D01*
X135971677Y-73149053D01*
X135735468Y-73246894D01*
X135735457Y-73246899D01*
X135514042Y-73374734D01*
X135514026Y-73374745D01*
X135311188Y-73530388D01*
X135311181Y-73530394D01*
X135130394Y-73711181D01*
X135130388Y-73711188D01*
X134974745Y-73914026D01*
X134974734Y-73914042D01*
X134907387Y-74030691D01*
X134856820Y-74078907D01*
X134788213Y-74092129D01*
X134723348Y-74066161D01*
X134692613Y-74030691D01*
X134625265Y-73914042D01*
X134625261Y-73914035D01*
X134469610Y-73711187D01*
X134469605Y-73711181D01*
X134288818Y-73530394D01*
X134288811Y-73530388D01*
X134085973Y-73374745D01*
X134085971Y-73374743D01*
X134085965Y-73374739D01*
X134085960Y-73374736D01*
X134085957Y-73374734D01*
X133864542Y-73246899D01*
X133864531Y-73246894D01*
X133628322Y-73149053D01*
X133628315Y-73149051D01*
X133628313Y-73149050D01*
X133381340Y-73082874D01*
X133325007Y-73075457D01*
X133127850Y-73049500D01*
X133127843Y-73049500D01*
X132272157Y-73049500D01*
X132272149Y-73049500D01*
X132046826Y-73079165D01*
X132018660Y-73082874D01*
X131771687Y-73149050D01*
X131771677Y-73149053D01*
X131535468Y-73246894D01*
X131535457Y-73246899D01*
X131314042Y-73374734D01*
X131314026Y-73374745D01*
X131111188Y-73530388D01*
X131111181Y-73530394D01*
X130930394Y-73711181D01*
X130930388Y-73711188D01*
X130774745Y-73914026D01*
X130774734Y-73914042D01*
X130646899Y-74135457D01*
X130646894Y-74135468D01*
X130549053Y-74371677D01*
X130549050Y-74371687D01*
X130482874Y-74618661D01*
X130449500Y-74872149D01*
X123250500Y-74872149D01*
X123250500Y-70672149D01*
X130449500Y-70672149D01*
X130449500Y-70927850D01*
X130475457Y-71125007D01*
X130482874Y-71181340D01*
X130549050Y-71428312D01*
X130549053Y-71428322D01*
X130646894Y-71664531D01*
X130646899Y-71664542D01*
X130774734Y-71885957D01*
X130774745Y-71885973D01*
X130930388Y-72088811D01*
X130930394Y-72088818D01*
X131111181Y-72269605D01*
X131111187Y-72269610D01*
X131314035Y-72425261D01*
X131314042Y-72425265D01*
X131535457Y-72553100D01*
X131535462Y-72553102D01*
X131535465Y-72553104D01*
X131771687Y-72650950D01*
X132018660Y-72717126D01*
X132272157Y-72750500D01*
X132272164Y-72750500D01*
X133127836Y-72750500D01*
X133127843Y-72750500D01*
X133381340Y-72717126D01*
X133628313Y-72650950D01*
X133864535Y-72553104D01*
X134085965Y-72425261D01*
X134288813Y-72269610D01*
X134469610Y-72088813D01*
X134625261Y-71885965D01*
X134692613Y-71769307D01*
X134743180Y-71721092D01*
X134811787Y-71707869D01*
X134876652Y-71733837D01*
X134907386Y-71769307D01*
X134974739Y-71885965D01*
X134974744Y-71885971D01*
X134974745Y-71885973D01*
X135130388Y-72088811D01*
X135130394Y-72088818D01*
X135311181Y-72269605D01*
X135311187Y-72269610D01*
X135514035Y-72425261D01*
X135514042Y-72425265D01*
X135735457Y-72553100D01*
X135735462Y-72553102D01*
X135735465Y-72553104D01*
X135971687Y-72650950D01*
X136218660Y-72717126D01*
X136472157Y-72750500D01*
X136472164Y-72750500D01*
X137327836Y-72750500D01*
X137327843Y-72750500D01*
X137581340Y-72717126D01*
X137828313Y-72650950D01*
X138064535Y-72553104D01*
X138285965Y-72425261D01*
X138488813Y-72269610D01*
X138669610Y-72088813D01*
X138825261Y-71885965D01*
X138953104Y-71664535D01*
X139050950Y-71428313D01*
X139117126Y-71181340D01*
X139150500Y-70927843D01*
X139150500Y-70672157D01*
X139117126Y-70418660D01*
X139050950Y-70171687D01*
X138953104Y-69935465D01*
X138953102Y-69935462D01*
X138953100Y-69935457D01*
X138825265Y-69714042D01*
X138825261Y-69714035D01*
X138712540Y-69567135D01*
X171899500Y-69567135D01*
X171899500Y-72262870D01*
X171899501Y-72262876D01*
X171905908Y-72322483D01*
X171956202Y-72457328D01*
X171956206Y-72457335D01*
X172042452Y-72572544D01*
X172042455Y-72572547D01*
X172157664Y-72658793D01*
X172157671Y-72658797D01*
X172292517Y-72709091D01*
X172292516Y-72709091D01*
X172299444Y-72709835D01*
X172352127Y-72715500D01*
X175047872Y-72715499D01*
X175107483Y-72709091D01*
X175242331Y-72658796D01*
X175357546Y-72572546D01*
X175443796Y-72457331D01*
X175494091Y-72322483D01*
X175500500Y-72262873D01*
X175500499Y-69567128D01*
X175494091Y-69507517D01*
X175443796Y-69372669D01*
X175443795Y-69372668D01*
X175443793Y-69372664D01*
X175357547Y-69257455D01*
X175357544Y-69257452D01*
X175242335Y-69171206D01*
X175242328Y-69171202D01*
X175107482Y-69120908D01*
X175107483Y-69120908D01*
X175047883Y-69114501D01*
X175047881Y-69114500D01*
X175047873Y-69114500D01*
X175047864Y-69114500D01*
X172352129Y-69114500D01*
X172352123Y-69114501D01*
X172292516Y-69120908D01*
X172157671Y-69171202D01*
X172157664Y-69171206D01*
X172042455Y-69257452D01*
X172042452Y-69257455D01*
X171956206Y-69372664D01*
X171956202Y-69372671D01*
X171905908Y-69507517D01*
X171899501Y-69567116D01*
X171899501Y-69567123D01*
X171899500Y-69567135D01*
X138712540Y-69567135D01*
X138669611Y-69511188D01*
X138669605Y-69511181D01*
X138488818Y-69330394D01*
X138488811Y-69330388D01*
X138285973Y-69174745D01*
X138285971Y-69174743D01*
X138285965Y-69174739D01*
X138285960Y-69174736D01*
X138285957Y-69174734D01*
X138064542Y-69046899D01*
X138064531Y-69046894D01*
X137828322Y-68949053D01*
X137828315Y-68949051D01*
X137828313Y-68949050D01*
X137581340Y-68882874D01*
X137525007Y-68875457D01*
X137327850Y-68849500D01*
X137327843Y-68849500D01*
X136472157Y-68849500D01*
X136472149Y-68849500D01*
X136246826Y-68879165D01*
X136218660Y-68882874D01*
X135971687Y-68949050D01*
X135971677Y-68949053D01*
X135735468Y-69046894D01*
X135735457Y-69046899D01*
X135514042Y-69174734D01*
X135514026Y-69174745D01*
X135311188Y-69330388D01*
X135311181Y-69330394D01*
X135130394Y-69511181D01*
X135130388Y-69511188D01*
X134974745Y-69714026D01*
X134974734Y-69714042D01*
X134907387Y-69830691D01*
X134856820Y-69878907D01*
X134788213Y-69892129D01*
X134723348Y-69866161D01*
X134692613Y-69830691D01*
X134625265Y-69714042D01*
X134625261Y-69714035D01*
X134567909Y-69639292D01*
X134469611Y-69511188D01*
X134469605Y-69511181D01*
X134288818Y-69330394D01*
X134288811Y-69330388D01*
X134085973Y-69174745D01*
X134085971Y-69174743D01*
X134085965Y-69174739D01*
X134085960Y-69174736D01*
X134085957Y-69174734D01*
X133864542Y-69046899D01*
X133864531Y-69046894D01*
X133628322Y-68949053D01*
X133628315Y-68949051D01*
X133628313Y-68949050D01*
X133381340Y-68882874D01*
X133325007Y-68875457D01*
X133127850Y-68849500D01*
X133127843Y-68849500D01*
X132272157Y-68849500D01*
X132272149Y-68849500D01*
X132046826Y-68879165D01*
X132018660Y-68882874D01*
X131771687Y-68949050D01*
X131771677Y-68949053D01*
X131535468Y-69046894D01*
X131535457Y-69046899D01*
X131314042Y-69174734D01*
X131314026Y-69174745D01*
X131111188Y-69330388D01*
X131111181Y-69330394D01*
X130930394Y-69511181D01*
X130930388Y-69511188D01*
X130774745Y-69714026D01*
X130774734Y-69714042D01*
X130646899Y-69935457D01*
X130646894Y-69935468D01*
X130549053Y-70171677D01*
X130549050Y-70171687D01*
X130482874Y-70418661D01*
X130449500Y-70672149D01*
X123250500Y-70672149D01*
X123250500Y-66472149D01*
X130449500Y-66472149D01*
X130449500Y-66727850D01*
X130474463Y-66917450D01*
X130482874Y-66981340D01*
X130549050Y-67228312D01*
X130549053Y-67228322D01*
X130646894Y-67464531D01*
X130646899Y-67464542D01*
X130774734Y-67685957D01*
X130774745Y-67685973D01*
X130930388Y-67888811D01*
X130930394Y-67888818D01*
X131111181Y-68069605D01*
X131111187Y-68069610D01*
X131314035Y-68225261D01*
X131314042Y-68225265D01*
X131535457Y-68353100D01*
X131535462Y-68353102D01*
X131535465Y-68353104D01*
X131771687Y-68450950D01*
X132018660Y-68517126D01*
X132272157Y-68550500D01*
X132272164Y-68550500D01*
X133127836Y-68550500D01*
X133127843Y-68550500D01*
X133381340Y-68517126D01*
X133628313Y-68450950D01*
X133864535Y-68353104D01*
X134085965Y-68225261D01*
X134288813Y-68069610D01*
X134469610Y-67888813D01*
X134625261Y-67685965D01*
X134692613Y-67569307D01*
X134743180Y-67521092D01*
X134811787Y-67507869D01*
X134876652Y-67533837D01*
X134907386Y-67569307D01*
X134974739Y-67685965D01*
X134974744Y-67685971D01*
X134974745Y-67685973D01*
X135130388Y-67888811D01*
X135130394Y-67888818D01*
X135311181Y-68069605D01*
X135311187Y-68069610D01*
X135514035Y-68225261D01*
X135514042Y-68225265D01*
X135735457Y-68353100D01*
X135735462Y-68353102D01*
X135735465Y-68353104D01*
X135971687Y-68450950D01*
X136218660Y-68517126D01*
X136472157Y-68550500D01*
X136472164Y-68550500D01*
X137327836Y-68550500D01*
X137327843Y-68550500D01*
X137581340Y-68517126D01*
X137828313Y-68450950D01*
X138064535Y-68353104D01*
X138285965Y-68225261D01*
X138488813Y-68069610D01*
X138669610Y-67888813D01*
X138825261Y-67685965D01*
X138953104Y-67464535D01*
X139050950Y-67228313D01*
X139117126Y-66981340D01*
X139150500Y-66727843D01*
X139150500Y-66472157D01*
X139117126Y-66218660D01*
X139050950Y-65971687D01*
X139050945Y-65971677D01*
X139050944Y-65971671D01*
X138996563Y-65840382D01*
X138978590Y-65796995D01*
X171899500Y-65796995D01*
X171899500Y-66033004D01*
X171899501Y-66033020D01*
X171930306Y-66267010D01*
X171991394Y-66494993D01*
X172081714Y-66713045D01*
X172081719Y-66713056D01*
X172152677Y-66835957D01*
X172199727Y-66917450D01*
X172199729Y-66917453D01*
X172199730Y-66917454D01*
X172343406Y-67104697D01*
X172343412Y-67104704D01*
X172510295Y-67271587D01*
X172510301Y-67271592D01*
X172697550Y-67415273D01*
X172828918Y-67491118D01*
X172901943Y-67533280D01*
X172901948Y-67533282D01*
X172901951Y-67533284D01*
X173120007Y-67623606D01*
X173347986Y-67684693D01*
X173581989Y-67715500D01*
X173581996Y-67715500D01*
X173818004Y-67715500D01*
X173818011Y-67715500D01*
X174052014Y-67684693D01*
X174279993Y-67623606D01*
X174498049Y-67533284D01*
X174702450Y-67415273D01*
X174889699Y-67271592D01*
X175056592Y-67104699D01*
X175200273Y-66917450D01*
X175318284Y-66713049D01*
X175408606Y-66494993D01*
X175469693Y-66267014D01*
X175500500Y-66033011D01*
X175500500Y-65796989D01*
X175469693Y-65562986D01*
X175408606Y-65335007D01*
X175318284Y-65116951D01*
X175318282Y-65116948D01*
X175318280Y-65116943D01*
X175236181Y-64974745D01*
X175200273Y-64912550D01*
X175056592Y-64725301D01*
X175056587Y-64725295D01*
X174889704Y-64558412D01*
X174889697Y-64558406D01*
X174702454Y-64414730D01*
X174702453Y-64414729D01*
X174702450Y-64414727D01*
X174620957Y-64367677D01*
X174498056Y-64296719D01*
X174498045Y-64296714D01*
X174279993Y-64206394D01*
X174052010Y-64145306D01*
X173818020Y-64114501D01*
X173818017Y-64114500D01*
X173818011Y-64114500D01*
X173581989Y-64114500D01*
X173581983Y-64114500D01*
X173581979Y-64114501D01*
X173347989Y-64145306D01*
X173120006Y-64206394D01*
X172901954Y-64296714D01*
X172901943Y-64296719D01*
X172697545Y-64414730D01*
X172510302Y-64558406D01*
X172510295Y-64558412D01*
X172343412Y-64725295D01*
X172343406Y-64725302D01*
X172199730Y-64912545D01*
X172081719Y-65116943D01*
X172081714Y-65116954D01*
X171991394Y-65335006D01*
X171930306Y-65562989D01*
X171899501Y-65796979D01*
X171899500Y-65796995D01*
X138978590Y-65796995D01*
X138969225Y-65774386D01*
X138953104Y-65735465D01*
X138953101Y-65735460D01*
X138953100Y-65735457D01*
X138825265Y-65514042D01*
X138825261Y-65514035D01*
X138669610Y-65311187D01*
X138669605Y-65311181D01*
X138488818Y-65130394D01*
X138488811Y-65130388D01*
X138285973Y-64974745D01*
X138285971Y-64974743D01*
X138285965Y-64974739D01*
X138285960Y-64974736D01*
X138285957Y-64974734D01*
X138064542Y-64846899D01*
X138064531Y-64846894D01*
X137828322Y-64749053D01*
X137828315Y-64749051D01*
X137828313Y-64749050D01*
X137581340Y-64682874D01*
X137525007Y-64675457D01*
X137327850Y-64649500D01*
X137327843Y-64649500D01*
X136472157Y-64649500D01*
X136472149Y-64649500D01*
X136246826Y-64679165D01*
X136218660Y-64682874D01*
X136060320Y-64725301D01*
X135971687Y-64749050D01*
X135971677Y-64749053D01*
X135735468Y-64846894D01*
X135735457Y-64846899D01*
X135514042Y-64974734D01*
X135514026Y-64974745D01*
X135311188Y-65130388D01*
X135311181Y-65130394D01*
X135130394Y-65311181D01*
X135130388Y-65311188D01*
X134974745Y-65514026D01*
X134974734Y-65514042D01*
X134907387Y-65630691D01*
X134856820Y-65678907D01*
X134788213Y-65692129D01*
X134723348Y-65666161D01*
X134692613Y-65630691D01*
X134625265Y-65514042D01*
X134625261Y-65514035D01*
X134469610Y-65311187D01*
X134469605Y-65311181D01*
X134288818Y-65130394D01*
X134288811Y-65130388D01*
X134085973Y-64974745D01*
X134085971Y-64974743D01*
X134085965Y-64974739D01*
X134085960Y-64974736D01*
X134085957Y-64974734D01*
X133864542Y-64846899D01*
X133864531Y-64846894D01*
X133628322Y-64749053D01*
X133628315Y-64749051D01*
X133628313Y-64749050D01*
X133381340Y-64682874D01*
X133325007Y-64675457D01*
X133127850Y-64649500D01*
X133127843Y-64649500D01*
X132272157Y-64649500D01*
X132272149Y-64649500D01*
X132046826Y-64679165D01*
X132018660Y-64682874D01*
X131860320Y-64725301D01*
X131771687Y-64749050D01*
X131771677Y-64749053D01*
X131535468Y-64846894D01*
X131535457Y-64846899D01*
X131314042Y-64974734D01*
X131314026Y-64974745D01*
X131111188Y-65130388D01*
X131111181Y-65130394D01*
X130930394Y-65311181D01*
X130930388Y-65311188D01*
X130774745Y-65514026D01*
X130774734Y-65514042D01*
X130646899Y-65735457D01*
X130646894Y-65735468D01*
X130549053Y-65971677D01*
X130549050Y-65971687D01*
X130482874Y-66218661D01*
X130449500Y-66472149D01*
X123250500Y-66472149D01*
X123250500Y-54182014D01*
X128835000Y-54182014D01*
X128835000Y-54417985D01*
X128865799Y-54651914D01*
X128926870Y-54879837D01*
X129017160Y-55097819D01*
X129017165Y-55097828D01*
X129135144Y-55302171D01*
X129135145Y-55302172D01*
X129197721Y-55383723D01*
X130033958Y-54547487D01*
X130058978Y-54607890D01*
X130130112Y-54714351D01*
X130220649Y-54804888D01*
X130327110Y-54876022D01*
X130387511Y-54901041D01*
X129551275Y-55737277D01*
X129632827Y-55799854D01*
X129632828Y-55799855D01*
X129837171Y-55917834D01*
X129837180Y-55917839D01*
X130055163Y-56008129D01*
X130055161Y-56008129D01*
X130283085Y-56069200D01*
X130517014Y-56099999D01*
X130517029Y-56100000D01*
X130752971Y-56100000D01*
X130752985Y-56099999D01*
X130986914Y-56069200D01*
X131214837Y-56008129D01*
X131432819Y-55917839D01*
X131432828Y-55917834D01*
X131637181Y-55799850D01*
X131718723Y-55737279D01*
X131718723Y-55737276D01*
X130882487Y-54901041D01*
X130942890Y-54876022D01*
X131049351Y-54804888D01*
X131139888Y-54714351D01*
X131211022Y-54607890D01*
X131236041Y-54547488D01*
X132072276Y-55383723D01*
X132072279Y-55383723D01*
X132134850Y-55302181D01*
X132252834Y-55097828D01*
X132252839Y-55097819D01*
X132343129Y-54879837D01*
X132404200Y-54651914D01*
X132426512Y-54482452D01*
X132426512Y-54482451D01*
X132434998Y-54417988D01*
X132435000Y-54417971D01*
X132435000Y-54182028D01*
X132434999Y-54182014D01*
X132404200Y-53948085D01*
X132343129Y-53720162D01*
X132252839Y-53502180D01*
X132252834Y-53502171D01*
X132134855Y-53297828D01*
X132134854Y-53297827D01*
X132072277Y-53216275D01*
X131236041Y-54052511D01*
X131211022Y-53992110D01*
X131139888Y-53885649D01*
X131049351Y-53795112D01*
X130942890Y-53723978D01*
X130882488Y-53698958D01*
X131629289Y-52952155D01*
X133835000Y-52952155D01*
X133835000Y-54050000D01*
X135034999Y-54050000D01*
X135009979Y-54110402D01*
X134985000Y-54235981D01*
X134985000Y-54364019D01*
X135009979Y-54489598D01*
X135034999Y-54550000D01*
X133835000Y-54550000D01*
X133835000Y-55647844D01*
X133841401Y-55707372D01*
X133841403Y-55707379D01*
X133891645Y-55842086D01*
X133891649Y-55842093D01*
X133977809Y-55957187D01*
X133977812Y-55957190D01*
X134092906Y-56043350D01*
X134092913Y-56043354D01*
X134227620Y-56093596D01*
X134227627Y-56093598D01*
X134287155Y-56099999D01*
X134287172Y-56100000D01*
X135385000Y-56100000D01*
X135385000Y-54900001D01*
X135445402Y-54925021D01*
X135570981Y-54950000D01*
X135699019Y-54950000D01*
X135824598Y-54925021D01*
X135885000Y-54900001D01*
X135885000Y-56100000D01*
X136982828Y-56100000D01*
X136982844Y-56099999D01*
X137042372Y-56093598D01*
X137042379Y-56093596D01*
X137177086Y-56043354D01*
X137177093Y-56043350D01*
X137292187Y-55957190D01*
X137292190Y-55957187D01*
X137378350Y-55842093D01*
X137378354Y-55842086D01*
X137428596Y-55707379D01*
X137428598Y-55707372D01*
X137431964Y-55676070D01*
X137431964Y-55676067D01*
X137434999Y-55647839D01*
X137435000Y-55647827D01*
X137435000Y-54550000D01*
X136235001Y-54550000D01*
X136260021Y-54489598D01*
X136285000Y-54364019D01*
X136285000Y-54235981D01*
X136274265Y-54182014D01*
X141956667Y-54182014D01*
X141956667Y-54417985D01*
X141987466Y-54651914D01*
X142048537Y-54879837D01*
X142138827Y-55097819D01*
X142138832Y-55097828D01*
X142256811Y-55302171D01*
X142256812Y-55302172D01*
X142319388Y-55383723D01*
X143155625Y-54547487D01*
X143180645Y-54607890D01*
X143251779Y-54714351D01*
X143342316Y-54804888D01*
X143448777Y-54876022D01*
X143509178Y-54901041D01*
X142672942Y-55737277D01*
X142754494Y-55799854D01*
X142754495Y-55799855D01*
X142958838Y-55917834D01*
X142958847Y-55917839D01*
X143176830Y-56008129D01*
X143176828Y-56008129D01*
X143404752Y-56069200D01*
X143638681Y-56099999D01*
X143638696Y-56100000D01*
X143874638Y-56100000D01*
X143874652Y-56099999D01*
X144108581Y-56069200D01*
X144336504Y-56008129D01*
X144554486Y-55917839D01*
X144554495Y-55917834D01*
X144758848Y-55799850D01*
X144840390Y-55737279D01*
X144840390Y-55737276D01*
X144004154Y-54901041D01*
X144064557Y-54876022D01*
X144171018Y-54804888D01*
X144261555Y-54714351D01*
X144332689Y-54607890D01*
X144357708Y-54547488D01*
X145193943Y-55383723D01*
X145193946Y-55383723D01*
X145256517Y-55302181D01*
X145374501Y-55097828D01*
X145374506Y-55097819D01*
X145464796Y-54879837D01*
X145525867Y-54651914D01*
X145548179Y-54482452D01*
X145548179Y-54482451D01*
X145556665Y-54417988D01*
X145556667Y-54417971D01*
X145556667Y-54182021D01*
X145525867Y-53948085D01*
X145464796Y-53720162D01*
X145374506Y-53502180D01*
X145374501Y-53502171D01*
X145256522Y-53297828D01*
X145256521Y-53297827D01*
X145193944Y-53216275D01*
X144357708Y-54052511D01*
X144332689Y-53992110D01*
X144261555Y-53885649D01*
X144171018Y-53795112D01*
X144064557Y-53723978D01*
X144004155Y-53698958D01*
X144750956Y-52952155D01*
X146956667Y-52952155D01*
X146956667Y-54050000D01*
X148156666Y-54050000D01*
X148131646Y-54110402D01*
X148106667Y-54235981D01*
X148106667Y-54364019D01*
X148131646Y-54489598D01*
X148156666Y-54550000D01*
X146956667Y-54550000D01*
X146956667Y-55647844D01*
X146963068Y-55707372D01*
X146963070Y-55707379D01*
X147013312Y-55842086D01*
X147013316Y-55842093D01*
X147099476Y-55957187D01*
X147099479Y-55957190D01*
X147214573Y-56043350D01*
X147214580Y-56043354D01*
X147349287Y-56093596D01*
X147349294Y-56093598D01*
X147408822Y-56099999D01*
X147408839Y-56100000D01*
X148506667Y-56100000D01*
X148506667Y-54900001D01*
X148567069Y-54925021D01*
X148692648Y-54950000D01*
X148820686Y-54950000D01*
X148946265Y-54925021D01*
X149006667Y-54900001D01*
X149006667Y-56100000D01*
X150104495Y-56100000D01*
X150104511Y-56099999D01*
X150164039Y-56093598D01*
X150164046Y-56093596D01*
X150298753Y-56043354D01*
X150298760Y-56043350D01*
X150413854Y-55957190D01*
X150413857Y-55957187D01*
X150500017Y-55842093D01*
X150500021Y-55842086D01*
X150550263Y-55707379D01*
X150550265Y-55707372D01*
X150556666Y-55647844D01*
X150556667Y-55647827D01*
X150556667Y-54550000D01*
X149356668Y-54550000D01*
X149381688Y-54489598D01*
X149406667Y-54364019D01*
X149406667Y-54235981D01*
X149395929Y-54181995D01*
X155077833Y-54181995D01*
X155077833Y-54418004D01*
X155077834Y-54418020D01*
X155108639Y-54652010D01*
X155169727Y-54879993D01*
X155260047Y-55098045D01*
X155260052Y-55098056D01*
X155331010Y-55220957D01*
X155378060Y-55302450D01*
X155378062Y-55302453D01*
X155378063Y-55302454D01*
X155521739Y-55489697D01*
X155521745Y-55489704D01*
X155688628Y-55656587D01*
X155688635Y-55656593D01*
X155798639Y-55741001D01*
X155875883Y-55800273D01*
X155948730Y-55842331D01*
X156080276Y-55918280D01*
X156080281Y-55918282D01*
X156080284Y-55918284D01*
X156298340Y-56008606D01*
X156526319Y-56069693D01*
X156760322Y-56100500D01*
X156760329Y-56100500D01*
X156996337Y-56100500D01*
X156996344Y-56100500D01*
X157230347Y-56069693D01*
X157458326Y-56008606D01*
X157676382Y-55918284D01*
X157880783Y-55800273D01*
X158068032Y-55656592D01*
X158234925Y-55489699D01*
X158378606Y-55302450D01*
X158496617Y-55098049D01*
X158586939Y-54879993D01*
X158648026Y-54652014D01*
X158678833Y-54418011D01*
X158678833Y-54181989D01*
X158648026Y-53947986D01*
X158586939Y-53720007D01*
X158496617Y-53501951D01*
X158496615Y-53501948D01*
X158496613Y-53501943D01*
X158454451Y-53428918D01*
X158378606Y-53297550D01*
X158234925Y-53110301D01*
X158234920Y-53110295D01*
X158076760Y-52952135D01*
X160077833Y-52952135D01*
X160077833Y-55647870D01*
X160077834Y-55647876D01*
X160084241Y-55707483D01*
X160134535Y-55842328D01*
X160134539Y-55842335D01*
X160220785Y-55957544D01*
X160220788Y-55957547D01*
X160335997Y-56043793D01*
X160336004Y-56043797D01*
X160470850Y-56094091D01*
X160470849Y-56094091D01*
X160477777Y-56094835D01*
X160530460Y-56100500D01*
X163226205Y-56100499D01*
X163285816Y-56094091D01*
X163420664Y-56043796D01*
X163535879Y-55957546D01*
X163622129Y-55842331D01*
X163672424Y-55707483D01*
X163678833Y-55647873D01*
X163678832Y-54181995D01*
X168199500Y-54181995D01*
X168199500Y-54418004D01*
X168199501Y-54418020D01*
X168230306Y-54652010D01*
X168291394Y-54879993D01*
X168381714Y-55098045D01*
X168381719Y-55098056D01*
X168452677Y-55220957D01*
X168499727Y-55302450D01*
X168499729Y-55302453D01*
X168499730Y-55302454D01*
X168643406Y-55489697D01*
X168643412Y-55489704D01*
X168810295Y-55656587D01*
X168810302Y-55656593D01*
X168920306Y-55741001D01*
X168997550Y-55800273D01*
X169070397Y-55842331D01*
X169201943Y-55918280D01*
X169201948Y-55918282D01*
X169201951Y-55918284D01*
X169420007Y-56008606D01*
X169647986Y-56069693D01*
X169881989Y-56100500D01*
X169881996Y-56100500D01*
X170118004Y-56100500D01*
X170118011Y-56100500D01*
X170352014Y-56069693D01*
X170579993Y-56008606D01*
X170798049Y-55918284D01*
X171002450Y-55800273D01*
X171189699Y-55656592D01*
X171356592Y-55489699D01*
X171500273Y-55302450D01*
X171618284Y-55098049D01*
X171708606Y-54879993D01*
X171769693Y-54652014D01*
X171800500Y-54418011D01*
X171800500Y-54181989D01*
X171769693Y-53947986D01*
X171708606Y-53720007D01*
X171618284Y-53501951D01*
X171618282Y-53501948D01*
X171618280Y-53501943D01*
X171576118Y-53428918D01*
X171500273Y-53297550D01*
X171356592Y-53110301D01*
X171356587Y-53110295D01*
X171198427Y-52952135D01*
X173199500Y-52952135D01*
X173199500Y-55647870D01*
X173199501Y-55647876D01*
X173205908Y-55707483D01*
X173256202Y-55842328D01*
X173256206Y-55842335D01*
X173342452Y-55957544D01*
X173342455Y-55957547D01*
X173457664Y-56043793D01*
X173457671Y-56043797D01*
X173592517Y-56094091D01*
X173592516Y-56094091D01*
X173599444Y-56094835D01*
X173652127Y-56100500D01*
X176347872Y-56100499D01*
X176407483Y-56094091D01*
X176542331Y-56043796D01*
X176657546Y-55957546D01*
X176743796Y-55842331D01*
X176794091Y-55707483D01*
X176800500Y-55647873D01*
X176800499Y-52952128D01*
X176794091Y-52892517D01*
X176782977Y-52862720D01*
X176743797Y-52757671D01*
X176743793Y-52757664D01*
X176657547Y-52642455D01*
X176657544Y-52642452D01*
X176542335Y-52556206D01*
X176542328Y-52556202D01*
X176407482Y-52505908D01*
X176407483Y-52505908D01*
X176347883Y-52499501D01*
X176347881Y-52499500D01*
X176347873Y-52499500D01*
X176347864Y-52499500D01*
X173652129Y-52499500D01*
X173652123Y-52499501D01*
X173592516Y-52505908D01*
X173457671Y-52556202D01*
X173457664Y-52556206D01*
X173342455Y-52642452D01*
X173342452Y-52642455D01*
X173256206Y-52757664D01*
X173256202Y-52757671D01*
X173205908Y-52892517D01*
X173200437Y-52943408D01*
X173199501Y-52952123D01*
X173199500Y-52952135D01*
X171198427Y-52952135D01*
X171189704Y-52943412D01*
X171189697Y-52943406D01*
X171002454Y-52799730D01*
X171002453Y-52799729D01*
X171002450Y-52799727D01*
X170920957Y-52752677D01*
X170798056Y-52681719D01*
X170798045Y-52681714D01*
X170579993Y-52591394D01*
X170448670Y-52556206D01*
X170352014Y-52530307D01*
X170352013Y-52530306D01*
X170352010Y-52530306D01*
X170118020Y-52499501D01*
X170118017Y-52499500D01*
X170118011Y-52499500D01*
X169881989Y-52499500D01*
X169881983Y-52499500D01*
X169881979Y-52499501D01*
X169647989Y-52530306D01*
X169420006Y-52591394D01*
X169201954Y-52681714D01*
X169201943Y-52681719D01*
X168997545Y-52799730D01*
X168810302Y-52943406D01*
X168810295Y-52943412D01*
X168643412Y-53110295D01*
X168643406Y-53110302D01*
X168499730Y-53297545D01*
X168499727Y-53297549D01*
X168499727Y-53297550D01*
X168492014Y-53310909D01*
X168381719Y-53501943D01*
X168381714Y-53501954D01*
X168291394Y-53720006D01*
X168230306Y-53947989D01*
X168199501Y-54181979D01*
X168199500Y-54181995D01*
X163678832Y-54181995D01*
X163678832Y-52952128D01*
X163672424Y-52892517D01*
X163661310Y-52862720D01*
X163622130Y-52757671D01*
X163622126Y-52757664D01*
X163535880Y-52642455D01*
X163535877Y-52642452D01*
X163420668Y-52556206D01*
X163420661Y-52556202D01*
X163285815Y-52505908D01*
X163285816Y-52505908D01*
X163226216Y-52499501D01*
X163226214Y-52499500D01*
X163226206Y-52499500D01*
X163226197Y-52499500D01*
X160530462Y-52499500D01*
X160530456Y-52499501D01*
X160470849Y-52505908D01*
X160336004Y-52556202D01*
X160335997Y-52556206D01*
X160220788Y-52642452D01*
X160220785Y-52642455D01*
X160134539Y-52757664D01*
X160134535Y-52757671D01*
X160084241Y-52892517D01*
X160078770Y-52943408D01*
X160077834Y-52952123D01*
X160077833Y-52952135D01*
X158076760Y-52952135D01*
X158068037Y-52943412D01*
X158068030Y-52943406D01*
X157880787Y-52799730D01*
X157880786Y-52799729D01*
X157880783Y-52799727D01*
X157799290Y-52752677D01*
X157676389Y-52681719D01*
X157676378Y-52681714D01*
X157458326Y-52591394D01*
X157327003Y-52556206D01*
X157230347Y-52530307D01*
X157230346Y-52530306D01*
X157230343Y-52530306D01*
X156996353Y-52499501D01*
X156996350Y-52499500D01*
X156996344Y-52499500D01*
X156760322Y-52499500D01*
X156760316Y-52499500D01*
X156760312Y-52499501D01*
X156526322Y-52530306D01*
X156298339Y-52591394D01*
X156080287Y-52681714D01*
X156080276Y-52681719D01*
X155875878Y-52799730D01*
X155688635Y-52943406D01*
X155688628Y-52943412D01*
X155521745Y-53110295D01*
X155521739Y-53110302D01*
X155378063Y-53297545D01*
X155378060Y-53297549D01*
X155378060Y-53297550D01*
X155370347Y-53310909D01*
X155260052Y-53501943D01*
X155260047Y-53501954D01*
X155169727Y-53720006D01*
X155108639Y-53947989D01*
X155077834Y-54181979D01*
X155077833Y-54181995D01*
X149395929Y-54181995D01*
X149381688Y-54110402D01*
X149356668Y-54050000D01*
X150556667Y-54050000D01*
X150556667Y-52952172D01*
X150556666Y-52952155D01*
X150550265Y-52892627D01*
X150550263Y-52892620D01*
X150500021Y-52757913D01*
X150500017Y-52757906D01*
X150413857Y-52642812D01*
X150413854Y-52642809D01*
X150298760Y-52556649D01*
X150298753Y-52556645D01*
X150164046Y-52506403D01*
X150164039Y-52506401D01*
X150104511Y-52500000D01*
X149006667Y-52500000D01*
X149006667Y-53699998D01*
X148946265Y-53674979D01*
X148820686Y-53650000D01*
X148692648Y-53650000D01*
X148567069Y-53674979D01*
X148506667Y-53699998D01*
X148506667Y-52500000D01*
X147408822Y-52500000D01*
X147349294Y-52506401D01*
X147349287Y-52506403D01*
X147214580Y-52556645D01*
X147214573Y-52556649D01*
X147099479Y-52642809D01*
X147099476Y-52642812D01*
X147013316Y-52757906D01*
X147013312Y-52757913D01*
X146963070Y-52892620D01*
X146963068Y-52892627D01*
X146956667Y-52952155D01*
X144750956Y-52952155D01*
X144840390Y-52862721D01*
X144758839Y-52800145D01*
X144758838Y-52800144D01*
X144554495Y-52682165D01*
X144554486Y-52682160D01*
X144336503Y-52591870D01*
X144336505Y-52591870D01*
X144108581Y-52530799D01*
X143874652Y-52500000D01*
X143638681Y-52500000D01*
X143404752Y-52530799D01*
X143176829Y-52591870D01*
X142958847Y-52682160D01*
X142958838Y-52682165D01*
X142754495Y-52800144D01*
X142754485Y-52800150D01*
X142672942Y-52862720D01*
X142672942Y-52862721D01*
X143509179Y-53698958D01*
X143448777Y-53723978D01*
X143342316Y-53795112D01*
X143251779Y-53885649D01*
X143180645Y-53992110D01*
X143155625Y-54052511D01*
X142319388Y-53216275D01*
X142319387Y-53216275D01*
X142256817Y-53297818D01*
X142256811Y-53297828D01*
X142138832Y-53502171D01*
X142138827Y-53502180D01*
X142048537Y-53720162D01*
X141987466Y-53948085D01*
X141956667Y-54182014D01*
X136274265Y-54182014D01*
X136260021Y-54110402D01*
X136235001Y-54050000D01*
X137435000Y-54050000D01*
X137435000Y-52952172D01*
X137434999Y-52952158D01*
X137431964Y-52923931D01*
X137431964Y-52923930D01*
X137428598Y-52892626D01*
X137428596Y-52892620D01*
X137378354Y-52757913D01*
X137378350Y-52757906D01*
X137292190Y-52642812D01*
X137292187Y-52642809D01*
X137177093Y-52556649D01*
X137177086Y-52556645D01*
X137042379Y-52506403D01*
X137042372Y-52506401D01*
X136982844Y-52500000D01*
X135885000Y-52500000D01*
X135885000Y-53699998D01*
X135824598Y-53674979D01*
X135699019Y-53650000D01*
X135570981Y-53650000D01*
X135445402Y-53674979D01*
X135385000Y-53699998D01*
X135385000Y-52500000D01*
X134287155Y-52500000D01*
X134227627Y-52506401D01*
X134227620Y-52506403D01*
X134092913Y-52556645D01*
X134092906Y-52556649D01*
X133977812Y-52642809D01*
X133977809Y-52642812D01*
X133891649Y-52757906D01*
X133891645Y-52757913D01*
X133841403Y-52892620D01*
X133841401Y-52892627D01*
X133835000Y-52952155D01*
X131629289Y-52952155D01*
X131718723Y-52862721D01*
X131637172Y-52800145D01*
X131637171Y-52800144D01*
X131432828Y-52682165D01*
X131432819Y-52682160D01*
X131214836Y-52591870D01*
X131214838Y-52591870D01*
X130986914Y-52530799D01*
X130752985Y-52500000D01*
X130517014Y-52500000D01*
X130283085Y-52530799D01*
X130055162Y-52591870D01*
X129837180Y-52682160D01*
X129837171Y-52682165D01*
X129632828Y-52800144D01*
X129632818Y-52800150D01*
X129551275Y-52862720D01*
X129551275Y-52862721D01*
X130387512Y-53698958D01*
X130327110Y-53723978D01*
X130220649Y-53795112D01*
X130130112Y-53885649D01*
X130058978Y-53992110D01*
X130033958Y-54052512D01*
X129197721Y-53216275D01*
X129197720Y-53216275D01*
X129135150Y-53297818D01*
X129135144Y-53297828D01*
X129017165Y-53502171D01*
X129017160Y-53502180D01*
X128926870Y-53720162D01*
X128865799Y-53948085D01*
X128835000Y-54182014D01*
X123250500Y-54182014D01*
X123250500Y-44578711D01*
X124849500Y-44578711D01*
X124849500Y-44821288D01*
X124881161Y-45061785D01*
X124943947Y-45296104D01*
X125036773Y-45520205D01*
X125036776Y-45520212D01*
X125158064Y-45730289D01*
X125158066Y-45730292D01*
X125158067Y-45730293D01*
X125305733Y-45922736D01*
X125305739Y-45922743D01*
X125477256Y-46094260D01*
X125477262Y-46094265D01*
X125669711Y-46241936D01*
X125879788Y-46363224D01*
X126103900Y-46456054D01*
X126338211Y-46518838D01*
X126518586Y-46542584D01*
X126578711Y-46550500D01*
X126578712Y-46550500D01*
X126821289Y-46550500D01*
X126869388Y-46544167D01*
X127061789Y-46518838D01*
X127296100Y-46456054D01*
X127520212Y-46363224D01*
X127730289Y-46241936D01*
X127922738Y-46094265D01*
X128094265Y-45922738D01*
X128241936Y-45730289D01*
X128363224Y-45520212D01*
X128456054Y-45296100D01*
X128518838Y-45061789D01*
X128550500Y-44821288D01*
X128550500Y-44578712D01*
X128550500Y-44578711D01*
X176949500Y-44578711D01*
X176949500Y-44821288D01*
X176981161Y-45061785D01*
X177043947Y-45296104D01*
X177136773Y-45520205D01*
X177136776Y-45520212D01*
X177258064Y-45730289D01*
X177258066Y-45730292D01*
X177258067Y-45730293D01*
X177405733Y-45922736D01*
X177405739Y-45922743D01*
X177577256Y-46094260D01*
X177577262Y-46094265D01*
X177769711Y-46241936D01*
X177979788Y-46363224D01*
X178203900Y-46456054D01*
X178438211Y-46518838D01*
X178618586Y-46542584D01*
X178678711Y-46550500D01*
X178678712Y-46550500D01*
X178921289Y-46550500D01*
X178969388Y-46544167D01*
X179161789Y-46518838D01*
X179396100Y-46456054D01*
X179620212Y-46363224D01*
X179830289Y-46241936D01*
X180022738Y-46094265D01*
X180194265Y-45922738D01*
X180341936Y-45730289D01*
X180463224Y-45520212D01*
X180556054Y-45296100D01*
X180618838Y-45061789D01*
X180650500Y-44821288D01*
X180650500Y-44578712D01*
X180618838Y-44338211D01*
X180556054Y-44103900D01*
X180463224Y-43879788D01*
X180341936Y-43669711D01*
X180194265Y-43477262D01*
X180194260Y-43477256D01*
X180022743Y-43305739D01*
X180022736Y-43305733D01*
X179830293Y-43158067D01*
X179830292Y-43158066D01*
X179830289Y-43158064D01*
X179620212Y-43036776D01*
X179620205Y-43036773D01*
X179396104Y-42943947D01*
X179161785Y-42881161D01*
X178921289Y-42849500D01*
X178921288Y-42849500D01*
X178678712Y-42849500D01*
X178678711Y-42849500D01*
X178438214Y-42881161D01*
X178203895Y-42943947D01*
X177979794Y-43036773D01*
X177979785Y-43036777D01*
X177769706Y-43158067D01*
X177577263Y-43305733D01*
X177577256Y-43305739D01*
X177405739Y-43477256D01*
X177405733Y-43477263D01*
X177258067Y-43669706D01*
X177136777Y-43879785D01*
X177136773Y-43879794D01*
X177043947Y-44103895D01*
X176981161Y-44338214D01*
X176949500Y-44578711D01*
X128550500Y-44578711D01*
X128518838Y-44338211D01*
X128456054Y-44103900D01*
X128363224Y-43879788D01*
X128241936Y-43669711D01*
X128094265Y-43477262D01*
X128094260Y-43477256D01*
X127922743Y-43305739D01*
X127922736Y-43305733D01*
X127730293Y-43158067D01*
X127730292Y-43158066D01*
X127730289Y-43158064D01*
X127520212Y-43036776D01*
X127520205Y-43036773D01*
X127296104Y-42943947D01*
X127061785Y-42881161D01*
X126821289Y-42849500D01*
X126821288Y-42849500D01*
X126578712Y-42849500D01*
X126578711Y-42849500D01*
X126338214Y-42881161D01*
X126103895Y-42943947D01*
X125879794Y-43036773D01*
X125879785Y-43036777D01*
X125669706Y-43158067D01*
X125477263Y-43305733D01*
X125477256Y-43305739D01*
X125305739Y-43477256D01*
X125305733Y-43477263D01*
X125158067Y-43669706D01*
X125036777Y-43879785D01*
X125036773Y-43879794D01*
X124943947Y-44103895D01*
X124881161Y-44338214D01*
X124849500Y-44578711D01*
X123250500Y-44578711D01*
X123250500Y-41324500D01*
X123270185Y-41257461D01*
X123322989Y-41211706D01*
X123374500Y-41200500D01*
X182125500Y-41200500D01*
X182192539Y-41220185D01*
G37*
%TD.AperFunction*%
%TD*%
M02*
