%TF.GenerationSoftware,KiCad,Pcbnew,10.0.1*%
%TF.CreationDate,2026-05-14T13:20:08-04:00*%
%TF.ProjectId,Bench_Power_Supply,42656e63-685f-4506-9f77-65725f537570,rev?*%
%TF.SameCoordinates,Original*%
%TF.FileFunction,Soldermask,Bot*%
%TF.FilePolarity,Negative*%
%FSLAX46Y46*%
G04 Gerber Fmt 4.6, Leading zero omitted, Abs format (unit mm)*
G04 Created by KiCad (PCBNEW 10.0.1) date 2026-05-14 13:20:08*
%MOMM*%
%LPD*%
G01*
G04 APERTURE LIST*
%ADD10C,1.600000*%
%ADD11R,2.600000X2.600000*%
%ADD12C,2.600000*%
%ADD13C,3.200000*%
%ADD14O,3.500000X2.900000*%
G04 APERTURE END LIST*
D10*
%TO.C,R2*%
X149200000Y-98900000D03*
X158180256Y-107880256D03*
%TD*%
D11*
%TO.C,J9*%
X173700000Y-85105000D03*
D12*
X173700000Y-80105000D03*
%TD*%
D11*
%TO.C,J4*%
X156878333Y-125272500D03*
D12*
X161878333Y-125272500D03*
%TD*%
D11*
%TO.C,J2*%
X135635000Y-54300000D03*
D12*
X130635000Y-54300000D03*
%TD*%
D11*
%TO.C,J5*%
X173700000Y-99295000D03*
D12*
X173700000Y-94295000D03*
%TD*%
D11*
%TO.C,J10*%
X175000000Y-54300000D03*
D12*
X170000000Y-54300000D03*
%TD*%
D11*
%TO.C,J13*%
X130635000Y-125272500D03*
D12*
X135635000Y-125272500D03*
%TD*%
D13*
%TO.C,REF\u002A\u002A*%
X178800000Y-44700000D03*
%TD*%
D14*
%TO.C,J1*%
X136900000Y-66600000D03*
X136900000Y-70800000D03*
X136900000Y-75000000D03*
X136900000Y-79200000D03*
X136900000Y-83400000D03*
X136900000Y-87600000D03*
X136900000Y-91800000D03*
X136900000Y-96000000D03*
X136900000Y-100200000D03*
X136900000Y-104400000D03*
X136900000Y-108600000D03*
X136900000Y-112800000D03*
X132700000Y-66600000D03*
X132700000Y-70800000D03*
X132700000Y-75000000D03*
X132700000Y-79200000D03*
X132700000Y-83400000D03*
X132700000Y-87600000D03*
X132700000Y-91800000D03*
X132700000Y-96000000D03*
X132700000Y-100200000D03*
X132700000Y-104400000D03*
X132700000Y-108600000D03*
X132700000Y-112800000D03*
%TD*%
D13*
%TO.C,REF\u002A\u002A*%
X126700000Y-134800000D03*
%TD*%
D11*
%TO.C,J8*%
X173700000Y-113485000D03*
D12*
X173700000Y-108485000D03*
%TD*%
D10*
%TO.C,R1*%
X145500000Y-104000000D03*
X154480256Y-112980256D03*
%TD*%
D11*
%TO.C,J7*%
X170000000Y-125272500D03*
D12*
X175000000Y-125272500D03*
%TD*%
D11*
%TO.C,J3*%
X173700000Y-70915000D03*
D12*
X173700000Y-65915000D03*
%TD*%
D11*
%TO.C,J12*%
X143756667Y-125272500D03*
D12*
X148756667Y-125272500D03*
%TD*%
D13*
%TO.C,REF\u002A\u002A*%
X178800000Y-134800000D03*
%TD*%
%TO.C,REF\u002A\u002A*%
X126700000Y-44700000D03*
%TD*%
D11*
%TO.C,J6*%
X148756667Y-54300000D03*
D12*
X143756667Y-54300000D03*
%TD*%
D11*
%TO.C,J11*%
X161878333Y-54300000D03*
D12*
X156878333Y-54300000D03*
%TD*%
M02*
